<svg version="1.2" xmlns="http://www.w3.org/2000/svg" viewBox="0 0 387 384" width="40" height="40">
	<title>image2vector (2)-svg</title>
	<style>
		.s0 { fill: #050707 } 
		.s1 { fill: #83e3fc } 
		.s2 { fill: #44747c } 
		.s3 { fill: #345464 } 
		.s4 { fill: #64acbe } 
	</style>
	<g id="svgg">
		<path id="path0" fill-rule="evenodd" class="s0" d="m389.9-3.9c0.4 0.5 0.4 391.3 0 391.8-0.5 0.4-391.3 0.4-391.8 0-0.3-0.4-0.7-387.5-0.3-390.2 0.2-1.3 0.4-1.7 1.1-1.8 1.7-0.3 390.6-0.1 391 0.2zm-380.9 18.1c-0.9 1-0.9 354.6 0 355.6 1 0.9 369 0.9 370 0 0.9-1 0.9-354.6 0-355.6-1-0.9-369-0.9-370 0zm187.1 98.4h72.2l1.3 0.9c0.7 0.5 2.1 1.2 3.2 1.5 1.1 0.4 2.1 0.8 2.2 1 0.2 0.3 1.1 0.8 2.1 1.2 1 0.5 2.5 1.4 3.3 2 2.2 1.8 3.8 3.2 5 4.2 0.5 0.6 1.4 1.2 1.8 1.4 0.5 0.2 1.1 1 1.5 1.8 1.3 2.4 3.4 5.4 3.8 5.4 0.2 0 0.6 0.7 1 1.5 0.3 0.8 0.9 1.9 1.3 2.3 0.4 0.4 0.9 1.5 1.2 2.4 0.3 0.9 0.8 2 1.2 2.4 0.4 0.4 1 1.7 1.3 2.7 0.2 1.1 0.8 2.3 1.2 2.7 0.3 0.4 0.9 1.7 1.3 3 0.4 1.2 0.9 2.3 1.2 2.5 0.7 0.2 0.9 0.9 1.4 4.7 0.2 1.7 0.7 3.7 1.2 4.3 0.4 0.8 0.9 2.8 1.2 5.1 0.2 2.1 0.8 4.9 1.3 6.2 1.3 3.7 1.3 36.7 0 40.4-0.5 1.3-1.1 4.1-1.3 6.2-0.3 2.3-0.8 4.3-1.2 5.1-0.5 0.6-1 2.6-1.2 4.3-0.5 3.8-0.7 4.5-1.4 4.7-0.3 0.2-0.8 1.3-1.2 2.5-0.4 1.3-1 2.6-1.3 3-0.4 0.4-1 1.6-1.2 2.7-0.3 1-0.9 2.3-1.3 2.7-0.4 0.4-0.9 1.5-1.2 2.4-0.3 0.9-0.8 2-1.2 2.4-0.4 0.4-1 1.5-1.3 2.3-0.4 0.8-0.8 1.5-1 1.5-0.4 0-2.5 3-3.8 5.4-0.4 0.8-1 1.6-1.5 1.8-0.4 0.2-1.3 0.8-1.8 1.4-1.2 1-2.8 2.4-5 4.2-0.8 0.6-2.3 1.5-3.3 2-1 0.4-1.9 0.9-2.1 1.2-0.1 0.2-1.1 0.6-2.2 1-1.1 0.3-2.5 1-3.2 1.5l-1.3 0.9h-148.6l-1.3-0.9c-0.7-0.5-2.1-1.2-3.2-1.5-1.1-0.4-2.1-0.8-2.2-1-0.2-0.3-1.1-0.8-2.1-1.2-1-0.5-2.5-1.4-3.3-2-1.9-1.6-3.8-3.2-5-4.3-0.6-0.5-1.4-1.1-1.8-1.3-0.5-0.2-1.1-1-1.5-1.8-1.3-2.4-3.4-5.4-3.8-5.4-0.2 0-0.6-0.7-1-1.5-0.3-0.8-0.9-1.9-1.3-2.3-0.4-0.4-0.9-1.5-1.2-2.4-0.3-0.9-0.8-2-1.2-2.4-0.4-0.4-1-1.7-1.3-2.7-0.2-1.1-0.8-2.3-1.2-2.7-0.3-0.4-0.9-1.7-1.3-2.8-0.3-1.2-1-2.5-1.4-2.9-0.4-0.4-0.8-0.9-0.8-1.2-0.1-2.7-0.9-6.6-1.6-7.9-0.5-1-0.9-2.8-1.1-4.5-0.1-1.6-0.7-4.3-1.2-6.1l-1.1-3.2v-34.8l1.1-3.2c0.5-1.8 1.1-4.5 1.2-6.1 0.2-1.7 0.6-3.5 1.1-4.5 0.7-1.3 1.5-5.2 1.6-7.9 0-0.3 0.4-0.8 0.8-1.2 0.4-0.4 1.1-1.7 1.4-2.9 0.4-1.1 1-2.4 1.3-2.8 0.4-0.4 1-1.6 1.2-2.7 0.3-1 0.9-2.3 1.3-2.7 0.4-0.4 0.9-1.5 1.2-2.4 0.3-0.9 0.8-2 1.2-2.4 0.4-0.4 1-1.5 1.3-2.3 0.4-0.8 0.8-1.5 1-1.5 0.4 0 2.5-3 3.8-5.4 0.4-0.8 1-1.6 1.5-1.8 0.4-0.2 1.3-0.8 1.8-1.4 1.2-1 2.8-2.4 5-4.2 0.8-0.6 2.3-1.5 3.3-2 1-0.4 1.9-0.9 2.1-1.2 0.1-0.2 1.2-0.7 2.3-1 1.1-0.3 2.4-0.9 2.8-1.3 0.5-0.4 1.7-0.8 3.2-0.9 1.4-0.2 35-0.3 74.8-0.2zm65.3 11.6l-66.4-0.1c-65.3 0-68.2 0-70.5 1.3-0.6 0.3-2.5 0.7-4.3 1-2.6 0.3-3.3 0.5-4 1.3-0.4 0.6-1.4 1.2-2 1.3-0.7 0.1-1.7 0.7-2.2 1.2-0.5 0.5-1.4 1.2-2 1.4-0.7 0.3-1.3 0.8-1.4 1.2-0.1 0.4-0.6 0.9-1 1-0.5 0.1-1.1 0.7-1.5 1.3-0.4 0.6-1 1.5-1.5 1.9-0.4 0.5-1.5 1.8-2.4 3-0.9 1.1-2.1 2.6-2.7 3.3-0.6 0.7-1.1 1.4-1.1 1.7 0 0.3-0.4 1.1-1 1.7-0.5 0.7-1.1 1.9-1.3 2.7-0.2 0.9-0.9 2.3-1.4 3.2-0.6 0.8-1.1 1.9-1.1 2.4 0 0.5-0.4 1.5-1 2.3-1.2 1.8-1.3 2.2-1.8 6.3-0.2 1.9-0.7 4.3-1.2 5.4-1.5 3.2-2 18.6-1.3 34.8 0.3 8.1 0.5 9.5 1.3 11.2 0.5 1.1 1 3.5 1.2 5.4 0.5 4.1 0.6 4.5 1.8 6.3 0.6 0.8 1 1.8 1 2.3 0 0.5 0.5 1.6 1.1 2.4 0.5 0.9 1.2 2.3 1.4 3.2 0.2 0.8 0.8 2 1.3 2.7 0.6 0.6 1 1.4 1 1.7 0 0.3 0.5 1 1.1 1.7 0.6 0.7 1.8 2.2 2.7 3.3 0.9 1.2 2 2.5 2.4 3 0.5 0.4 1.1 1.3 1.5 1.9 0.4 0.6 1 1.2 1.5 1.3 0.4 0.1 0.9 0.6 1 1 0.1 0.4 0.7 0.9 1.4 1.2 0.6 0.2 1.5 0.9 2 1.4 0.5 0.5 1.5 1.1 2.2 1.2 0.6 0.1 1.6 0.7 2 1.3 0.7 0.8 1.4 1 4 1.4 1.8 0.2 4 0.8 5 1.2l1.8 0.9h134.4l1.8-0.9c1-0.5 3-1 4.6-1.3 2-0.3 3-0.6 3.8-1.4 0.6-0.5 1.2-1 1.5-1 0.2 0 1.1-0.5 1.9-1.2 0.8-0.6 1.9-1.3 2.3-1.4 0.5-0.2 1.3-0.7 1.9-1.2 2-1.9 3-2.9 3.5-3.5 0.3-0.3 0.7-0.7 0.9-0.9 2.3-2.4 5.5-6.8 6.2-8.4 0.3-0.7 0.8-1.5 1.2-1.8 0.3-0.3 0.7-1.1 0.8-1.9 0.2-0.8 0.8-2.3 1.4-3.3 0.7-0.9 1.2-2.1 1.2-2.6 0-0.5 0.4-1.5 1-2.3 1.2-1.9 1.3-2.2 1.8-6.6 0.2-2 0.6-4.1 0.9-4.6 1.7-2.5 2.4-16.9 1.7-33.7-0.3-8.5-0.7-11.8-1.7-13.3-0.3-0.5-0.7-2.6-0.9-4.6-0.5-4.4-0.6-4.7-1.8-6.6-0.6-0.8-1-1.8-1-2.3 0-0.5-0.5-1.7-1.2-2.6-0.6-1-1.2-2.5-1.4-3.3-0.1-0.8-0.5-1.6-0.8-1.9-0.4-0.3-0.9-1.1-1.2-1.8-0.7-1.6-3.9-6-6.2-8.4-0.2-0.2-0.6-0.6-0.9-0.9-0.5-0.6-1.5-1.6-3.5-3.5-0.6-0.5-1.4-1-1.9-1.2-0.4-0.1-1.5-0.8-2.3-1.4-0.8-0.7-1.7-1.2-1.9-1.2-0.3 0-0.9-0.5-1.5-1-0.8-0.8-1.8-1.1-3.8-1.4-1.6-0.3-3.6-0.8-4.6-1.3z"/>
		<path id="path1" fill-rule="evenodd" class="s1" d="m10 15.6h368v352.8h-368zm116.2 93.6c-1.3 0.2-3 0.7-3.8 1-0.8 0.3-2.7 0.7-4.4 1-2.2 0.3-3.1 0.6-4 1.3-0.5 0.6-1.7 1.2-2.6 1.3-0.8 0.2-1.9 0.7-2.4 1.2-0.5 0.6-1.4 1.2-2 1.4-0.6 0.2-1.2 0.8-1.3 1.2-0.1 0.4-0.4 0.8-0.7 0.8-1.5 0-8.9 7.2-9.2 9.1-0.2 0.8-0.6 1.4-1.1 1.5-0.4 0.1-1 0.8-1.4 1.5-0.3 0.7-1 1.8-1.6 2.4-0.5 0.7-0.9 1.6-0.9 2.1 0 0.5-0.4 1.2-1 1.7-0.8 0.5-1.2 1.3-1.4 2.7-0.3 1.2-0.7 2.2-1.2 2.6-0.5 0.3-1.1 1.6-1.4 2.8-0.3 1.1-0.9 2.5-1.4 3-0.4 0.5-1 1.9-1.2 3.2-0.3 1.3-0.8 2.8-1.2 3.4-0.6 0.7-0.9 2.2-1.3 5.6-0.2 2.9-0.6 4.7-0.9 5-1.2 0.9-1.5 3-1.8 12.4-0.2 5.7-0.5 10.1-0.7 10.7-0.6 1.5-0.6 6.3 0 7.8 0.2 0.6 0.5 5 0.7 10.7 0.3 9.4 0.6 11.5 1.8 12.4 0.3 0.3 0.7 2.1 0.9 5 0.4 3.4 0.7 4.9 1.3 5.6 0.4 0.6 0.9 2.1 1.2 3.4 0.2 1.3 0.8 2.7 1.2 3.2 0.5 0.5 1.1 1.9 1.4 3 0.3 1.2 0.9 2.5 1.4 2.8 0.5 0.4 0.9 1.4 1.2 2.6 0.2 1.4 0.6 2.2 1.4 2.7 0.6 0.5 1 1.2 1 1.7 0 0.5 0.4 1.4 0.9 2.1 0.6 0.6 1.3 1.7 1.6 2.4 0.4 0.7 1 1.4 1.4 1.5 0.5 0.1 0.9 0.7 1.1 1.5 0.3 1.9 7.7 9.1 9.2 9.1 0.3 0 0.6 0.4 0.7 0.8 0.1 0.4 0.7 1 1.3 1.2 0.6 0.2 1.5 0.8 2 1.4 0.5 0.5 1.6 1 2.4 1.2 0.9 0.1 2.1 0.7 2.7 1.3 0.8 0.7 1.7 1.1 4.2 1.4 1.7 0.2 3.6 0.6 4.1 0.9 2.6 1.3 7.1 1.4 71.5 1.4 63.5 0 68.7-0.1 71.4-1.4 0.7-0.3 2.7-0.7 4.4-0.9 2.5-0.4 3.4-0.7 4.2-1.4 0.6-0.6 1.8-1.2 2.7-1.3 0.8-0.2 1.9-0.7 2.4-1.2 0.5-0.6 1.4-1.2 2-1.4 0.6-0.2 1.2-0.8 1.3-1.2 0.1-0.4 0.4-0.8 0.7-0.8 1.5 0 8.9-7.2 9.2-9.1 0.2-0.8 0.6-1.4 1.1-1.5 0.4-0.1 1-0.8 1.4-1.5 0.3-0.7 1-1.8 1.6-2.4 0.5-0.7 0.9-1.6 0.9-2.1 0-0.5 0.4-1.2 1-1.7 0.8-0.5 1.2-1.3 1.4-2.7 0.3-1.2 0.7-2.2 1.2-2.6 0.5-0.3 1.1-1.6 1.4-2.8 0.3-1.1 0.9-2.5 1.4-3 0.4-0.5 1-1.9 1.2-3.2 0.3-1.3 0.8-2.8 1.3-3.4 0.6-0.8 0.9-2.2 1.2-5.4 0.3-3.4 0.5-4.6 1.1-5.2 1.1-1.2 1.6-5.3 1.6-13.6 0-4.9 0.2-7.4 0.6-8.8 0.8-2.5 0.8-6.7 0-9.2-0.4-1.4-0.6-3.9-0.6-8.8 0-8.3-0.5-12.4-1.6-13.6-0.6-0.6-0.8-1.8-1.1-5.2-0.3-3.2-0.6-4.6-1.2-5.4-0.5-0.6-1-2.1-1.3-3.4-0.2-1.3-0.8-2.7-1.2-3.2-0.5-0.5-1.1-1.9-1.4-3-0.3-1.2-0.9-2.5-1.4-2.8-0.5-0.4-0.9-1.4-1.2-2.6-0.2-1.4-0.6-2.2-1.4-2.7-0.6-0.5-1-1.2-1-1.7 0-0.5-0.4-1.4-0.9-2.1-0.6-0.6-1.3-1.7-1.6-2.4-0.4-0.7-1-1.4-1.4-1.5-0.5-0.1-0.9-0.7-1.1-1.5-0.3-1.9-7.7-9.1-9.2-9.1-0.3 0-0.6-0.4-0.7-0.8-0.1-0.4-0.7-1-1.3-1.2-0.6-0.2-1.5-0.8-2-1.4-0.5-0.5-1.6-1-2.4-1.2-0.9-0.1-2.1-0.7-2.7-1.3-0.8-0.7-1.7-1-4.2-1.4-1.7-0.2-3.7-0.6-4.4-0.9-0.7-0.4-2.6-0.8-4.2-1-3.7-0.5-131.5-0.4-134.9 0zm67.4 18.1c66.9 0 73.4 0.1 74.5 1.6 0.3 0.4 1.3 1 2.3 1.3 0.9 0.3 2.1 1.1 2.6 1.6 0.5 0.6 1.3 1 1.8 1 0.4 0 1.1 0.4 1.4 1 0.4 0.5 1.4 1.1 2.4 1.4 1.3 0.4 1.8 0.7 2 1.5 0.3 1 1.5 2.7 4.1 5.5 0.7 0.8 1.3 1.7 1.3 2 0 0.3 0.4 0.8 0.8 1.1 0.5 0.4 1.1 1.5 1.4 2.7 0.3 1.2 0.9 2.5 1.4 2.8 0.4 0.3 0.9 1.3 1 2.2 0.4 1.9 1.2 3.7 1.8 3.9 0.3 0.1 0.7 1.5 1 3.2 0.3 1.7 0.9 3.6 1.3 4.2 0.6 0.8 0.9 2 1.1 5.2 0.1 2.4 0.6 5.3 1.2 7.5 1.5 5.2 1.5 24.7 0 30-0.6 2.2-1.1 5.1-1.2 7.5-0.2 3.2-0.5 4.4-1.1 5.2-0.4 0.6-1 2.5-1.3 4.2-0.3 1.7-0.7 3.1-1 3.2-0.6 0.2-1.4 2-1.8 3.9-0.1 0.9-0.6 1.9-1 2.2-0.5 0.3-1.1 1.6-1.4 2.8-0.3 1.2-0.9 2.3-1.4 2.7-0.4 0.3-0.8 0.8-0.8 1.1 0 0.3-0.6 1.2-1.3 2-2.6 2.8-3.8 4.5-4.1 5.5-0.2 0.8-0.7 1.1-2 1.5-1 0.3-2 0.9-2.4 1.4-0.3 0.6-1 1-1.4 1-0.5 0-1.3 0.4-1.8 1-0.5 0.5-1.7 1.3-2.6 1.6-1 0.3-2 0.9-2.3 1.3-1.1 1.5-7.7 1.6-73.3 1.7-66.1 0-72.9-0.1-74.6-1.7-0.5-0.4-1.8-1-2.9-1.3-1.2-0.4-2.3-1-2.5-1.4-0.2-0.4-0.9-0.9-1.5-1.1-0.6-0.1-1.8-0.8-2.6-1.6-0.8-0.7-1.8-1.3-2.2-1.3-0.5 0-0.9-0.5-1.2-1.8-0.3-1-0.8-1.9-1.3-2.2-0.4-0.2-1.1-0.9-1.4-1.6-0.3-0.6-0.9-1.3-1.4-1.4-0.4-0.1-0.8-0.7-1-1.2-0.1-0.6-0.7-1.4-1.2-1.9-0.6-0.5-1.1-1.5-1.2-2.4-0.2-0.9-0.7-2-1.2-2.5-0.5-0.4-1.1-1.5-1.2-2.4-0.4-1.9-1.2-3.7-1.8-3.9-0.3-0.1-0.7-1.4-1-3-0.3-1.6-0.9-3.4-1.3-4-0.6-0.8-0.9-2-1.1-5.1-0.1-2.3-0.6-5.4-1.1-7.2-1.4-4.9-1.4-26.7 0-31.6 0.5-1.8 1-4.9 1.1-7.2 0.2-3.1 0.5-4.3 1.1-5.1 0.4-0.6 1-2.4 1.3-4 0.3-1.6 0.7-2.9 1-3 0.6-0.2 1.4-2 1.8-3.9 0.1-0.9 0.7-2 1.2-2.4 0.5-0.5 1-1.6 1.2-2.5 0.1-0.9 0.6-1.9 1.2-2.4 0.5-0.5 1.1-1.3 1.2-1.9 0.2-0.5 0.6-1.1 1-1.2 0.5-0.1 1.1-0.8 1.4-1.4 0.3-0.7 1-1.4 1.4-1.6 0.5-0.3 1-1.2 1.3-2.2 0.3-1.3 0.7-1.8 1.2-1.8 0.4 0 1.4-0.6 2.2-1.3 0.8-0.8 2-1.5 2.6-1.6 0.6-0.2 1.3-0.7 1.5-1.1 0.2-0.4 1.3-1 2.5-1.4 1.1-0.3 2.4-0.9 2.8-1.3 0.6-0.5 2-0.8 5.2-1.1 3-0.3 25.5-0.5 68.3-0.5z"/>
		<path id="path2" fill-rule="evenodd" class="s2" d="m378.6 15c0.9 1.1 0.9 352.9 0 354-0.9 1.2-368.3 1.2-369.2 0-0.8-1.1-0.9-352.9-0.1-353.9 0.3-0.4 1.1-0.7 1.9-0.8 6.2-0.7 366.9 0 367.4 0.7zm-0.4 0l-184.1-0.1c-147.1-0.1-184.2 0-184.3 0.4-0.1 0.3-0.2 80-0.1 177.1l0.1 176.6h368.4zm-119.8 95.4c1.2 0.2 4.4 0.7 7.1 1 4.1 0.5 5.3 0.8 7 1.7 1.2 0.7 2.6 1.3 3.1 1.5 3.1 0.9 12.9 9 15 12.3 0.7 1.1 1.8 2.7 2.4 3.5 2.6 3.4 4 6.1 7.6 13.8 0.8 1.8 1.9 4 2.4 5 0.5 1 1.2 2.7 1.4 3.8 0.3 1.1 0.8 3 1.2 4.2 0.4 1.2 1 3.6 1.2 5.3 0.2 1.6 0.8 4 1.2 5.2 2 4.9 2 43.7 0 48.6-0.4 1.2-1 3.6-1.2 5.2-0.2 1.7-0.8 4.1-1.2 5.3-0.4 1.2-0.9 3.1-1.2 4.2-0.2 1.1-0.9 2.8-1.4 3.8-0.5 1-1.6 3.2-2.4 5-3.6 7.7-5 10.4-7.6 13.8-0.6 0.8-1.7 2.4-2.4 3.5-2.1 3.3-11.9 11.4-15 12.3-0.5 0.2-1.9 0.8-3.1 1.5-1.7 0.9-2.9 1.2-7 1.7-2.7 0.3-5.9 0.8-7.1 1-2.7 0.5-126.7 0.5-129 0-0.9-0.2-3.9-0.6-6.7-1-4.3-0.4-5.5-0.7-7.2-1.7-1.2-0.7-2.5-1.3-3.1-1.5-3.1-0.9-12.9-9-15-12.3-0.7-1.1-1.8-2.7-2.4-3.5-2.5-3.4-3.9-5.9-7.6-13.8-0.8-1.8-2-4.3-2.6-5.6-0.7-1.3-1.2-2.6-1.2-3 0-0.4-0.4-2.2-1-3.9-0.5-1.7-1.2-4.5-1.4-6.3-0.3-1.7-0.8-4.1-1.3-5.2-1.9-4.7-1.9-42.9 0-47.6 0.5-1.1 1-3.5 1.3-5.2 0.2-1.8 0.9-4.6 1.4-6.3 0.6-1.7 1-3.5 1-3.9 0-0.4 0.5-1.7 1.2-3 0.6-1.3 1.8-3.8 2.6-5.6 3.7-7.9 5.1-10.4 7.6-13.8 0.6-0.8 1.7-2.4 2.4-3.5 2.1-3.3 11.9-11.4 15-12.3 0.6-0.2 1.9-0.8 3.1-1.5 1.7-1 2.9-1.3 7.1-1.7 2.8-0.4 5.7-0.8 6.5-1 2.2-0.5 126.7-0.5 129.3 0zm-134.8 1.4c-6.9 0.7-13.1 3.6-20 9.5-3.9 3.4-5 4.5-7 7.7-0.4 0.7-1.6 2.5-2.7 4.1-1.6 2.4-3.3 5.7-6.8 13.3-0.7 1.4-1.5 3.2-1.9 4-0.4 0.8-1.1 2.8-1.4 4.4-0.3 1.7-0.9 3.7-1.2 4.6-0.3 0.9-0.9 3.3-1.2 5.3-0.3 2.1-0.9 4.3-1.2 4.9-1.6 3.1-1.6 41.7 0 44.8 0.3 0.6 0.9 2.8 1.2 4.9 0.3 2 0.9 4.4 1.2 5.3 0.3 0.9 0.9 2.9 1.2 4.6 0.3 1.6 1 3.6 1.4 4.4 0.4 0.8 1.2 2.6 1.9 4 3.5 7.6 5.2 10.9 6.8 13.3 1.1 1.6 2.3 3.4 2.7 4 2 3.3 3.1 4.4 7 7.8 3.9 3.3 6.1 4.7 12.4 7.7 4.8 2.3 6.2 2.4 77.6 2.4 68.5 0 74.1-0.1 77.5-1.9 0.8-0.5 3.1-1.6 5.1-2.6 4.3-2.1 11.9-8.3 13.9-11.3 0.7-1.1 1.5-2.4 1.8-2.8 0.3-0.4 1.3-2 2.3-3.4 1.6-2.4 3.3-5.7 6.7-13.2 0.7-1.4 1.5-3.2 1.9-4 0.4-0.8 1-2.5 1.2-3.6 0.3-1.2 0.8-3.2 1.2-4.4 0.4-1.2 0.9-3.6 1.2-5.4 0.3-1.7 0.8-4 1.2-5.1 1.9-4.7 1.9-41.5 0-46.2-0.4-1.1-0.9-3.4-1.2-5.1-0.3-1.8-0.8-4.2-1.2-5.4-0.4-1.2-0.9-3.2-1.2-4.4-0.2-1.2-0.8-2.8-1.2-3.6-0.4-0.8-1.2-2.6-1.9-4-4.4-9.5-4.9-10.5-9-16.6-0.3-0.4-1.1-1.7-1.8-2.8-2-3-9.6-9.2-13.9-11.3-2-1-4.3-2.1-5.1-2.6-1.1-0.6-3.1-0.9-7.6-1.3-8.4-0.8-132.2-0.8-139.9 0zm137.1 13.8c1.3 0.4 3.3 0.9 4.4 1 3.2 0.4 5 1 6.1 1.9 1.1 0.9 2.1 1.6 5.2 3.3 0.9 0.5 1.9 1.3 2.4 1.7 0.5 0.5 1.3 1 1.7 1.1 0.4 0.1 0.7 0.4 0.7 0.6 0 0.2 0.5 0.9 1.1 1.5 0.6 0.7 1.4 1.6 1.7 2 0.3 0.5 1.4 1.9 2.5 3.2 1.7 2.3 5.1 8.3 5.1 9.1 0 0.2 0.3 1 0.7 1.8 2.3 4.2 3.7 8.4 4.3 12.4 0.3 2.3 1 5.3 1.4 6.6 1.8 5.6 1.8 34.8 0 40.4-0.4 1.3-1.1 4.3-1.4 6.6-0.6 4-2 8.2-4.3 12.4-0.4 0.8-0.7 1.6-0.7 1.8 0 0.8-3.4 6.8-5.1 9.1-1.1 1.3-2.2 2.7-2.5 3.2-0.3 0.4-1.1 1.3-1.7 2-0.6 0.6-1.1 1.3-1.1 1.5 0 0.2-0.3 0.4-0.7 0.6-0.4 0.1-1.2 0.6-1.7 1.1-0.5 0.4-1.5 1.2-2.4 1.7-3.1 1.7-4.1 2.4-5.2 3.3-1.1 0.9-2.9 1.5-6.1 1.9-1.1 0.1-3.1 0.6-4.4 1-3.7 1.2-129.2 1.2-132.9 0.1-1.3-0.5-3.9-1-5.8-1.3-2.2-0.3-3.9-0.8-4.8-1.4-1.8-1.2-3.8-2.4-5.8-3.4-0.9-0.5-1.9-1.3-2.3-1.8-0.4-0.5-1-1.1-1.4-1.2-0.5-0.1-1-0.7-1.2-1.2-0.5-1.1-1.2-2-5.1-6.7-1.9-2.3-5-7.6-5-8.5 0-0.2-0.3-1-0.7-1.8-2.1-4-3.7-8.5-4.3-12.2-0.4-2.2-1-5.2-1.4-6.6-1.8-6.1-1.8-34.7 0-40.8 0.4-1.4 1-4.4 1.4-6.6 0.6-3.7 2.2-8.2 4.3-12.2 0.4-0.8 0.7-1.6 0.7-1.8 0-0.9 3.1-6.2 5-8.5 3.9-4.7 4.6-5.6 5.1-6.7 0.2-0.5 0.7-1.1 1.2-1.2 0.4-0.1 1-0.7 1.4-1.2 0.4-0.5 1.4-1.3 2.3-1.8 1.9-1 3.9-2.2 5.8-3.4 0.9-0.6 2.8-1.1 5.4-1.6 2.2-0.3 4.7-0.9 5.6-1.2 2.8-1 129.2-0.9 132.5 0.2zm-65.5-0.3c-60.4 0-64.9 0.1-67.2 1-0.5 0.2-2.6 0.6-4.6 0.9-1.9 0.2-4.1 0.7-4.8 1-2.2 1.1-4.4 2.4-5.6 3.2-0.7 0.5-1.6 1-2.1 1.2-0.5 0.1-1.1 0.6-1.3 1-0.3 0.5-0.9 1-1.4 1.2-0.6 0.2-1.2 0.8-1.4 1.4-0.4 1-2.3 3.6-5.2 7-1 1.2-2.4 3.4-3.1 4.8-3 6.3-3.7 8-4.7 10.6-1.5 4-1.7 4.8-2.2 8.4-0.2 1.8-0.7 4.1-1 5.2-1.9 5.5-1.9 34.1 0 39.6 0.3 1.1 0.8 3.4 1 5.2 0.5 3.6 0.7 4.3 2.2 8.4 1 2.6 1.7 4.3 4.7 10.6 0.7 1.4 2.1 3.6 3.1 4.8 2.9 3.4 4.8 6 5.2 7 0.2 0.6 0.8 1.2 1.4 1.4 0.5 0.2 1.1 0.7 1.4 1.2 0.2 0.4 0.8 0.9 1.3 1 0.5 0.2 1.4 0.7 2.1 1.2 1.2 0.8 3.4 2.1 5.6 3.2 0.7 0.3 2.8 0.7 4.6 1 1.9 0.2 4.2 0.7 5.2 1.1 2.8 1.1 128.3 1.1 131.4 0 1.1-0.4 3.4-0.8 5-1.1 1.7-0.2 3.4-0.5 3.8-0.7 1.5-0.6 5.4-3 5.4-3.3 0-0.2 0.5-0.5 1.2-0.8 0.7-0.3 1.9-1 2.7-1.7 0.8-0.6 1.7-1.1 2-1.1 0.3 0 0.9-0.6 1.4-1.4 0.4-0.8 0.9-1.4 1.1-1.4 0.2 0 0.7-0.6 1.1-1.3 0.5-0.7 1.7-2.4 2.7-3.7 4.5-6 9.3-17.8 10.2-25 0.2-1.8 0.7-4 1-4.7 1.8-4.4 1.8-35 0-39.4-0.3-0.7-0.8-2.9-1-4.7-0.9-7.2-5.7-19-10.2-25-1-1.3-2.2-3-2.7-3.7-0.4-0.7-0.9-1.3-1.1-1.3-0.2 0-0.7-0.6-1.1-1.4-0.5-0.8-1.1-1.4-1.5-1.4-0.3 0-1-0.4-1.7-0.9-0.6-0.6-1.7-1.3-2.5-1.7-0.8-0.4-1.5-0.9-1.6-1.1-1.1-1.6-6.1-3.6-10.1-4.1-1.3-0.1-3.1-0.6-4-0.9-1.6-0.6-7-0.7-64.7-0.8z"/>
		<path id="path3" fill-rule="evenodd" class="s3" d="m379 14.2c0.9 1 0.9 354.6 0 355.6-1 0.9-369 0.9-370 0-0.9-1-0.9-354.6 0-355.6 1-0.9 369-0.9 370 0zm-183.7 0c-192.7-0.1-185.2-0.1-186 0.9-0.8 1-0.7 352.8 0.1 353.9 0.9 1.2 368.3 1.2 369.2 0 0.9-1.1 0.9-352.9 0-354-0.5-0.8-2.9-0.8-183.3-0.8zm-2.3 97.1c69.2-0.1 74.7 0 78.1 1.8 0.8 0.5 3.1 1.6 5.1 2.6 4.3 2.1 11.9 8.3 13.9 11.3 0.7 1.1 1.5 2.4 1.8 2.8 0.3 0.4 1.3 2 2.3 3.4 1.6 2.4 3.3 5.7 6.7 13.2 0.7 1.4 1.5 3.2 1.9 4 0.4 0.8 1 2.5 1.2 3.6 0.3 1.2 0.8 3.2 1.2 4.4 0.4 1.2 0.9 3.6 1.2 5.4 0.3 1.7 0.8 4 1.2 5.1 1.9 4.7 1.9 41.5 0 46.2-0.4 1.1-0.9 3.4-1.2 5.1-0.3 1.8-0.8 4.2-1.2 5.4-0.4 1.2-0.9 3.2-1.2 4.4-0.2 1.2-0.8 2.8-1.2 3.6-0.4 0.8-1.2 2.6-1.9 4-4.4 9.5-4.9 10.5-9 16.6-0.3 0.4-1.1 1.7-1.8 2.8-2 3-9.6 9.2-13.9 11.3-2 1-4.3 2.1-5.1 2.6-3.4 1.8-9 1.9-77.5 1.9-71.4 0-72.8-0.1-77.6-2.4-6.3-3-8.5-4.4-12.4-7.7-3.9-3.4-5-4.5-7-7.7-0.4-0.7-1.6-2.5-2.7-4.1-1.6-2.4-3.3-5.7-6.8-13.3-0.7-1.4-1.5-3.2-1.9-4-0.4-0.8-1.1-2.8-1.4-4.4-0.3-1.7-0.9-3.7-1.2-4.6-0.3-0.9-0.9-3.3-1.2-5.3-0.3-2.1-0.9-4.3-1.2-4.9-1.6-3.1-1.6-41.7 0-44.8 0.3-0.6 0.9-2.8 1.2-4.9 0.3-2 0.9-4.4 1.2-5.3 0.3-0.9 0.9-2.9 1.2-4.6 0.3-1.6 1-3.6 1.4-4.4 0.4-0.8 1.2-2.6 1.9-4 3.5-7.6 5.2-10.9 6.8-13.3 1.1-1.6 2.3-3.4 2.7-4 2-3.3 3.1-4.4 7-7.8 6.9-5.9 13.1-8.8 20-9.5 3.7-0.4 21.2-0.5 69.4-0.5zm75.3 1.3h-72.2c-74.9-0.1-76.7-0.1-78 1.1-0.4 0.4-1.7 1-2.8 1.3-1.1 0.3-2.2 0.8-2.3 1-0.2 0.3-1.1 0.8-2.1 1.2-1 0.5-2.5 1.4-3.3 2-2.2 1.8-3.8 3.2-5 4.2-0.5 0.6-1.4 1.2-1.8 1.4-0.5 0.2-1.1 1-1.5 1.8-1.3 2.4-3.4 5.4-3.8 5.4-0.2 0-0.6 0.7-1 1.5-0.3 0.8-0.9 1.9-1.3 2.3-0.4 0.4-0.9 1.5-1.2 2.4-0.3 0.9-0.8 2-1.2 2.4-0.4 0.4-1 1.7-1.3 2.7-0.2 1.1-0.8 2.3-1.2 2.7-0.3 0.4-0.9 1.7-1.3 2.8-0.3 1.2-1 2.5-1.4 2.9-0.4 0.4-0.8 0.9-0.8 1.2-0.1 2.7-0.9 6.6-1.5 7.9-0.6 1-1 2.8-1.2 4.5-0.1 1.6-0.7 4.3-1.2 6.1l-1.1 3.2v34.8l1.1 3.2c0.5 1.8 1.1 4.5 1.2 6.1 0.2 1.7 0.6 3.5 1.2 4.5 0.6 1.3 1.4 5.2 1.5 7.9 0 0.3 0.4 0.8 0.8 1.2 0.4 0.4 1.1 1.7 1.4 2.9 0.4 1.1 1 2.4 1.3 2.8 0.4 0.4 1 1.6 1.2 2.7 0.3 1 0.9 2.3 1.3 2.7 0.4 0.4 0.9 1.5 1.2 2.4 0.3 0.9 0.8 2 1.2 2.4 0.4 0.4 1 1.5 1.3 2.3 0.4 0.8 0.8 1.5 1 1.5 0.4 0 2.5 3 3.8 5.4 0.4 0.8 1 1.6 1.5 1.8 0.4 0.2 1.2 0.8 1.8 1.3 1.2 1.1 3.1 2.7 5 4.3 0.8 0.6 2.3 1.5 3.3 2 1 0.4 1.9 0.9 2.1 1.2 0.1 0.2 1.1 0.6 2.2 1 1.1 0.3 2.5 1 3.2 1.5l1.3 0.9h148.6l1.3-0.9c0.7-0.5 2.1-1.2 3.2-1.5 1.1-0.4 2.1-0.8 2.2-1 0.2-0.3 1.1-0.8 2.1-1.2 1-0.5 2.5-1.4 3.3-2 2.2-1.8 3.8-3.2 5-4.2 0.5-0.6 1.4-1.2 1.8-1.4 0.5-0.2 1.1-1 1.5-1.8 1.3-2.4 3.4-5.4 3.8-5.4 0.2 0 0.6-0.7 1-1.5 0.3-0.8 0.9-1.9 1.3-2.3 0.4-0.4 0.9-1.5 1.2-2.4 0.3-0.9 0.8-2 1.2-2.4 0.4-0.4 1-1.7 1.3-2.7 0.2-1.1 0.8-2.3 1.2-2.7 0.3-0.4 1-1.7 1.3-3 0.4-1.2 0.9-2.3 1.2-2.5 0.7-0.2 0.9-0.9 1.4-4.7 0.2-1.7 0.7-3.7 1.2-4.3 0.4-0.8 0.9-2.8 1.2-5.1 0.2-2.1 0.8-4.9 1.3-6.2 1.3-3.7 1.3-36.7 0-40.4-0.5-1.3-1.1-4.1-1.3-6.2-0.3-2.3-0.8-4.3-1.2-5.1-0.5-0.6-1-2.6-1.2-4.3-0.5-3.8-0.7-4.5-1.4-4.7-0.3-0.2-0.8-1.3-1.2-2.5-0.3-1.3-1-2.6-1.3-3-0.4-0.4-1-1.6-1.2-2.7-0.3-1-0.9-2.3-1.3-2.7-0.4-0.4-0.9-1.5-1.2-2.4-0.3-0.9-0.8-2-1.2-2.4-0.4-0.4-1-1.5-1.3-2.3-0.4-0.8-0.8-1.5-1-1.5-0.4 0-2.5-3-3.8-5.4-0.4-0.8-1-1.6-1.5-1.8-0.4-0.2-1.3-0.8-1.8-1.4-1.2-1-2.8-2.4-5-4.2-0.8-0.6-2.3-1.5-3.3-2-1-0.4-1.9-0.9-2.1-1.2-0.1-0.2-1.1-0.6-2.2-1-1.1-0.3-2.5-1-3.2-1.5zm-73.3 11.6h66.4l1.8 0.9c0.9 0.5 3 1.1 4.5 1.3 2.1 0.3 3 0.7 3.8 1.4 0.6 0.6 1.3 1 1.5 1 0.3 0 1.1 0.6 1.9 1.2 0.9 0.7 1.9 1.3 2.4 1.5 0.5 0.1 1.3 0.6 1.9 1.2 1.9 1.9 3 2.9 3.4 3.4 0.3 0.3 0.7 0.7 0.9 0.9 2.4 2.4 5.6 6.8 6.3 8.4 0.3 0.7 0.8 1.5 1.1 1.8 0.4 0.3 0.8 1.2 0.9 2 0.1 0.8 0.8 2.2 1.4 3.2 0.6 1 1.2 2.2 1.2 2.6 0 0.5 0.4 1.6 0.9 2.3 1.3 1.9 1.4 2.3 1.8 6.6 0.2 2 0.7 4.1 1 4.6 1.6 2.5 2.3 16.9 1.7 33.7-0.3 8.5-0.8 11.9-1.7 13.4-0.3 0.5-0.8 2.5-1 4.6-0.4 4.3-0.5 4.7-1.8 6.5-0.5 0.8-0.9 1.8-0.9 2.3 0 0.5-0.6 1.7-1.2 2.7-0.6 0.9-1.3 2.4-1.4 3.2-0.1 0.8-0.5 1.7-0.9 2-0.3 0.2-0.8 1-1.1 1.7-0.7 1.7-3.9 6-6.3 8.4-0.2 0.2-0.6 0.7-0.9 1-0.4 0.5-1.5 1.5-3.4 3.4-0.6 0.5-1.4 1.1-1.9 1.2-0.5 0.1-1.5 0.8-2.4 1.4-0.8 0.7-1.6 1.2-1.9 1.2-0.2 0-0.9 0.5-1.5 1-0.8 0.8-1.7 1.2-3.8 1.5-1.5 0.2-3.6 0.8-4.5 1.2l-1.8 0.9h-134.4l-1.8-0.8c-1-0.5-3.3-1.1-5-1.3-2.6-0.3-3.3-0.6-4-1.4-0.5-0.6-1.4-1.1-2.1-1.3-0.7-0.1-1.6-0.6-2.1-1.2-0.5-0.5-1.4-1.1-2.1-1.4-0.6-0.2-1.2-0.8-1.4-1.2-0.1-0.4-0.5-0.8-1-1-0.4-0.1-1.1-0.7-1.4-1.3-0.4-0.6-1.1-1.5-1.5-1.9-0.5-0.5-1.6-1.8-2.4-2.9-0.9-1.2-2.1-2.7-2.7-3.4-0.6-0.6-1.1-1.4-1.1-1.7 0-0.3-0.5-1-1-1.7-0.6-0.6-1.2-1.9-1.4-2.7-0.2-0.9-0.8-2.3-1.4-3.1-0.6-0.9-1-2-1-2.5 0-0.5-0.5-1.5-1-2.3-1.2-1.8-1.3-2.2-1.8-6.3-0.2-1.8-0.8-4.3-1.3-5.4-0.8-1.7-0.9-3.1-1.3-11.2-0.7-16.1-0.1-31.5 1.3-34.8 0.5-1.1 1.1-3.5 1.3-5.4 0.5-4.1 0.6-4.5 1.8-6.3 0.5-0.7 1-1.8 1-2.3 0-0.5 0.4-1.6 1-2.4 0.6-0.9 1.2-2.3 1.4-3.1 0.2-0.9 0.8-2.1 1.4-2.8 0.5-0.6 1-1.4 1-1.6 0-0.3 0.5-1.1 1.1-1.8 0.6-0.7 1.8-2.2 2.7-3.3 0.8-1.1 1.9-2.5 2.4-2.9 0.4-0.5 1.1-1.4 1.5-1.9 0.3-0.6 1-1.2 1.4-1.4 0.5-0.1 0.9-0.5 1-0.9 0.2-0.5 0.8-1 1.4-1.3 0.7-0.2 1.6-0.9 2.1-1.4 0.5-0.5 1.4-1 2.1-1.2 0.7-0.1 1.6-0.7 2.1-1.2 0.7-0.9 1.4-1.1 4-1.4 1.7-0.2 3.6-0.7 4.2-1 0.6-0.3 1.8-0.7 2.6-0.9 0.9-0.2 29-0.4 68-0.3zm-66.8 1.2c-0.9 0.4-3.4 0.9-5.6 1.3-2.7 0.4-4.5 0.9-5.4 1.5-2 1.2-3.9 2.4-5.8 3.5-0.9 0.4-1.9 1.2-2.3 1.8-0.4 0.5-1.1 1-1.5 1.1-0.4 0.1-0.9 0.7-1.2 1.3-0.5 1-1.2 1.9-5.1 6.7-1.8 2.2-4.9 7.5-4.9 8.5 0 0.2-0.4 1-0.8 1.7-2.1 4-3.7 8.5-4.3 12.2-0.3 2.2-0.9 5.2-1.4 6.6-1.8 6.1-1.8 34.7 0 40.8 0.5 1.5 1.1 4.4 1.4 6.6 0.6 3.8 2.2 8.3 4.3 12.2 0.4 0.8 0.8 1.6 0.8 1.8 0 0.9 3.1 6.3 4.9 8.5 3.9 4.7 4.6 5.7 5.1 6.7 0.3 0.6 0.8 1.1 1.2 1.2 0.4 0.2 1.1 0.7 1.5 1.2 0.4 0.5 1.4 1.3 2.3 1.8 1.9 1.1 3.9 2.3 5.8 3.5 0.9 0.6 2.5 1 4.8 1.4 1.8 0.2 4.4 0.8 5.7 1.2 3.7 1.2 129.3 1.1 133 0 1.3-0.5 3.2-0.9 4.3-1.1 3.2-0.4 5.1-1 6.2-1.9 1-0.8 2.1-1.5 5.2-3.3 0.8-0.5 1.9-1.2 2.4-1.7 0.5-0.5 1.2-1 1.6-1.1 0.4-0.1 0.8-0.4 0.8-0.6 0-0.1 0.5-0.8 1.1-1.5 0.6-0.7 1.4-1.6 1.7-2 0.3-0.4 1.4-1.9 2.4-3.2 1.8-2.2 5.2-8.3 5.2-9.1 0-0.2 0.3-1 0.7-1.8 2.2-4.1 3.7-8.4 4.3-12.4 0.3-2.3 0.9-5.3 1.4-6.6 1.8-5.6 1.8-34.8 0-40.4-0.5-1.3-1.1-4.3-1.4-6.6-0.6-4-2.1-8.2-4.3-12.4-0.4-0.7-0.7-1.5-0.7-1.7 0-0.9-3.4-6.9-5.2-9.1-1-1.4-2.1-2.8-2.4-3.2-0.3-0.5-1.1-1.4-1.7-2-0.6-0.7-1.1-1.4-1.1-1.6 0-0.2-0.4-0.4-0.8-0.5-0.4-0.2-1.1-0.7-1.6-1.1-0.5-0.5-1.6-1.3-2.4-1.7-3.1-1.8-4.2-2.5-5.2-3.3-1.1-0.9-3-1.5-6.2-2-1.1-0.1-3-0.6-4.3-1-3.3-1-129.7-1.2-132.5-0.2z"/>
		<path id="path4" fill-rule="evenodd" class="s4" d="m194.1 14.9l184.1 0.1v354h-368.4l-0.1-176.6c-0.1-97.1 0-176.8 0.1-177.1 0.1-0.4 37.2-0.5 184.3-0.4zm183.9 0.7h-368v352.8h368zm-116.9 93.6c1.6 0.2 3.5 0.6 4.2 1 0.7 0.3 2.7 0.7 4.4 0.9 2.5 0.4 3.4 0.7 4.2 1.4 0.6 0.6 1.8 1.2 2.7 1.3 0.8 0.2 1.9 0.7 2.4 1.2 0.5 0.6 1.4 1.2 2 1.4 0.6 0.2 1.2 0.8 1.3 1.2 0.1 0.4 0.4 0.8 0.7 0.8 1.5 0 8.9 7.2 9.2 9.1 0.2 0.8 0.6 1.4 1.1 1.5 0.4 0.1 1 0.8 1.4 1.5 0.3 0.7 1 1.8 1.6 2.4 0.5 0.7 0.9 1.6 0.9 2.1 0 0.5 0.4 1.2 1 1.7 0.8 0.5 1.2 1.3 1.4 2.7 0.3 1.2 0.7 2.2 1.2 2.6 0.5 0.3 1.1 1.6 1.4 2.8 0.3 1.1 0.9 2.5 1.4 3 0.4 0.5 1 1.9 1.2 3.2 0.3 1.3 0.8 2.8 1.3 3.4 0.6 0.8 0.9 2.2 1.2 5.4 0.3 3.4 0.5 4.6 1.1 5.2 1.1 1.2 1.6 5.3 1.6 13.6 0 4.9 0.2 7.4 0.6 8.8 0.8 2.5 0.8 6.7 0 9.2-0.4 1.4-0.6 3.9-0.6 8.8 0 8.3-0.5 12.4-1.6 13.6-0.6 0.6-0.8 1.8-1.1 5.2-0.3 3.2-0.6 4.6-1.2 5.4-0.5 0.6-1 2.1-1.3 3.4-0.2 1.3-0.8 2.7-1.2 3.2-0.5 0.5-1.1 1.9-1.4 3-0.3 1.2-0.9 2.5-1.4 2.8-0.5 0.4-0.9 1.4-1.2 2.6-0.2 1.4-0.6 2.2-1.4 2.7-0.6 0.5-1 1.2-1 1.7 0 0.5-0.4 1.4-0.9 2.1-0.6 0.6-1.3 1.7-1.6 2.4-0.4 0.7-1 1.4-1.4 1.5-0.5 0.1-0.9 0.7-1.1 1.5-0.3 1.9-7.7 9.1-9.2 9.1-0.3 0-0.6 0.4-0.7 0.8-0.1 0.4-0.7 1-1.3 1.2-0.6 0.2-1.5 0.8-2 1.4-0.5 0.5-1.6 1-2.4 1.2-0.9 0.1-2.1 0.7-2.7 1.3-0.8 0.7-1.7 1-4.2 1.4-1.7 0.2-3.7 0.6-4.4 0.9-2.7 1.3-7.9 1.4-71.4 1.4-64.4 0-68.9-0.1-71.5-1.4-0.5-0.3-2.4-0.7-4.1-0.9-2.5-0.3-3.4-0.7-4.2-1.4-0.6-0.6-1.8-1.2-2.7-1.3-0.8-0.2-1.9-0.7-2.4-1.2-0.5-0.6-1.4-1.2-2-1.4-0.6-0.2-1.2-0.8-1.3-1.2-0.1-0.4-0.4-0.8-0.7-0.8-1.5 0-8.9-7.2-9.2-9.1-0.2-0.8-0.6-1.4-1.1-1.5-0.4-0.1-1-0.8-1.4-1.5-0.3-0.7-1-1.8-1.6-2.4-0.5-0.7-0.9-1.6-0.9-2.1 0-0.5-0.4-1.2-1-1.7-0.8-0.5-1.2-1.3-1.4-2.7-0.3-1.2-0.7-2.2-1.2-2.6-0.5-0.3-1.1-1.6-1.4-2.8-0.3-1.1-0.9-2.5-1.4-3-0.4-0.5-1-1.9-1.2-3.2-0.3-1.3-0.8-2.8-1.2-3.4-0.6-0.7-0.9-2.2-1.3-5.6-0.2-2.9-0.6-4.7-0.9-5-1.2-0.9-1.5-3-1.8-12.4-0.2-5.7-0.5-10.1-0.7-10.7-0.6-1.5-0.6-6.3 0-7.8 0.2-0.6 0.5-5 0.7-10.7 0.3-9.4 0.6-11.5 1.8-12.4 0.3-0.3 0.7-2.1 0.9-5 0.4-3.4 0.7-4.9 1.3-5.6 0.4-0.6 0.9-2.1 1.2-3.4 0.2-1.3 0.8-2.7 1.2-3.2 0.5-0.5 1.1-1.9 1.4-3 0.3-1.2 0.9-2.5 1.4-2.8 0.5-0.4 0.9-1.4 1.2-2.6 0.2-1.4 0.6-2.2 1.4-2.7 0.6-0.5 1-1.2 1-1.7 0-0.5 0.4-1.4 0.9-2.1 0.6-0.6 1.3-1.7 1.6-2.4 0.4-0.7 1-1.4 1.4-1.5 0.5-0.1 0.9-0.7 1.1-1.5 0.3-1.9 7.7-9.1 9.2-9.1 0.3 0 0.6-0.4 0.7-0.8 0.1-0.4 0.7-1 1.3-1.2 0.6-0.2 1.5-0.8 2-1.4 0.5-0.5 1.6-1 2.4-1.2 0.9-0.1 2.1-0.7 2.6-1.3 0.9-0.7 1.8-1 4-1.3 1.7-0.3 3.6-0.7 4.4-1 0.8-0.3 2.5-0.8 3.8-1 3.4-0.4 131.2-0.5 134.9 0zm-132 1.2c-0.8 0.2-3.7 0.6-6.5 1-4.2 0.4-5.4 0.7-7.1 1.7-1.2 0.7-2.6 1.3-3.1 1.5-3.1 0.9-12.9 9-15 12.3-0.7 1.1-1.8 2.7-2.4 3.5-2.5 3.4-3.9 5.9-7.6 13.8-0.8 1.8-2 4.3-2.6 5.6-0.7 1.3-1.2 2.6-1.2 3 0 0.4-0.4 2.2-1 3.9-0.5 1.7-1.2 4.5-1.4 6.3-0.3 1.7-0.8 4.1-1.3 5.2-1.9 4.7-1.9 42.9 0 47.6 0.5 1.1 1 3.5 1.3 5.2 0.2 1.8 0.9 4.6 1.4 6.3 0.6 1.7 1 3.5 1 3.9 0 0.4 0.5 1.7 1.2 3 0.6 1.3 1.8 3.8 2.6 5.6 3.7 7.9 5.1 10.4 7.6 13.8 0.6 0.8 1.7 2.4 2.4 3.5 2.1 3.3 11.9 11.4 15 12.3 0.5 0.2 1.9 0.8 3.1 1.5 1.7 1 2.9 1.3 7.2 1.7 2.8 0.4 5.8 0.8 6.7 1 2.3 0.5 126.3 0.5 129 0 1.2-0.2 4.4-0.7 7.1-1 4.1-0.5 5.3-0.8 7-1.7 1.2-0.7 2.6-1.3 3.1-1.5 3.1-0.9 12.9-9 15-12.3 0.7-1.1 1.8-2.7 2.4-3.5 2.6-3.4 4-6.1 7.6-13.8 0.8-1.8 1.9-4 2.4-5 0.5-1 1.2-2.7 1.4-3.8 0.3-1.1 0.8-3 1.2-4.2 0.4-1.2 1-3.6 1.2-5.3 0.2-1.6 0.8-4 1.2-5.2 2-4.9 2-43.7 0-48.6-0.4-1.2-1-3.6-1.2-5.2-0.2-1.7-0.8-4.1-1.2-5.3-0.4-1.2-0.9-3.1-1.2-4.2-0.2-1.1-0.9-2.8-1.4-3.8-0.5-1-1.6-3.2-2.4-5-3.6-7.7-5-10.4-7.6-13.8-0.6-0.8-1.7-2.4-2.4-3.5-2.1-3.3-11.9-11.4-15-12.3-0.5-0.2-1.9-0.8-3.1-1.5-1.7-0.9-2.9-1.2-7-1.7-2.7-0.3-5.9-0.8-7.1-1-2.6-0.5-127.1-0.5-129.3 0zm130.8 15.7c0.9 0.3 2.7 0.8 4 0.9 4 0.5 9 2.5 10.1 4.1 0.1 0.2 0.8 0.7 1.6 1.1 0.8 0.4 1.9 1.1 2.5 1.7 0.7 0.5 1.4 0.9 1.7 0.9 0.4 0 1 0.6 1.5 1.4 0.4 0.8 0.9 1.4 1.1 1.4 0.2 0 0.7 0.6 1.1 1.3 0.5 0.7 1.7 2.4 2.7 3.7 4.5 6 9.3 17.8 10.2 25 0.2 1.8 0.7 4 1 4.7 1.8 4.4 1.8 35 0 39.4-0.3 0.7-0.8 2.9-1 4.7-0.9 7.2-5.7 19-10.2 25-1 1.3-2.2 3-2.7 3.7-0.4 0.7-0.9 1.3-1.1 1.3-0.2 0-0.7 0.6-1.1 1.4-0.5 0.8-1.1 1.4-1.4 1.4-0.3 0-1.2 0.5-2 1.1-0.8 0.7-2 1.4-2.7 1.7-0.7 0.3-1.2 0.6-1.2 0.8 0 0.3-3.9 2.7-5.4 3.3-0.4 0.2-2.1 0.5-3.8 0.7-1.6 0.3-3.9 0.7-5 1.1-3.1 1.1-128.6 1.1-131.4 0-1-0.4-3.3-0.9-5.2-1.1-1.9-0.3-3.9-0.7-4.6-1-2.2-1.1-4.4-2.4-5.6-3.2-0.7-0.5-1.6-1-2.1-1.2-0.5-0.1-1.1-0.6-1.3-1-0.3-0.5-0.9-1-1.4-1.2-0.6-0.2-1.2-0.8-1.4-1.4-0.4-1-2.3-3.6-5.2-7-1-1.2-2.4-3.4-3.1-4.8-3-6.3-3.7-8-4.7-10.6-1.5-4.1-1.7-4.8-2.2-8.4-0.2-1.8-0.7-4.1-1-5.2-1.9-5.5-1.9-34.1 0-39.6 0.3-1.1 0.8-3.4 1-5.2 0.5-3.6 0.7-4.4 2.2-8.4 1-2.6 1.7-4.3 4.7-10.6 0.7-1.4 2.1-3.6 3.1-4.8 2.9-3.4 4.8-6 5.2-7 0.2-0.6 0.8-1.2 1.4-1.4 0.5-0.2 1.1-0.7 1.4-1.2 0.2-0.4 0.8-0.9 1.3-1 0.5-0.2 1.4-0.7 2.1-1.2 1.2-0.8 3.4-2.1 5.6-3.2 0.7-0.3 2.9-0.8 4.8-1 2-0.3 4-0.7 4.6-0.9 0.6-0.2 1.7-0.6 2.6-0.7 3.7-0.7 127.5-0.2 129.3 0.5zm-66.3 1.2c-66.1 0-71.9 0.2-73.5 1.6-0.4 0.4-1.7 1-2.8 1.3-1.2 0.4-2.3 1-2.5 1.4-0.2 0.4-0.9 0.9-1.5 1.1-0.6 0.1-1.8 0.8-2.6 1.6-0.8 0.7-1.8 1.3-2.2 1.3-0.5 0-0.9 0.5-1.2 1.8-0.3 1-0.8 1.9-1.3 2.2-0.4 0.2-1.1 0.9-1.4 1.6-0.3 0.6-0.9 1.3-1.4 1.4-0.4 0.1-0.8 0.7-1 1.2-0.1 0.6-0.7 1.4-1.2 1.9-0.6 0.5-1.1 1.5-1.2 2.4-0.2 0.9-0.7 2-1.2 2.5-0.5 0.4-1.1 1.5-1.2 2.4-0.4 1.9-1.2 3.7-1.8 3.9-0.3 0.1-0.7 1.4-1 3-0.3 1.6-0.9 3.4-1.3 4-0.6 0.8-0.9 2-1.1 5.1-0.1 2.3-0.6 5.4-1.1 7.2-1.4 4.9-1.4 26.7 0 31.6 0.5 1.8 1 4.9 1.1 7.2 0.2 3.1 0.5 4.3 1.1 5.1 0.4 0.6 1 2.4 1.3 4 0.3 1.6 0.7 2.9 1 3 0.6 0.2 1.4 2 1.8 3.9 0.1 0.9 0.7 2 1.2 2.4 0.5 0.5 1 1.6 1.2 2.5 0.1 0.9 0.6 1.9 1.2 2.4 0.5 0.5 1.1 1.3 1.2 1.9 0.2 0.5 0.6 1.1 1 1.2 0.5 0.1 1.1 0.8 1.4 1.4 0.3 0.7 1 1.4 1.4 1.6 0.5 0.3 1 1.2 1.3 2.2 0.3 1.3 0.7 1.8 1.2 1.8 0.4 0 1.4 0.6 2.2 1.3 0.8 0.8 2 1.5 2.6 1.6 0.6 0.2 1.3 0.7 1.5 1.1 0.2 0.4 1.3 1 2.5 1.4 1.1 0.3 2.4 0.9 2.9 1.3 1.7 1.6 8.5 1.7 74.6 1.7 65.6-0.1 72.2-0.2 73.3-1.7 0.3-0.4 1.3-1 2.3-1.3 0.9-0.3 2.1-1.1 2.6-1.6 0.5-0.6 1.3-1 1.8-1 0.4 0 1.1-0.4 1.4-1 0.4-0.5 1.4-1.1 2.4-1.4 1.3-0.4 1.8-0.7 2-1.5 0.3-1 1.5-2.7 4.1-5.5 0.7-0.8 1.3-1.7 1.3-2 0-0.3 0.4-0.8 0.8-1.1 0.5-0.4 1.1-1.5 1.4-2.7 0.3-1.2 0.9-2.5 1.4-2.8 0.4-0.3 0.9-1.3 1-2.2 0.4-1.9 1.2-3.7 1.8-3.9 0.3-0.1 0.7-1.5 1-3.2 0.3-1.7 0.9-3.6 1.3-4.2 0.6-0.8 0.9-2 1.1-5.2 0.1-2.4 0.6-5.3 1.2-7.5 1.5-5.3 1.5-24.8 0-30-0.6-2.2-1.1-5.1-1.2-7.5-0.2-3.2-0.5-4.4-1.1-5.2-0.4-0.6-1-2.5-1.3-4.2-0.3-1.7-0.7-3.1-1-3.2-0.6-0.2-1.4-2-1.8-3.9-0.1-0.9-0.6-1.9-1-2.2-0.5-0.3-1.1-1.6-1.4-2.8-0.3-1.2-0.9-2.3-1.4-2.7-0.4-0.3-0.8-0.8-0.8-1.1 0-0.3-0.6-1.2-1.3-2-2.6-2.8-3.8-4.5-4.1-5.5-0.2-0.8-0.7-1.1-2-1.5-1-0.3-2-0.9-2.4-1.4-0.3-0.6-1-1-1.4-1-0.5 0-1.3-0.4-1.8-1-0.5-0.5-1.7-1.3-2.6-1.6-1-0.3-2-0.9-2.3-1.3-0.4-0.5-1.7-0.8-5.6-1.2-3.8-0.3-21.6-0.4-68.9-0.4z"/>
	</g>
</svg>