<svg version="1.2" xmlns="http://www.w3.org/2000/svg" viewBox="0 0 584 388" width="60" height="40">
	<title>300310000012050000000-svg</title>
	<style>
		.s0 { fill: #050707 } 
		.s1 { fill: #83e3fc } 
		.s2 { fill: #44747c } 
		.s3 { fill: #345464 } 
		.s4 { fill: #64acbe } 
	</style>
	<g id="svgg">
		<path id="path0" fill-rule="evenodd" class="s0" d="m585.3-1.9c0.6 0.5 0.6 391.3 0 391.8-0.7 0.4-585.9 0.4-586.6 0-0.5-0.4-1.1-387.5-0.5-390.2 0.3-1.3 0.6-1.7 1.7-1.8 2.5-0.3 584.8-0.1 585.4 0.2zm-570.3 18.1c-1.4 1-1.4 354.6 0 355.6 1.5 0.9 552.5 0.9 554 0 1.4-1 1.4-354.6 0-355.6-1.5-0.9-552.5-0.9-554 0zm280.1 98.4h108.2l1.9 0.9c1.1 0.5 3.2 1.2 4.8 1.5 1.6 0.4 3.1 0.8 3.3 1 0.3 0.3 1.6 0.8 3.1 1.2 1.5 0.5 3.8 1.4 5 2 3.3 1.8 5.7 3.2 7.5 4.2 0.7 0.6 2.1 1.2 2.7 1.4 0.7 0.2 1.6 1 2.2 1.8 2 2.4 5.1 5.4 5.7 5.4 0.3 0 0.9 0.7 1.5 1.5 0.4 0.8 1.3 1.9 1.9 2.3 0.6 0.4 1.4 1.5 1.8 2.4 0.5 0.9 1.2 2 1.8 2.4 0.6 0.4 1.5 1.7 2 2.7 0.3 1.1 1.2 2.3 1.8 2.7 0.4 0.4 1.3 1.7 1.9 3 0.6 1.2 1.4 2.3 1.8 2.5 1.1 0.2 1.4 0.9 2.1 4.7 0.3 1.7 1.1 3.7 1.8 4.3 0.6 0.8 1.4 2.8 1.8 5.1 0.3 2.1 1.2 4.9 2 6.2 1.9 3.7 1.9 36.7 0 40.4-0.8 1.3-1.7 4.1-2 6.2-0.4 2.3-1.2 4.3-1.8 5.1-0.7 0.6-1.5 2.6-1.8 4.3-0.7 3.8-1 4.5-2.1 4.7-0.4 0.2-1.2 1.3-1.8 2.5-0.6 1.3-1.5 2.6-1.9 3-0.6 0.4-1.5 1.6-1.8 2.7-0.5 1-1.4 2.3-2 2.7-0.6 0.4-1.3 1.5-1.8 2.4-0.4 0.9-1.2 2-1.8 2.4-0.6 0.4-1.5 1.5-1.9 2.3-0.6 0.8-1.2 1.5-1.5 1.5-0.6 0-3.7 3-5.7 5.4-0.6 0.8-1.5 1.6-2.2 1.8-0.6 0.2-2 0.8-2.7 1.4-1.8 1-4.2 2.4-7.5 4.2-1.2 0.6-3.5 1.5-5 2-1.5 0.4-2.8 0.9-3.1 1.2-0.2 0.2-1.7 0.6-3.3 1-1.6 0.3-3.7 1-4.8 1.5l-1.9 0.9h-222.6l-1.9-0.9c-1.1-0.5-3.2-1.2-4.8-1.5-1.6-0.4-3.1-0.8-3.3-1-0.3-0.3-1.6-0.8-3.1-1.2-1.5-0.5-3.8-1.4-5-2-2.8-1.6-5.7-3.2-7.5-4.3-0.9-0.5-2.1-1.1-2.7-1.3-0.7-0.2-1.6-1-2.2-1.8-2-2.4-5.1-5.4-5.7-5.4-0.3 0-0.9-0.7-1.5-1.5-0.4-0.8-1.3-1.9-1.9-2.3-0.6-0.4-1.4-1.5-1.8-2.4-0.5-0.9-1.2-2-1.8-2.4-0.6-0.4-1.5-1.7-2-2.7-0.3-1.1-1.2-2.3-1.8-2.7-0.4-0.4-1.3-1.7-1.9-2.8-0.5-1.2-1.5-2.5-2.1-2.9-0.6-0.4-1.2-0.9-1.2-1.2-0.2-2.7-1.4-6.6-2.4-7.9-0.8-1-1.4-2.8-1.7-4.5-0.1-1.6-1-4.3-1.8-6.1l-1.6-3.2v-34.8l1.6-3.2c0.8-1.8 1.7-4.5 1.8-6.1 0.3-1.7 0.9-3.5 1.7-4.5 1-1.3 2.2-5.2 2.4-7.9 0-0.3 0.6-0.8 1.2-1.2 0.6-0.4 1.6-1.7 2.1-2.9 0.6-1.1 1.5-2.4 1.9-2.8 0.6-0.4 1.5-1.6 1.8-2.7 0.5-1 1.4-2.3 2-2.7 0.6-0.4 1.3-1.5 1.8-2.4 0.4-0.9 1.2-2 1.8-2.4 0.6-0.4 1.5-1.5 1.9-2.3 0.6-0.8 1.2-1.5 1.5-1.5 0.6 0 3.7-3 5.7-5.4 0.6-0.8 1.5-1.6 2.2-1.8 0.6-0.2 2-0.8 2.7-1.4 1.8-1 4.2-2.4 7.5-4.2 1.2-0.6 3.5-1.5 5-2 1.5-0.4 2.8-0.9 3.1-1.2 0.2-0.2 1.8-0.7 3.5-1 1.6-0.3 3.5-0.9 4.1-1.3 0.8-0.4 2.6-0.8 4.8-0.9 2.1-0.2 52.4-0.3 112-0.2zm97.8 11.6l-99.4-0.1c-97.8 0-102.1 0-105.6 1.3-0.9 0.3-3.7 0.7-6.4 1-3.9 0.3-5 0.5-6 1.3-0.6 0.6-2.1 1.2-3 1.3-1 0.1-2.5 0.7-3.3 1.2-0.7 0.5-2.1 1.2-3 1.4-1 0.3-1.9 0.8-2.1 1.2-0.1 0.4-0.9 0.9-1.5 1-0.7 0.1-1.6 0.7-2.2 1.3-0.6 0.6-1.5 1.5-2.3 1.9-0.6 0.5-2.2 1.8-3.6 3-1.3 1.1-3.1 2.6-4 3.3-0.9 0.7-1.7 1.4-1.7 1.7 0 0.3-0.6 1.1-1.5 1.7-0.7 0.7-1.6 1.9-1.9 2.7-0.3 0.9-1.3 2.3-2.1 3.2-0.9 0.8-1.6 1.9-1.6 2.4 0 0.5-0.6 1.5-1.5 2.3-1.8 1.8-2 2.2-2.7 6.3-0.3 1.9-1.1 4.3-1.8 5.4-2.3 3.2-3 18.6-2 34.8 0.5 8.1 0.8 9.5 2 11.2 0.7 1.1 1.5 3.5 1.8 5.4 0.7 4.1 0.9 4.5 2.7 6.3 0.9 0.8 1.5 1.8 1.5 2.3 0 0.5 0.7 1.6 1.6 2.4 0.8 0.9 1.8 2.3 2.1 3.2 0.3 0.8 1.2 2 1.9 2.7 0.9 0.6 1.5 1.4 1.5 1.7 0 0.3 0.8 1 1.7 1.7 0.9 0.7 2.7 2.2 4 3.3 1.4 1.2 3 2.5 3.6 3 0.8 0.4 1.7 1.3 2.3 1.9 0.6 0.6 1.5 1.2 2.2 1.3 0.6 0.1 1.4 0.6 1.5 1 0.2 0.4 1.1 0.9 2.1 1.2 0.9 0.2 2.3 0.9 3 1.4 0.8 0.5 2.3 1.1 3.3 1.2 0.9 0.1 2.4 0.7 3 1.3 1 0.8 2.1 1 6 1.4 2.7 0.2 6 0.8 7.5 1.2l2.7 0.9h201.2l2.7-0.9c1.5-0.5 4.5-1 6.9-1.3 3-0.3 4.5-0.6 5.7-1.4 0.9-0.5 1.8-1 2.2-1 0.3 0 1.7-0.5 2.9-1.2 1.2-0.6 2.8-1.3 3.4-1.4 0.8-0.2 2-0.7 2.9-1.2 3-1.9 4.5-2.9 5.2-3.5 0.5-0.3 1.1-0.7 1.4-0.9 3.4-2.4 8.2-6.8 9.3-8.4 0.4-0.7 1.2-1.5 1.8-1.8 0.4-0.3 1-1.1 1.1-1.9 0.3-0.8 1.2-2.3 2.1-3.3 1.1-0.9 1.8-2.1 1.8-2.6 0-0.5 0.6-1.5 1.5-2.3 1.8-1.9 2-2.2 2.7-6.6 0.3-2 0.9-4.1 1.4-4.6 2.5-2.5 3.6-16.9 2.5-33.7-0.4-8.5-1-11.8-2.5-13.3-0.5-0.5-1.1-2.6-1.4-4.6-0.7-4.4-0.9-4.7-2.7-6.6-0.9-0.8-1.5-1.8-1.5-2.3 0-0.5-0.7-1.7-1.8-2.6-0.9-1-1.8-2.5-2.1-3.3-0.1-0.8-0.7-1.6-1.1-1.9-0.6-0.3-1.4-1.1-1.8-1.8-1.1-1.6-5.9-6-9.3-8.4-0.3-0.2-0.9-0.6-1.4-0.9-0.7-0.6-2.2-1.6-5.2-3.5-0.9-0.5-2.1-1-2.9-1.2-0.6-0.1-2.2-0.8-3.4-1.4-1.2-0.7-2.6-1.2-2.9-1.2-0.4 0-1.3-0.5-2.2-1-1.2-0.8-2.7-1.1-5.7-1.4-2.4-0.3-5.4-0.8-6.9-1.3z"/>
		<path id="path1" fill-rule="evenodd" class="s1" d="m16.5 17.6h551v352.8h-551zm174 93.6c-2 0.2-4.5 0.7-5.7 1-1.2 0.3-4.1 0.7-6.6 1-3.3 0.3-4.6 0.6-6 1.3-0.7 0.6-2.5 1.2-3.9 1.3-1.2 0.2-2.8 0.7-3.6 1.2-0.7 0.6-2.1 1.2-3 1.4-0.9 0.2-1.8 0.8-1.9 1.2-0.2 0.4-0.6 0.8-1.1 0.8-2.2 0-13.3 7.2-13.7 9.1-0.3 0.8-0.9 1.4-1.7 1.5-0.6 0.1-1.5 0.8-2.1 1.5-0.4 0.7-1.5 1.8-2.4 2.4-0.7 0.7-1.3 1.6-1.3 2.1 0 0.5-0.6 1.2-1.5 1.7-1.2 0.5-1.8 1.3-2.1 2.7-0.5 1.2-1.1 2.2-1.8 2.6-0.8 0.3-1.7 1.6-2.1 2.8-0.5 1.1-1.4 2.5-2.1 3-0.6 0.5-1.5 1.9-1.8 3.2-0.5 1.3-1.2 2.8-1.8 3.4-0.9 0.7-1.4 2.2-2 5.6-0.3 2.9-0.9 4.7-1.3 5-1.8 0.9-2.3 3-2.7 12.4-0.3 5.7-0.8 10.1-1.1 10.7-0.8 1.5-0.8 6.3 0 7.8 0.3 0.6 0.8 5 1.1 10.7 0.4 9.4 0.9 11.5 2.7 12.4 0.4 0.3 1 2.1 1.3 5 0.6 3.4 1.1 4.9 2 5.6 0.6 0.6 1.3 2.1 1.8 3.4 0.3 1.3 1.2 2.7 1.8 3.2 0.7 0.5 1.6 1.9 2.1 3 0.4 1.2 1.3 2.5 2.1 2.8 0.7 0.4 1.3 1.4 1.8 2.6 0.3 1.4 0.9 2.2 2.1 2.7 0.9 0.5 1.5 1.2 1.5 1.7 0 0.5 0.6 1.4 1.3 2.1 0.9 0.6 2 1.7 2.4 2.4 0.6 0.7 1.5 1.4 2.1 1.5 0.8 0.1 1.4 0.7 1.7 1.5 0.4 1.9 11.5 9.1 13.7 9.1 0.5 0 0.9 0.4 1.1 0.8 0.1 0.4 1 1 1.9 1.2 0.9 0.2 2.3 0.8 3 1.4 0.8 0.5 2.4 1 3.6 1.2 1.4 0.1 3.2 0.7 4.1 1.3 1.2 0.7 2.5 1.1 6.2 1.4 2.6 0.2 5.4 0.6 6.2 0.9 3.9 1.3 10.6 1.4 107.1 1.4 95 0 102.8-0.1 106.9-1.4 1-0.3 4-0.7 6.6-0.9 3.7-0.4 5-0.7 6.2-1.4 0.9-0.6 2.7-1.2 4.1-1.3 1.2-0.2 2.8-0.7 3.6-1.2 0.7-0.6 2.1-1.2 3-1.4 0.9-0.2 1.8-0.8 1.9-1.2 0.2-0.4 0.6-0.8 1.1-0.8 2.2 0 13.3-7.2 13.7-9.1 0.3-0.8 0.9-1.4 1.7-1.5 0.6-0.1 1.5-0.8 2.1-1.5 0.4-0.7 1.5-1.8 2.4-2.4 0.7-0.7 1.3-1.6 1.3-2.1 0-0.5 0.6-1.2 1.5-1.7 1.2-0.5 1.8-1.3 2.1-2.7 0.5-1.2 1.1-2.2 1.8-2.6 0.8-0.3 1.7-1.6 2.1-2.8 0.5-1.1 1.4-2.5 2.1-3 0.6-0.5 1.5-1.9 1.8-3.2 0.5-1.3 1.2-2.8 2-3.4 0.9-0.8 1.3-2.2 1.8-5.4 0.4-3.4 0.7-4.6 1.6-5.2 1.7-1.2 2.4-5.3 2.4-13.6 0-4.9 0.3-7.4 0.9-8.8 1.2-2.5 1.2-6.7 0-9.2-0.6-1.4-0.9-3.9-0.9-8.8 0-8.3-0.7-12.4-2.4-13.6-0.9-0.6-1.2-1.8-1.6-5.2-0.5-3.2-0.9-4.6-1.8-5.4-0.8-0.6-1.5-2.1-2-3.4-0.3-1.3-1.2-2.7-1.8-3.2-0.7-0.5-1.6-1.9-2.1-3-0.4-1.2-1.3-2.5-2.1-2.8-0.7-0.4-1.3-1.4-1.8-2.6-0.3-1.4-0.9-2.2-2.1-2.7-0.9-0.5-1.5-1.2-1.5-1.7 0-0.5-0.6-1.4-1.3-2.1-0.9-0.6-2-1.7-2.4-2.4-0.6-0.7-1.5-1.4-2.1-1.5-0.8-0.1-1.4-0.7-1.7-1.5-0.4-1.9-11.5-9.1-13.7-9.1-0.5 0-0.9-0.4-1.1-0.8-0.1-0.4-1-1-1.9-1.2-0.9-0.2-2.3-0.8-3-1.4-0.8-0.5-2.4-1-3.6-1.2-1.4-0.1-3.2-0.7-4.1-1.3-1.2-0.7-2.5-1-6.2-1.4-2.6-0.2-5.6-0.6-6.6-0.9-1.1-0.4-3.9-0.8-6.3-1-5.6-0.5-196.9-0.4-202 0zm100.9 18.1c100.2 0 109.9 0.1 111.6 1.6 0.4 0.4 1.9 1 3.4 1.3 1.4 0.3 3.1 1.1 3.9 1.6 0.7 0.6 1.9 1 2.7 1 0.6 0 1.6 0.4 2.1 1 0.6 0.5 2.1 1.1 3.6 1.4 1.9 0.4 2.7 0.7 3 1.5 0.4 1 2.2 2.7 6.1 5.5 1.1 0.8 2 1.7 2 2 0 0.3 0.6 0.8 1.2 1.1 0.7 0.4 1.6 1.5 2.1 2.7 0.4 1.2 1.3 2.5 2.1 2.8 0.6 0.3 1.3 1.3 1.5 2.2 0.6 1.9 1.7 3.7 2.6 3.9 0.5 0.1 1.1 1.5 1.5 3.2 0.5 1.7 1.4 3.6 2 4.2 0.9 0.8 1.3 2 1.6 5.2 0.2 2.4 0.9 5.3 1.8 7.5 2.3 5.2 2.3 24.7 0 30-0.9 2.2-1.6 5.1-1.8 7.5-0.3 3.2-0.7 4.4-1.6 5.2-0.6 0.6-1.5 2.5-2 4.2-0.4 1.7-1 3.1-1.5 3.2-0.9 0.2-2 2-2.6 3.9-0.2 0.9-0.9 1.9-1.5 2.2-0.8 0.3-1.7 1.6-2.1 2.8-0.5 1.2-1.4 2.3-2.1 2.7-0.6 0.3-1.2 0.8-1.2 1.1 0 0.3-0.9 1.2-2 2-3.9 2.8-5.7 4.5-6.1 5.5-0.3 0.8-1.1 1.1-3 1.5-1.5 0.3-3 0.9-3.6 1.4-0.5 0.6-1.5 1-2.1 1-0.8 0-2 0.4-2.7 1-0.8 0.5-2.5 1.3-3.9 1.6-1.5 0.3-3 0.9-3.4 1.3-1.7 1.5-11.6 1.6-109.8 1.7-99 0-109.2-0.1-111.7-1.7-0.8-0.4-2.7-1-4.4-1.3-1.8-0.4-3.4-1-3.7-1.4-0.3-0.4-1.3-0.9-2.2-1.1-0.9-0.1-2.7-0.8-3.9-1.6-1.2-0.7-2.7-1.3-3.3-1.3-0.8 0-1.4-0.5-1.8-1.8-0.5-1-1.2-1.9-2-2.2-0.6-0.2-1.6-0.9-2.1-1.6-0.4-0.6-1.3-1.3-2.1-1.4-0.6-0.1-1.2-0.7-1.5-1.2-0.1-0.6-1-1.4-1.8-1.9-0.9-0.5-1.6-1.5-1.8-2.4-0.3-0.9-1-2-1.8-2.5-0.7-0.4-1.6-1.5-1.8-2.4-0.6-1.9-1.7-3.7-2.6-3.9-0.5-0.1-1.1-1.4-1.5-3-0.5-1.6-1.4-3.4-2-4-0.9-0.8-1.3-2-1.6-5.1-0.2-2.3-0.9-5.4-1.7-7.2-2.1-4.9-2.1-26.7 0-31.6 0.8-1.8 1.5-4.9 1.7-7.2 0.3-3.1 0.7-4.3 1.6-5.1 0.6-0.6 1.5-2.4 2-4 0.4-1.6 1-2.9 1.5-3 0.9-0.2 2-2 2.6-3.9 0.2-0.9 1.1-2 1.8-2.4 0.8-0.5 1.5-1.6 1.8-2.5 0.2-0.9 0.9-1.9 1.8-2.4 0.8-0.5 1.7-1.3 1.8-1.9 0.3-0.5 0.9-1.1 1.5-1.2 0.8-0.1 1.7-0.8 2.1-1.4 0.5-0.7 1.5-1.4 2.1-1.6 0.8-0.3 1.5-1.2 2-2.2 0.4-1.3 1-1.8 1.8-1.8 0.6 0 2.1-0.6 3.3-1.3 1.2-0.8 3-1.5 3.9-1.6 0.9-0.2 1.9-0.7 2.2-1.1 0.3-0.4 1.9-1 3.7-1.4 1.7-0.3 3.6-0.9 4.2-1.3 0.9-0.5 3-0.8 7.8-1.1 4.5-0.3 38.2-0.5 102.3-0.5z"/>
		<path id="path2" fill-rule="evenodd" class="s2" d="m568.4 17c1.4 1.1 1.4 352.9 0 354-1.3 1.2-551.5 1.2-552.8 0-1.2-1.1-1.4-352.9-0.2-353.9 0.5-0.4 1.7-0.7 2.9-0.8 9.3-0.7 549.4 0 550.1 0.7zm-0.6 0l-275.7-0.1c-220.2-0.1-275.8 0-275.9 0.4-0.2 0.3-0.3 80-0.2 177.1l0.2 176.6h551.6zm-179.4 95.4c1.8 0.2 6.6 0.7 10.7 1 6.1 0.5 7.9 0.8 10.4 1.7 1.8 0.7 3.9 1.3 4.7 1.5 4.6 0.9 19.3 9 22.5 12.3 1 1.1 2.6 2.7 3.5 3.5 3.9 3.4 6 6.1 11.4 13.8 1.2 1.8 2.9 4 3.6 5 0.8 1 1.8 2.7 2.1 3.8 0.5 1.1 1.2 3 1.8 4.2 0.6 1.2 1.5 3.6 1.8 5.3 0.3 1.6 1.2 4 1.8 5.2 3 4.9 3 43.7 0 48.6-0.6 1.2-1.5 3.6-1.8 5.2-0.3 1.7-1.2 4.1-1.8 5.3-0.6 1.2-1.3 3.1-1.8 4.2-0.3 1.1-1.3 2.8-2.1 3.8-0.7 1-2.4 3.2-3.6 5-5.4 7.7-7.5 10.4-11.4 13.8-0.9 0.8-2.5 2.4-3.5 3.5-3.2 3.3-17.9 11.4-22.5 12.3-0.8 0.2-2.9 0.8-4.7 1.5-2.5 0.9-4.3 1.2-10.4 1.7-4.1 0.3-8.9 0.8-10.7 1-4 0.5-189.7 0.5-193.1 0-1.4-0.2-5.9-0.6-10.1-1-6.4-0.4-8.2-0.7-10.7-1.7-1.8-0.7-3.8-1.3-4.7-1.5-4.6-0.9-19.3-9-22.5-12.3-1-1.1-2.6-2.7-3.5-3.5-3.8-3.4-5.9-5.9-11.4-13.8-1.2-1.8-3-4.3-3.9-5.6-1.1-1.3-1.8-2.6-1.8-3 0-0.4-0.6-2.2-1.5-3.9-0.8-1.7-1.8-4.5-2.1-6.3-0.5-1.7-1.2-4.1-2-5.2-2.8-4.7-2.8-42.9 0-47.6 0.8-1.1 1.5-3.5 2-5.2 0.3-1.8 1.3-4.6 2.1-6.3 0.9-1.7 1.5-3.5 1.5-3.9 0-0.4 0.7-1.7 1.8-3 0.9-1.3 2.7-3.8 3.9-5.6 5.5-7.9 7.6-10.4 11.4-13.8 0.9-0.8 2.5-2.4 3.5-3.5 3.2-3.3 17.9-11.4 22.5-12.3 0.9-0.2 2.9-0.8 4.7-1.5 2.5-1 4.3-1.3 10.6-1.7 4.2-0.4 8.5-0.8 9.7-1 3.3-0.5 189.7-0.5 193.6 0zm-201.8 1.4c-10.4 0.7-19.6 3.6-30 9.5-5.8 3.4-7.5 4.5-10.5 7.7-0.5 0.7-2.3 2.5-4 4.1-2.4 2.4-4.9 5.7-10.2 13.3-1 1.4-2.2 3.2-2.8 4-0.6 0.8-1.7 2.8-2.1 4.4-0.5 1.7-1.4 3.7-1.8 4.6-0.5 0.9-1.4 3.3-1.8 5.3-0.5 2.1-1.4 4.3-1.8 4.9-2.4 3.1-2.4 41.7 0 44.8 0.4 0.6 1.3 2.8 1.8 4.9 0.4 2 1.3 4.4 1.8 5.3 0.4 0.9 1.3 2.9 1.8 4.6 0.4 1.6 1.5 3.6 2.1 4.4 0.6 0.8 1.8 2.6 2.8 4 5.3 7.6 7.8 10.9 10.2 13.3 1.7 1.6 3.5 3.4 4 4 3 3.3 4.7 4.4 10.5 7.8 5.9 3.3 9.2 4.7 18.6 7.7 7.2 2.3 9.3 2.4 116.2 2.4 102.6 0 111-0.1 116.1-1.9 1.2-0.5 4.6-1.6 7.6-2.6 6.4-2.1 17.8-8.3 20.8-11.3 1.1-1.1 2.2-2.4 2.7-2.8 0.4-0.4 1.9-2 3.4-3.4 2.4-2.4 5-5.7 10.1-13.2 1-1.4 2.2-3.2 2.8-4 0.6-0.8 1.5-2.5 1.8-3.6 0.5-1.2 1.2-3.2 1.8-4.4 0.6-1.2 1.4-3.6 1.8-5.4 0.5-1.7 1.2-4 1.8-5.1 2.9-4.7 2.9-41.5 0-46.2-0.6-1.1-1.3-3.4-1.8-5.1-0.4-1.8-1.2-4.2-1.8-5.4-0.6-1.2-1.3-3.2-1.8-4.4-0.3-1.2-1.2-2.8-1.8-3.6-0.6-0.8-1.8-2.6-2.8-4-6.6-9.5-7.4-10.5-13.5-16.6-0.5-0.4-1.6-1.7-2.7-2.8-3-3-14.4-9.2-20.8-11.3-3-1-6.4-2.1-7.6-2.6-1.7-0.6-4.7-0.9-11.4-1.3-12.6-0.8-198-0.8-209.5 0zm205.3 13.8c1.9 0.4 4.9 0.9 6.6 1 4.8 0.4 7.5 1 9.1 1.9 1.6 0.9 3.1 1.6 7.8 3.3 1.3 0.5 2.8 1.3 3.6 1.7 0.7 0.5 1.9 1 2.5 1.1 0.6 0.1 1.1 0.4 1.1 0.6 0 0.2 0.7 0.9 1.6 1.5 0.9 0.7 2.1 1.6 2.6 2 0.4 0.5 2.1 1.9 3.7 3.2 2.6 2.3 7.6 8.3 7.6 9.1 0 0.2 0.5 1 1.1 1.8 3.4 4.2 5.5 8.4 6.4 12.4 0.5 2.3 1.5 5.3 2.1 6.6 2.7 5.6 2.7 34.8 0 40.4-0.6 1.3-1.6 4.3-2.1 6.6-0.9 4-3 8.2-6.4 12.4-0.6 0.8-1.1 1.6-1.1 1.8 0 0.8-5 6.8-7.6 9.1-1.6 1.3-3.3 2.7-3.7 3.2-0.5 0.4-1.7 1.3-2.6 2-0.9 0.6-1.6 1.3-1.6 1.5 0 0.2-0.5 0.4-1.1 0.6-0.6 0.1-1.8 0.6-2.5 1.1-0.8 0.4-2.3 1.2-3.6 1.7-4.7 1.7-6.2 2.4-7.8 3.3-1.6 0.9-4.3 1.5-9.1 1.9-1.7 0.1-4.7 0.6-6.6 1-5.6 1.2-193.5 1.2-199 0.1-2-0.5-5.9-1-8.7-1.3-3.3-0.3-5.9-0.8-7.2-1.4-2.7-1.2-5.7-2.4-8.7-3.4-1.3-0.5-2.8-1.3-3.4-1.8-0.6-0.5-1.5-1.1-2.1-1.2-0.8-0.1-1.5-0.7-1.8-1.2-0.8-1.1-1.8-2-7.7-6.7-2.8-2.3-7.4-7.6-7.4-8.5 0-0.2-0.5-1-1.1-1.8-3.1-4-5.5-8.5-6.4-12.2-0.6-2.2-1.5-5.2-2.1-6.6-2.7-6.1-2.7-34.7 0-40.8 0.6-1.4 1.5-4.4 2.1-6.6 0.9-3.7 3.3-8.2 6.4-12.2 0.6-0.8 1.1-1.6 1.1-1.8 0-0.9 4.6-6.2 7.4-8.5 5.9-4.7 6.9-5.6 7.7-6.7 0.3-0.5 1-1.1 1.8-1.2 0.6-0.1 1.5-0.7 2.1-1.2 0.6-0.5 2.1-1.3 3.4-1.8 2.9-1 5.9-2.2 8.7-3.4 1.3-0.6 4.2-1.1 8.1-1.6 3.3-0.3 7-0.9 8.4-1.2 4.2-1 193.4-0.9 198.4 0.2zm-98.1-0.3c-90.4 0-97.2 0.1-100.6 1-0.8 0.2-3.9 0.6-6.9 0.9-2.9 0.2-6.2 0.7-7.2 1-3.3 1.1-6.6 2.4-8.4 3.2-1 0.5-2.4 1-3.1 1.2-0.8 0.1-1.7 0.6-2 1-0.4 0.5-1.3 1-2.1 1.2-0.9 0.2-1.8 0.8-2.1 1.4-0.6 1-3.4 3.6-7.8 7-1.5 1.2-3.6 3.4-4.6 4.8-4.5 6.3-5.5 8-7 10.6-2.3 4-2.6 4.8-3.3 8.4-0.3 1.8-1.1 4.1-1.5 5.2-2.9 5.5-2.9 34.1 0 39.6 0.4 1.1 1.2 3.4 1.5 5.2 0.7 3.6 1 4.3 3.3 8.4 1.5 2.6 2.5 4.3 7 10.6 1 1.4 3.1 3.6 4.6 4.8 4.4 3.4 7.2 6 7.8 7 0.3 0.6 1.2 1.2 2.1 1.4 0.8 0.2 1.7 0.7 2.1 1.2 0.3 0.4 1.2 0.9 2 1 0.7 0.2 2.1 0.7 3.1 1.2 1.8 0.8 5.1 2.1 8.4 3.2 1 0.3 4.2 0.7 6.9 1 2.8 0.2 6.3 0.7 7.8 1.1 4.2 1.1 192.1 1.1 196.7 0 1.7-0.4 5.1-0.8 7.5-1.1 2.6-0.2 5.1-0.5 5.7-0.7 2.3-0.6 8.1-3 8.1-3.3 0-0.2 0.7-0.5 1.8-0.8 1-0.3 2.8-1 4-1.7 1.2-0.6 2.6-1.1 3-1.1 0.5 0 1.4-0.6 2.1-1.4 0.6-0.8 1.4-1.4 1.7-1.4 0.3 0 1-0.6 1.6-1.3 0.8-0.7 2.6-2.4 4.1-3.7 6.7-6 13.9-17.8 15.2-25 0.3-1.8 1.1-4 1.5-4.7 2.7-4.4 2.7-35 0-39.4-0.4-0.7-1.2-2.9-1.5-4.7-1.3-7.2-8.5-19-15.2-25-1.5-1.3-3.3-3-4.1-3.7-0.6-0.7-1.3-1.3-1.6-1.3-0.3 0-1.1-0.6-1.7-1.4-0.7-0.8-1.6-1.4-2.2-1.4-0.5 0-1.5-0.4-2.6-0.9-0.9-0.6-2.5-1.3-3.7-1.7-1.2-0.4-2.3-0.9-2.4-1.1-1.7-1.6-9.1-3.6-15.1-4.1-2-0.1-4.7-0.6-6-0.9-2.4-0.6-10.5-0.7-96.9-0.8z"/>
		<path id="path3" fill-rule="evenodd" class="s3" d="m569 16.2c1.4 1 1.4 354.6 0 355.6-1.5 0.9-552.5 0.9-554 0-1.4-1-1.4-354.6 0-355.6 1.5-0.9 552.5-0.9 554 0zm-275.1 0c-288.5-0.1-277.3-0.1-278.5 0.9-1.2 1-1 352.8 0.2 353.9 1.3 1.2 551.5 1.2 552.8 0 1.4-1.1 1.4-352.9 0-354-0.7-0.8-4.3-0.8-274.5-0.8zm-3.4 97.1c103.6-0.1 111.9 0 117 1.8 1.2 0.5 4.6 1.6 7.6 2.6 6.4 2.1 17.8 8.3 20.8 11.3 1.1 1.1 2.2 2.4 2.7 2.8 0.4 0.4 1.9 2 3.4 3.4 2.4 2.4 5 5.7 10.1 13.2 1 1.4 2.2 3.2 2.8 4 0.6 0.8 1.5 2.5 1.8 3.6 0.5 1.2 1.2 3.2 1.8 4.4 0.6 1.2 1.4 3.6 1.8 5.4 0.5 1.7 1.2 4 1.8 5.1 2.9 4.7 2.9 41.5 0 46.2-0.6 1.1-1.3 3.4-1.8 5.1-0.4 1.8-1.2 4.2-1.8 5.4-0.6 1.2-1.3 3.2-1.8 4.4-0.3 1.2-1.2 2.8-1.8 3.6-0.6 0.8-1.8 2.6-2.8 4-6.6 9.5-7.4 10.5-13.5 16.6-0.5 0.4-1.6 1.7-2.7 2.8-3 3-14.4 9.2-20.8 11.3-3 1-6.4 2.1-7.6 2.6-5.1 1.8-13.5 1.9-116.1 1.9-106.9 0-109-0.1-116.2-2.4-9.4-3-12.7-4.4-18.6-7.7-5.8-3.4-7.5-4.5-10.5-7.7-0.5-0.7-2.3-2.5-4-4.1-2.4-2.4-4.9-5.7-10.2-13.3-1-1.4-2.2-3.2-2.8-4-0.6-0.8-1.7-2.8-2.1-4.4-0.5-1.7-1.4-3.7-1.8-4.6-0.5-0.9-1.4-3.3-1.8-5.3-0.5-2.1-1.4-4.3-1.8-4.9-2.4-3.1-2.4-41.7 0-44.8 0.4-0.6 1.3-2.8 1.8-4.9 0.4-2 1.3-4.4 1.8-5.3 0.4-0.9 1.3-2.9 1.8-4.6 0.4-1.6 1.5-3.6 2.1-4.4 0.6-0.8 1.8-2.6 2.8-4 5.3-7.6 7.8-10.9 10.2-13.3 1.7-1.6 3.5-3.4 4-4 3-3.3 4.7-4.4 10.5-7.8 10.4-5.9 19.6-8.8 30-9.5 5.5-0.4 31.7-0.5 103.9-0.5zm112.8 1.3h-108.2c-112.1-0.1-114.8-0.1-116.8 1.1-0.6 0.4-2.5 1-4.1 1.3-1.7 0.3-3.3 0.8-3.5 1-0.3 0.3-1.6 0.8-3.1 1.2-1.5 0.5-3.8 1.4-5 2-3.3 1.8-5.7 3.2-7.5 4.2-0.7 0.6-2.1 1.2-2.7 1.4-0.7 0.2-1.6 1-2.2 1.8-2 2.4-5.1 5.4-5.7 5.4-0.3 0-0.9 0.7-1.5 1.5-0.4 0.8-1.3 1.9-1.9 2.3-0.6 0.4-1.4 1.5-1.8 2.4-0.5 0.9-1.2 2-1.8 2.4-0.6 0.4-1.5 1.7-2 2.7-0.3 1.1-1.2 2.3-1.8 2.7-0.4 0.4-1.3 1.7-1.9 2.8-0.5 1.2-1.5 2.5-2.1 2.9-0.6 0.4-1.2 0.9-1.2 1.2-0.2 2.7-1.4 6.6-2.3 7.9-0.9 1-1.5 2.8-1.8 4.5-0.1 1.6-1 4.3-1.8 6.1l-1.6 3.2v34.8l1.6 3.2c0.8 1.8 1.7 4.5 1.8 6.1 0.3 1.7 0.9 3.5 1.8 4.5 0.9 1.3 2.1 5.2 2.3 7.9 0 0.3 0.6 0.8 1.2 1.2 0.6 0.4 1.6 1.7 2.1 2.9 0.6 1.1 1.5 2.4 1.9 2.8 0.6 0.4 1.5 1.6 1.8 2.7 0.5 1 1.4 2.3 2 2.7 0.6 0.4 1.3 1.5 1.8 2.4 0.4 0.9 1.2 2 1.8 2.4 0.6 0.4 1.5 1.5 1.9 2.3 0.6 0.8 1.2 1.5 1.5 1.5 0.6 0 3.7 3 5.7 5.4 0.6 0.8 1.5 1.6 2.2 1.8 0.6 0.2 1.8 0.8 2.7 1.3 1.8 1.1 4.7 2.7 7.5 4.3 1.2 0.6 3.5 1.5 5 2 1.5 0.4 2.8 0.9 3.1 1.2 0.2 0.2 1.7 0.6 3.3 1 1.6 0.3 3.7 1 4.8 1.5l1.9 0.9h222.6l1.9-0.9c1.1-0.5 3.2-1.2 4.8-1.5 1.6-0.4 3.1-0.8 3.3-1 0.3-0.3 1.6-0.8 3.1-1.2 1.5-0.5 3.8-1.4 5-2 3.3-1.8 5.7-3.2 7.5-4.2 0.7-0.6 2.1-1.2 2.7-1.4 0.7-0.2 1.6-1 2.2-1.8 2-2.4 5.1-5.4 5.7-5.4 0.3 0 0.9-0.7 1.5-1.5 0.4-0.8 1.3-1.9 1.9-2.3 0.6-0.4 1.4-1.5 1.8-2.4 0.5-0.9 1.2-2 1.8-2.4 0.6-0.4 1.5-1.7 2-2.7 0.3-1.1 1.2-2.3 1.8-2.7 0.4-0.4 1.5-1.7 1.9-3 0.6-1.2 1.4-2.3 1.8-2.5 1.1-0.2 1.4-0.9 2.1-4.7 0.3-1.7 1.1-3.7 1.8-4.3 0.6-0.8 1.4-2.8 1.8-5.1 0.3-2.1 1.2-4.9 2-6.2 1.9-3.7 1.9-36.7 0-40.4-0.8-1.3-1.7-4.1-2-6.2-0.4-2.3-1.2-4.3-1.8-5.1-0.7-0.6-1.5-2.6-1.8-4.3-0.7-3.8-1-4.5-2.1-4.7-0.4-0.2-1.2-1.3-1.8-2.5-0.4-1.3-1.5-2.6-1.9-3-0.6-0.4-1.5-1.6-1.8-2.7-0.5-1-1.4-2.3-2-2.7-0.6-0.4-1.3-1.5-1.8-2.4-0.4-0.9-1.2-2-1.8-2.4-0.6-0.4-1.5-1.5-1.9-2.3-0.6-0.8-1.2-1.5-1.5-1.5-0.6 0-3.7-3-5.7-5.4-0.6-0.8-1.5-1.6-2.2-1.8-0.6-0.2-2-0.8-2.7-1.4-1.8-1-4.2-2.4-7.5-4.2-1.2-0.6-3.5-1.5-5-2-1.5-0.4-2.8-0.9-3.1-1.2-0.2-0.2-1.7-0.6-3.3-1-1.6-0.3-3.7-1-4.8-1.5zm-109.8 11.6h99.5l2.7 0.9c1.3 0.5 4.5 1.1 6.7 1.3 3.2 0.3 4.5 0.7 5.7 1.4 0.9 0.6 1.9 1 2.2 1 0.5 0 1.7 0.6 2.9 1.2 1.3 0.7 2.8 1.3 3.6 1.5 0.7 0.1 1.9 0.6 2.8 1.2 2.9 1.9 4.5 2.9 5.1 3.4 0.5 0.3 1.1 0.7 1.4 0.9 3.6 2.4 8.4 6.8 9.4 8.4 0.5 0.7 1.2 1.5 1.6 1.8 0.6 0.3 1.2 1.2 1.4 2 0.1 0.8 1.2 2.2 2.1 3.2 0.9 1 1.8 2.2 1.8 2.6 0 0.5 0.6 1.6 1.3 2.3 2 1.9 2.1 2.3 2.7 6.6 0.3 2 1.1 4.1 1.5 4.6 2.4 2.5 3.5 16.9 2.6 33.7-0.5 8.5-1.2 11.9-2.6 13.4-0.4 0.5-1.2 2.5-1.5 4.6-0.6 4.3-0.7 4.7-2.7 6.5-0.7 0.8-1.3 1.8-1.3 2.3 0 0.5-0.9 1.7-1.8 2.7-0.9 0.9-2 2.4-2.1 3.2-0.2 0.8-0.8 1.7-1.4 2-0.4 0.2-1.1 1-1.6 1.7-1 1.7-5.8 6-9.4 8.4-0.3 0.2-0.9 0.7-1.4 1-0.6 0.5-2.2 1.5-5.1 3.4-0.9 0.5-2.1 1.1-2.8 1.2-0.8 0.1-2.3 0.8-3.6 1.4-1.2 0.7-2.4 1.2-2.9 1.2-0.3 0-1.3 0.5-2.2 1-1.2 0.8-2.5 1.2-5.7 1.5-2.2 0.2-5.4 0.8-6.7 1.2l-2.7 0.9h-201.3l-2.7-0.8c-1.5-0.5-4.9-1.1-7.5-1.3-3.9-0.3-4.9-0.6-6-1.4-0.7-0.6-2.1-1.1-3.1-1.3-1-0.1-2.4-0.6-3.1-1.2-0.8-0.5-2.1-1.1-3.2-1.4-0.9-0.2-1.8-0.8-2.1-1.2-0.1-0.4-0.7-0.8-1.5-1-0.6-0.1-1.6-0.7-2.1-1.3-0.6-0.6-1.6-1.5-2.2-1.9-0.8-0.5-2.4-1.8-3.6-2.9-1.4-1.2-3.2-2.7-4.1-3.4-0.9-0.6-1.6-1.4-1.6-1.7 0-0.3-0.8-1-1.5-1.7-0.9-0.6-1.8-1.9-2.1-2.7-0.3-0.9-1.2-2.3-2.1-3.1-0.9-0.9-1.5-2-1.5-2.5 0-0.5-0.7-1.5-1.5-2.3-1.8-1.8-1.9-2.2-2.7-6.3-0.3-1.8-1.2-4.3-1.9-5.4-1.2-1.7-1.4-3.1-2-11.2-1-16.1-0.1-31.5 2-34.8 0.7-1.1 1.6-3.5 1.9-5.4 0.8-4.1 0.9-4.5 2.7-6.3 0.8-0.7 1.5-1.8 1.5-2.3 0-0.5 0.6-1.6 1.5-2.4 0.9-0.9 1.8-2.3 2.1-3.1 0.3-0.9 1.2-2.1 2.1-2.8 0.7-0.6 1.5-1.4 1.5-1.6 0-0.3 0.7-1.1 1.6-1.8 0.9-0.7 2.7-2.2 4.1-3.3 1.2-1.1 2.8-2.5 3.6-2.9 0.6-0.5 1.6-1.4 2.2-1.9 0.5-0.6 1.5-1.2 2.1-1.4 0.8-0.1 1.4-0.5 1.5-0.9 0.3-0.5 1.2-1 2.1-1.3 1.1-0.2 2.4-0.9 3.2-1.4 0.7-0.5 2.1-1 3.1-1.2 1-0.1 2.4-0.7 3.1-1.2 1.1-0.9 2.1-1.1 6-1.4 2.6-0.2 5.4-0.7 6.3-1 0.9-0.3 2.7-0.7 3.9-0.9 1.4-0.2 43.4-0.4 101.8-0.3zm-100 1.2c-1.3 0.4-5.1 0.9-8.4 1.3q-6.1 0.6-8.1 1.5c-3 1.2-5.8 2.4-8.6 3.5-1.4 0.4-2.9 1.2-3.5 1.8-0.6 0.5-1.6 1-2.2 1.1-0.6 0.1-1.4 0.7-1.8 1.3-0.8 1-1.8 1.9-7.7 6.7-2.7 2.2-7.3 7.5-7.3 8.5 0 0.2-0.6 1-1.2 1.7-3.1 4-5.5 8.5-6.4 12.2-0.5 2.2-1.4 5.2-2.1 6.6-2.7 6.1-2.7 34.7 0 40.8 0.7 1.5 1.6 4.4 2.1 6.6 0.9 3.8 3.3 8.3 6.4 12.2 0.6 0.8 1.2 1.6 1.2 1.8 0 0.9 4.6 6.3 7.3 8.5 5.9 4.7 6.9 5.7 7.7 6.7 0.4 0.6 1.2 1.1 1.8 1.2 0.6 0.2 1.6 0.7 2.2 1.2 0.6 0.5 2.1 1.3 3.5 1.8 2.8 1.1 5.8 2.3 8.6 3.5 1.4 0.6 3.8 1 7.2 1.4 2.7 0.2 6.6 0.8 8.6 1.2 5.5 1.2 193.6 1.1 199.1 0 2-0.5 4.8-0.9 6.5-1.1 4.8-0.4 7.6-1 9.2-1.9 1.5-0.8 3.2-1.5 7.8-3.3 1.2-0.5 2.9-1.2 3.6-1.7 0.8-0.5 1.8-1 2.4-1.1 0.6-0.1 1.2-0.4 1.2-0.6 0-0.1 0.8-0.8 1.7-1.5 0.9-0.7 2.1-1.6 2.5-2 0.5-0.4 2.1-1.9 3.6-3.2 2.7-2.2 7.8-8.3 7.8-9.1 0-0.2 0.4-1 1-1.8 3.3-4.1 5.6-8.4 6.5-12.4 0.4-2.3 1.3-5.3 2.1-6.6 2.7-5.6 2.7-34.8 0-40.4-0.8-1.3-1.7-4.3-2.1-6.6-0.9-4-3.2-8.2-6.5-12.4-0.6-0.7-1-1.5-1-1.7 0-0.9-5.1-6.9-7.8-9.1-1.5-1.4-3.1-2.8-3.6-3.2-0.4-0.5-1.6-1.4-2.5-2-0.9-0.7-1.7-1.4-1.7-1.6 0-0.2-0.6-0.4-1.2-0.5-0.6-0.2-1.6-0.7-2.4-1.1-0.7-0.5-2.4-1.3-3.6-1.7-4.6-1.8-6.3-2.5-7.8-3.3-1.6-0.9-4.4-1.5-9.2-2-1.7-0.1-4.5-0.6-6.5-1-4.9-1-194.2-1.2-198.4-0.2z"/>
		<path id="path4" fill-rule="evenodd" class="s4" d="m292.1 16.9l275.7 0.1v354h-551.6l-0.2-176.6c-0.1-97.1 0-176.8 0.2-177.1 0.1-0.4 55.7-0.5 275.9-0.4zm-275.6 353.5h551v-352.8h-551zm376-259.2c2.4 0.2 5.2 0.6 6.3 1 1 0.3 4 0.7 6.6 0.9 3.7 0.4 5 0.7 6.2 1.4 0.9 0.6 2.7 1.2 4.1 1.3 1.2 0.2 2.8 0.7 3.6 1.2 0.7 0.6 2.1 1.2 3 1.4 0.9 0.2 1.8 0.8 1.9 1.2 0.2 0.4 0.6 0.8 1.1 0.8 2.2 0 13.3 7.2 13.7 9.1 0.3 0.8 0.9 1.4 1.7 1.5 0.6 0.1 1.5 0.8 2.1 1.5 0.4 0.7 1.5 1.8 2.4 2.4 0.7 0.7 1.3 1.6 1.3 2.1 0 0.5 0.6 1.2 1.5 1.7 1.2 0.5 1.8 1.3 2.1 2.7 0.5 1.2 1.1 2.2 1.8 2.6 0.8 0.3 1.7 1.6 2.1 2.8 0.5 1.1 1.4 2.5 2.1 3 0.6 0.5 1.5 1.9 1.8 3.2 0.5 1.3 1.2 2.8 2 3.4 0.9 0.8 1.3 2.2 1.8 5.4 0.4 3.4 0.7 4.6 1.6 5.2 1.7 1.2 2.4 5.3 2.4 13.6 0 4.9 0.3 7.4 0.9 8.8 1.2 2.5 1.2 6.7 0 9.2-0.6 1.4-0.9 3.9-0.9 8.8 0 8.3-0.7 12.4-2.4 13.6-0.9 0.6-1.2 1.8-1.6 5.2-0.5 3.2-0.9 4.6-1.8 5.4-0.8 0.6-1.5 2.1-2 3.4-0.3 1.3-1.2 2.7-1.8 3.2-0.7 0.5-1.6 1.9-2.1 3-0.4 1.2-1.3 2.5-2.1 2.8-0.7 0.4-1.3 1.4-1.8 2.6-0.3 1.4-0.9 2.2-2.1 2.7-0.9 0.5-1.5 1.2-1.5 1.7 0 0.5-0.6 1.4-1.3 2.1-0.9 0.6-2 1.7-2.4 2.4-0.6 0.7-1.5 1.4-2.1 1.5-0.8 0.1-1.4 0.7-1.7 1.5-0.4 1.9-11.5 9.1-13.7 9.1-0.5 0-0.9 0.4-1.1 0.8-0.1 0.4-1 1-1.9 1.2-0.9 0.2-2.3 0.8-3 1.4-0.8 0.5-2.4 1-3.6 1.2-1.4 0.1-3.2 0.7-4.1 1.3-1.2 0.7-2.5 1-6.2 1.4-2.6 0.2-5.6 0.6-6.6 0.9-4.1 1.3-11.9 1.4-106.9 1.4-96.5 0-103.2-0.1-107.1-1.4-0.8-0.3-3.6-0.7-6.2-0.9-3.7-0.3-5-0.7-6.2-1.4-0.9-0.6-2.7-1.2-4.1-1.3-1.2-0.2-2.8-0.7-3.6-1.2-0.7-0.6-2.1-1.2-3-1.4-0.9-0.2-1.8-0.8-1.9-1.2-0.2-0.4-0.6-0.8-1.1-0.8-2.2 0-13.3-7.2-13.7-9.1-0.3-0.8-0.9-1.4-1.7-1.5-0.6-0.1-1.5-0.8-2.1-1.5-0.4-0.7-1.5-1.8-2.4-2.4-0.7-0.7-1.3-1.6-1.3-2.1 0-0.5-0.6-1.2-1.5-1.7-1.2-0.5-1.8-1.3-2.1-2.7-0.5-1.2-1.1-2.2-1.8-2.6-0.8-0.3-1.7-1.6-2.1-2.8-0.5-1.1-1.4-2.5-2.1-3-0.6-0.5-1.5-1.9-1.8-3.2-0.5-1.3-1.2-2.8-1.8-3.4-0.9-0.7-1.4-2.2-2-5.6-0.3-2.9-0.9-4.7-1.3-5-1.8-0.9-2.3-3-2.7-12.4-0.3-5.7-0.8-10.1-1.1-10.7-0.8-1.5-0.8-6.3 0-7.8 0.3-0.6 0.8-5 1.1-10.7 0.4-9.4 0.9-11.5 2.7-12.4 0.4-0.3 1-2.1 1.3-5 0.6-3.4 1.1-4.9 2-5.6 0.6-0.6 1.3-2.1 1.8-3.4 0.3-1.3 1.2-2.7 1.8-3.2 0.7-0.5 1.6-1.9 2.1-3 0.4-1.2 1.3-2.5 2.1-2.8 0.7-0.4 1.3-1.4 1.8-2.6 0.3-1.4 0.9-2.2 2.1-2.7 0.9-0.5 1.5-1.2 1.5-1.7 0-0.5 0.6-1.4 1.3-2.1 0.9-0.6 2-1.7 2.4-2.4 0.6-0.7 1.5-1.4 2.1-1.5 0.8-0.1 1.4-0.7 1.7-1.5 0.4-1.9 11.5-9.1 13.7-9.1 0.5 0 0.9-0.4 1.1-0.8 0.1-0.4 1-1 1.9-1.2 0.9-0.2 2.3-0.8 3-1.4 0.8-0.5 2.4-1 3.6-1.2 1.4-0.1 3.2-0.7 3.9-1.3 1.4-0.7 2.7-1 6-1.3 2.5-0.3 5.4-0.7 6.6-1 1.2-0.3 3.7-0.8 5.7-1 5.1-0.4 196.4-0.5 202 0zm-197.7 1.2c-1.2 0.2-5.5 0.6-9.7 1-6.3 0.4-8.1 0.7-10.6 1.7-1.8 0.7-3.9 1.3-4.7 1.5-4.6 0.9-19.3 9-22.5 12.3-1 1.1-2.6 2.7-3.5 3.5-3.8 3.4-5.9 5.9-11.4 13.8-1.2 1.8-3 4.3-3.9 5.6-1.1 1.3-1.8 2.6-1.8 3 0 0.4-0.6 2.2-1.5 3.9-0.8 1.7-1.8 4.5-2.1 6.3-0.5 1.7-1.2 4.1-2 5.2-2.8 4.7-2.8 42.9 0 47.6 0.8 1.1 1.5 3.5 2 5.2 0.3 1.8 1.3 4.6 2.1 6.3 0.9 1.7 1.5 3.5 1.5 3.9 0 0.4 0.7 1.7 1.8 3 0.9 1.3 2.7 3.8 3.9 5.6 5.5 7.9 7.6 10.4 11.4 13.8 0.9 0.8 2.5 2.4 3.5 3.5 3.2 3.3 17.9 11.4 22.5 12.3 0.8 0.2 2.9 0.8 4.7 1.5 2.5 1 4.3 1.3 10.7 1.7 4.2 0.4 8.7 0.8 10.1 1 3.4 0.5 189.1 0.5 193.1 0 1.8-0.2 6.6-0.7 10.7-1 6.1-0.5 7.9-0.8 10.4-1.7 1.8-0.7 3.9-1.3 4.7-1.5 4.6-0.9 19.3-9 22.5-12.3 1-1.1 2.6-2.7 3.5-3.5 3.9-3.4 6-6.1 11.4-13.8 1.2-1.8 2.9-4 3.6-5 0.8-1 1.8-2.7 2.1-3.8 0.5-1.1 1.2-3 1.8-4.2 0.6-1.2 1.5-3.6 1.8-5.3 0.3-1.6 1.2-4 1.8-5.2 3-4.9 3-43.7 0-48.6-0.6-1.2-1.5-3.6-1.8-5.2-0.3-1.7-1.2-4.1-1.8-5.3-0.6-1.2-1.3-3.1-1.8-4.2-0.3-1.1-1.3-2.8-2.1-3.8-0.7-1-2.4-3.2-3.6-5-5.4-7.7-7.5-10.4-11.4-13.8-0.9-0.8-2.5-2.4-3.5-3.5-3.2-3.3-17.9-11.4-22.5-12.3-0.8-0.2-2.9-0.8-4.7-1.5-2.5-0.9-4.3-1.2-10.4-1.7-4.1-0.3-8.9-0.8-10.7-1-3.9-0.5-190.3-0.5-193.6 0zm195.9 15.7c1.3 0.3 4 0.8 6 0.9 6 0.5 13.4 2.5 15.1 4.1 0.1 0.2 1.2 0.7 2.4 1.1 1.2 0.4 2.8 1.1 3.7 1.7 1.1 0.5 2.1 0.9 2.6 0.9 0.6 0 1.5 0.6 2.2 1.4 0.6 0.8 1.4 1.4 1.7 1.4 0.3 0 1 0.6 1.6 1.3 0.8 0.7 2.6 2.4 4.1 3.7 6.7 6 13.9 17.8 15.2 25 0.3 1.8 1.1 4 1.5 4.7 2.7 4.4 2.7 35 0 39.4-0.4 0.7-1.2 2.9-1.5 4.7-1.3 7.2-8.5 19-15.2 25-1.5 1.3-3.3 3-4.1 3.7-0.6 0.7-1.3 1.3-1.6 1.3-0.3 0-1.1 0.6-1.7 1.4-0.7 0.8-1.6 1.4-2.1 1.4-0.4 0-1.8 0.5-3 1.1-1.2 0.7-3 1.4-4 1.7-1.1 0.3-1.8 0.6-1.8 0.8 0 0.3-5.8 2.7-8.1 3.3-0.6 0.2-3.1 0.5-5.7 0.7-2.4 0.3-5.8 0.7-7.5 1.1-4.6 1.1-192.5 1.1-196.7 0-1.5-0.4-5-0.9-7.8-1.1-2.9-0.3-5.9-0.7-6.9-1-3.3-1.1-6.6-2.4-8.4-3.2-1-0.5-2.4-1-3.1-1.2-0.8-0.1-1.7-0.6-2-1-0.4-0.5-1.3-1-2.1-1.2-0.9-0.2-1.8-0.8-2.1-1.4-0.6-1-3.4-3.6-7.8-7-1.5-1.2-3.6-3.4-4.6-4.8-4.5-6.3-5.5-8-7-10.6-2.3-4.1-2.6-4.8-3.3-8.4-0.3-1.8-1.1-4.1-1.5-5.2-2.9-5.5-2.9-34.1 0-39.6 0.4-1.1 1.2-3.4 1.5-5.2 0.7-3.6 1-4.4 3.3-8.4 1.5-2.6 2.5-4.3 7-10.6 1-1.4 3.1-3.6 4.6-4.8 4.4-3.4 7.2-6 7.8-7 0.3-0.6 1.2-1.2 2.1-1.4 0.8-0.2 1.7-0.7 2.1-1.2 0.3-0.4 1.2-0.9 2-1 0.7-0.2 2.1-0.7 3.1-1.2 1.8-0.8 5.1-2.1 8.4-3.2 1-0.3 4.3-0.8 7.2-1 3-0.3 6-0.7 6.9-0.9 0.9-0.2 2.5-0.6 3.9-0.7 5.5-0.7 190.9-0.2 193.6 0.5zm-99.3 1.2c-99 0-107.7 0.2-110.1 1.6-0.6 0.4-2.5 1-4.2 1.3-1.8 0.4-3.4 1-3.7 1.4-0.3 0.4-1.3 0.9-2.2 1.1-0.9 0.1-2.7 0.8-3.9 1.6-1.2 0.7-2.7 1.3-3.3 1.3-0.8 0-1.4 0.5-1.8 1.8-0.5 1-1.2 1.9-2 2.2-0.6 0.2-1.6 0.9-2.1 1.6-0.4 0.6-1.3 1.3-2.1 1.4-0.6 0.1-1.2 0.7-1.5 1.2-0.1 0.6-1 1.4-1.8 1.9-0.9 0.5-1.6 1.5-1.8 2.4-0.3 0.9-1 2-1.8 2.5-0.7 0.4-1.6 1.5-1.8 2.4-0.6 1.9-1.7 3.7-2.6 3.9-0.5 0.1-1.1 1.4-1.5 3-0.5 1.6-1.4 3.4-2 4-0.9 0.8-1.3 2-1.6 5.1-0.2 2.3-0.9 5.4-1.7 7.2-2.1 4.9-2.1 26.7 0 31.6 0.8 1.8 1.5 4.9 1.7 7.2 0.3 3.1 0.7 4.3 1.6 5.1 0.6 0.6 1.5 2.4 2 4 0.4 1.6 1 2.9 1.5 3 0.9 0.2 2 2 2.6 3.9 0.2 0.9 1.1 2 1.8 2.4 0.8 0.5 1.5 1.6 1.8 2.5 0.2 0.9 0.9 1.9 1.8 2.4 0.8 0.5 1.7 1.3 1.8 1.9 0.3 0.5 0.9 1.1 1.5 1.2 0.8 0.1 1.7 0.8 2.1 1.4 0.5 0.7 1.5 1.4 2.1 1.6 0.8 0.3 1.5 1.2 2 2.2 0.4 1.3 1 1.8 1.8 1.8 0.6 0 2.1 0.6 3.3 1.3 1.2 0.8 3 1.5 3.9 1.6 0.9 0.2 1.9 0.7 2.2 1.1 0.3 0.4 1.9 1 3.7 1.4 1.7 0.3 3.6 0.9 4.4 1.3 2.5 1.6 12.7 1.7 111.7 1.7 98.2-0.1 108.1-0.2 109.8-1.7 0.4-0.4 1.9-1 3.4-1.3 1.4-0.3 3.1-1.1 3.9-1.6 0.7-0.6 1.9-1 2.7-1 0.6 0 1.6-0.4 2.1-1 0.6-0.5 2.1-1.1 3.6-1.4 1.9-0.4 2.7-0.7 3-1.5 0.4-1 2.2-2.7 6.1-5.5 1.1-0.8 2-1.7 2-2 0-0.3 0.6-0.8 1.2-1.1 0.7-0.4 1.6-1.5 2.1-2.7 0.4-1.2 1.3-2.5 2.1-2.8 0.6-0.3 1.3-1.3 1.5-2.2 0.6-1.9 1.7-3.7 2.6-3.9 0.5-0.1 1.1-1.5 1.5-3.2 0.5-1.7 1.4-3.6 2-4.2 0.9-0.8 1.3-2 1.6-5.2 0.2-2.4 0.9-5.3 1.8-7.5 2.3-5.3 2.3-24.8 0-30-0.9-2.2-1.6-5.1-1.8-7.5-0.3-3.2-0.7-4.4-1.6-5.2-0.6-0.6-1.5-2.5-2-4.2-0.4-1.7-1-3.1-1.5-3.2-0.9-0.2-2-2-2.6-3.9-0.2-0.9-0.9-1.9-1.5-2.2-0.8-0.3-1.7-1.6-2.1-2.8-0.5-1.2-1.4-2.3-2.1-2.7-0.6-0.3-1.2-0.8-1.2-1.1 0-0.3-0.9-1.2-2-2-3.9-2.8-5.7-4.5-6.1-5.5-0.3-0.8-1.1-1.1-3-1.5-1.5-0.3-3-0.9-3.6-1.4-0.5-0.6-1.5-1-2.1-1-0.8 0-2-0.4-2.7-1-0.8-0.5-2.5-1.3-3.9-1.6-1.5-0.3-3-0.9-3.4-1.3-0.6-0.5-2.6-0.8-8.4-1.2-5.7-0.3-32.4-0.4-103.2-0.4z"/>
	</g>
</svg>