<svg version="1.2" xmlns="http://www.w3.org/2000/svg" viewBox="0 0 584 388" width="60" height="40">
	<title>300310000012190000000-svg</title>
	<style>
		.s0 { fill: #050707 } 
		.s1 { fill: #84e4fc } 
		.s2 { fill: #44747d } 
		.s3 { fill: #508da0 } 
		.s4 { fill: #3c6474 } 
	</style>
	<g id="svgg">
		<path id="path0" fill-rule="evenodd" class="s0" d="m0.1 0h583.8l0.2 1.9c0.6 2.4 0.6 383.8 0 386.2l-0.2 1.9h-583.8l-0.2-1.9c-0.6-2.4-0.6-383.8 0-386.2zm16.3 18.3c-1.2 0.8-1.2 1.3-1.2 176.7 0 175.3 0 175.9 1.2 176.7 2 1.2 548.9 1.2 550.7 0 1.9-1.3 1.9-352.2 0-353.4-1.8-1.3-548.7-1.3-550.7 0zm129.7 121.2c0.5 0.5 1.3 1 1.7 1 0.3 0 2 0.7 3.3 1.6 1.5 0.8 3 1.5 3.4 1.5 0.3 0 1.2 0.4 2 1 0.9 0.5 1.8 1 2.2 1 0.5 0 1.7 0.5 2.8 1.3 3 1.8 5.7 3.2 7.8 4 1.9 0.7 3.9 1.7 9.5 4.7 2 0.9 4.3 2.1 5.2 2.4 1.1 0.4 2.4 1.1 3 1.5 0.6 0.5 1.4 0.9 1.7 0.9 0.3 0 1.9 0.7 3.4 1.5 5.8 3.2 6.5 3.5 8.2 3.9 0.9 0.3 1.5 0.6 1.5 0.8 0 0.3 0.7 0.7 1.6 1 1.1 0.3 2.7 1.1 3.7 1.8 1.2 0.7 2.7 1.4 3.5 1.5 0.7 0.1 1.4 0.5 1.6 0.8 0.1 0.3 1.3 0.9 2.7 1.3 1.3 0.5 2.4 1 2.5 1.2 0.3 0.4 7.5 4.1 8.1 4.1 0.1 0 1.1 0.5 2.3 1.1 1.1 0.6 3.2 1.7 4.8 2.5 1.5 0.6 3.7 1.8 5.1 2.6 1.3 0.7 2.8 1.3 3.3 1.3 0.4 0 1 0.3 1.4 0.7 0.5 0.4 1.7 1 2.7 1.4 1.1 0.3 2 0.9 2.3 1.2 0.1 0.3 1.4 0.9 2.9 1.4 1.5 0.5 2.9 1.2 3 1.5 0.2 0.3 1.2 0.8 2.1 1 1 0.2 2.2 0.9 2.7 1.4 0.6 0.5 1.3 1 1.6 1 0.3 0 1.7 0.5 2.9 1.2 1 0.7 2.8 1.4 3.7 1.6 0.9 0.3 1.6 0.6 1.6 0.8 0 0.2 0.9 0.7 2 1.1 1.1 0.5 2.8 1.3 3.7 1.8 4 2.3 7 3.8 7.9 3.8 0.4 0 1.2 0.4 1.8 0.9 0.4 0.5 1.5 1.1 2.3 1.2 0.8 0.2 1.8 0.7 2.4 1.3 0.8 0.8 1.5 1 3.8 1 2.3 0 3.1-0.2 3.8-1 0.6-0.6 1.7-1.1 2.4-1.3 0.9-0.1 1.9-0.7 2.4-1.2 0.6-0.5 1.3-0.9 1.8-0.9 0.9 0 4.6-1.8 7.6-3.8 1-0.5 2.7-1.2 3.9-1.5 1-0.3 1.9-0.8 1.9-1 0-0.2 0.9-0.7 1.9-1.1 2.1-0.7 4.6-2 8.1-4 1.2-0.8 2.5-1.3 3-1.3 0.4 0 1.3-0.4 1.7-0.9 0.6-0.4 2.1-1.1 3.2-1.5 1.2-0.4 2.8-1.2 3.5-1.8 0.8-0.6 1.8-1 2.3-1 0.4 0 1.2-0.5 1.8-1 0.4-0.6 1.3-1 1.8-1 0.8 0 6.5-2.7 8.6-4.1 0.7-0.6 1.8-1 2.2-1 0.3 0 1.5-0.6 2.6-1.2 1-0.7 2.2-1.2 2.5-1.2 0.7 0 3.9-1.7 7.4-3.9 1.1-0.8 2.4-1.3 2.9-1.3 0.4 0 1.3-0.4 1.9-0.8 0.6-0.4 2.1-1.1 3.3-1.6 2.2-0.9 3.4-1.6 6.8-3.7 0.9-0.5 2.3-1.2 3.2-1.4 1.8-0.6 6.7-2.9 8.8-4.3 0.7-0.5 1.7-0.9 2-0.9 0.5 0 1.4-0.5 2.1-1 0.6-0.6 1.5-1 2-1 0.6 0 5.6-2.5 8.2-4.2 0.9-0.5 2.2-1.1 3.2-1.4 0.9-0.2 1.8-0.7 2-1 0.1-0.4 0.7-0.6 1.2-0.6 0.6 0 2.2-0.8 8.5-4.4 1.2-0.6 2.6-1.3 3.4-1.4 0.7-0.2 1.3-0.4 1.3-0.6 0-0.2 1.2-0.8 2.6-1.3 1.4-0.5 3.2-1.4 4-2 0.7-0.6 1.8-1 2.2-1 0.5 0 1.2-0.5 2-1.1 2.5-2.4 2.6-1.2 2.6 13.4 0 13 0 13.5-1 13.9-0.8 0.3-2.1 1-3.1 1.7-2.3 1.4-7.6 4.7-11.5 6.9-1.5 0.9-3.3 1.9-3.9 2.4-0.7 0.4-4.3 2.7-8 4.9-3.9 2.3-8.8 5.4-11.1 6.8-4.9 3.2-7.3 4.6-12.3 7.6-2 1.2-4.5 2.7-5.7 3.4-1 0.6-3 1.7-4.1 2.5-4.4 2.5-15.4 9.3-19.3 11.9-4.1 2.6-5 3.2-11.6 7-2.2 1.3-4.9 2.9-6.1 3.6-1 0.6-3.7 2.2-6 3.6-4 2.3-10.8 6.6-15.2 9.4-1.1 0.7-4.6 2.8-7.7 4.7-3 1.8-6.4 3.9-7.4 4.7-1.1 0.7-2.1 1.3-2.4 1.3-0.3 0-1.4 0.5-2.3 1.3-9.2 6.3-10.5 6.3-19.8 0-0.9-0.8-1.9-1.3-2.2-1.3-0.3 0-1.4-0.6-2.4-1.3-1-0.8-4.6-3-7.7-4.9-3.3-2-8.5-5.2-11.7-7.2-3.1-2-7.3-4.5-9.1-5.6-5.2-3.1-5.8-3.5-7.7-4.8-1-0.8-2.1-1.3-2.4-1.3-0.3 0-2.1-1.1-4-2.3-2.1-1.2-5.1-3.1-7-4.2-1.8-1.1-5.2-3.3-7.6-4.8-2.4-1.5-6.7-4.2-9.7-6-2.8-1.8-6.1-3.7-7-4.3-0.9-0.6-2.5-1.5-3.6-2.1-1-0.6-3.5-2.1-5.6-3.4-2-1.3-3.8-2.3-4.1-2.3-0.2 0-1.3-0.6-2.3-1.3-2.1-1.6-14.3-9.1-20-12.5-2.1-1.2-4.3-2.7-5.1-3.1-0.7-0.5-2.3-1.5-3.7-2.2-2.8-1.7-3.7-2.2-4.8-2.9-0.4-0.3-1.6-1.1-2.8-1.7-1-0.7-3-1.9-4.3-2.7-1.2-0.8-2.5-1.5-3.1-1.6-1.1-0.3-1.7-25.2-0.6-27.1 0.7-1.3 1.5-1.3 2.7 0z"/>
		<path id="path1" fill-rule="evenodd" class="s1" d="m292.1 19.2l273.7 0.1v351.4h-547.6l-0.2-175.3c-0.1-96.4 0-175.5 0.2-175.8 0.1-0.4 55.2-0.5 273.9-0.4zm-152.4 116.5c-0.9 0.6-0.9 2-0.7 15.7l0.1 14.9 3.9 2.4c2.1 1.3 4.2 2.4 4.6 2.4 0.5 0 1.1 0.5 1.5 1 0.3 0.6 1.2 1.1 2 1.2 0.7 0.2 1.6 0.7 1.9 1.2 0.4 0.6 1 1 1.3 1 0.3 0 1.5 0.6 2.7 1.3 1.1 0.7 4.6 3 7.9 5 7.8 4.8 12.2 7.6 18.2 11.2 2.7 1.7 5.8 3.6 7 4.3 1.2 0.7 3 1.8 4 2.4 4.3 2.5 6.9 4 8.4 4.9 0.4 0.3 1.9 1.1 3.1 1.9 1.2 0.8 2.5 1.6 3 1.8 0.3 0.2 1 0.7 1.6 1.1 3.1 2.1 8.8 5.7 13.9 8.7 3.1 1.8 6.4 3.8 7.1 4.4 3.3 2 6 3.5 6.6 3.5 0.3 0 0.7 0.3 0.9 0.8 0.1 0.4 1.2 0.9 2.1 1.2 1 0.3 1.7 0.7 1.7 1 0 0.3 0.8 0.8 1.7 1.2 1 0.3 2.2 1 2.8 1.6 0.5 0.5 1.3 1 1.8 1 0.4 0 1.2 0.4 1.6 1 0.3 0.6 0.9 1 1.2 1 0.3 0 2.3 1.2 4.6 2.7 4.4 2.9 13.8 8.7 19.1 11.8 1.8 1.1 3.9 2.3 4.6 2.8 0.8 0.4 2.3 1.3 3.3 2 1.2 0.6 3 1.7 4.2 2.5 3.1 1.8 6.1 1.8 9.2 0 1.2-0.8 3-1.9 4.2-2.5 1-0.7 2.5-1.6 3.3-2 0.7-0.5 2.6-1.7 4.3-2.6 4.6-2.6 14.9-9 19.5-12 2.2-1.5 4.2-2.7 4.5-2.7 0.3 0 0.9-0.4 1.2-1 0.4-0.6 1-1 1.6-1 0.5 0 1.3-0.5 2.1-1.2 0.7-0.7 1.6-1.2 1.9-1.2 0.3 0 1.5-0.6 2.6-1.3 1-0.7 2.2-1.5 2.6-1.8 0.6-0.3 1.2-0.7 1.7-0.9 2.7-1.8 4.4-2.8 5.2-3.1 0.7-0.2 9.4-5.5 17.4-10.6 4.5-2.9 11.6-7.4 12.8-8.1 0.5-0.3 1.1-0.7 1.4-0.9 0.3-0.1 1.6-0.8 2.8-1.6 2.4-1.3 5.4-3.1 7.8-4.5 0.7-0.5 4-2.4 7.3-4.4 7.3-4.4 17.7-10.9 25.9-16.2 0.9-0.5 2.1-1.2 2.8-1.4 0.8-0.3 1.5-0.9 1.6-1.3 0.2-0.4 0.8-0.8 1.2-0.8 0.3 0 1.7-0.6 2.7-1.3 1.2-0.7 3.9-2.3 6-3.6l3.9-2.2 0.1-15.1c0.3-17.1 0-17.8-3.9-15.7-0.9 0.5-2.4 1.1-3.4 1.4-1 0.3-2.2 0.9-2.7 1.3-0.4 0.3-1.8 1-3 1.4-1.2 0.4-2.3 1-2.5 1.4-0.3 0.3-1.3 0.9-2.5 1.3-1.2 0.3-2.1 0.8-2.1 1 0 0.1-1.1 0.7-2.2 1.1-2.7 1-7.3 3.3-8.4 4.4-0.4 0.4-1.2 0.7-1.6 0.7-0.6 0-1.5 0.4-2.3 0.9-0.7 0.5-2 1.1-2.8 1.3-1.5 0.5-4.9 2.3-8.5 4.4-0.9 0.6-2.1 1-2.5 1-0.5 0-1.1 0.3-1.5 0.7-0.5 0.3-1.9 1-3.1 1.5-2.3 1-3.8 1.9-7 3.9-0.9 0.6-2.1 1.1-2.6 1.1-0.9 0-2.5 0.7-7.9 3.7-1 0.6-2.6 1.4-3.7 1.8-1 0.4-1.9 1-1.9 1.2 0 0.2-0.8 0.5-1.7 0.7-0.9 0.2-2.2 0.8-2.8 1.2-0.6 0.4-2.1 1.1-3.3 1.6-1.2 0.5-2.4 1.2-2.8 1.7-0.5 0.4-1.3 0.8-1.9 0.8-0.6 0-1.5 0.4-2 0.8-0.6 0.5-1.8 1.2-2.7 1.5-2 0.8-6.4 2.9-8.6 4.3-0.9 0.6-2.1 0.9-2.5 0.9-0.5 0-1.2 0.5-1.8 1-0.5 0.6-1.4 1-1.8 1-0.5 0-1.9 0.6-3.1 1.4-1.4 0.8-2.7 1.4-3 1.4-0.5 0-1.4 0.5-2.1 1.2-0.7 0.7-1.8 1.2-2.2 1.2-0.6 0-1.7 0.4-2.3 0.9-0.6 0.5-1.9 1.2-3 1.4-0.8 0.3-2.5 1.1-3.4 1.7-0.9 0.7-2.1 1.2-2.5 1.2-0.3 0-1.2 0.4-1.6 1-0.6 0.5-1.7 1.1-2.3 1.2-0.7 0.2-1.9 0.7-2.8 1.2-0.8 0.5-2.4 1.2-3.4 1.6-1.1 0.3-2.3 0.9-2.6 1.4-0.3 0.3-1.3 0.8-2.4 1-0.9 0.2-1.7 0.8-2 1.2-0.9 2.1-11.7 2.1-12.6 0-0.3-0.4-1.3-1-2.3-1.3-1.1-0.3-2.1-0.7-2.3-1.1-0.3-0.3-1.2-0.8-2.2-1.2-1.1-0.4-2.4-1-3.1-1.5-0.6-0.4-2-0.9-2.9-1.2-0.9-0.2-2.1-0.8-2.7-1.3-0.4-0.6-1.3-1-1.6-1-0.4 0-1.5-0.5-2.4-1.2-0.9-0.7-1.9-1.2-2.2-1.2-0.3 0-1.6-0.6-3-1.4-1.3-0.8-3-1.4-3.6-1.4-0.7 0-1.5-0.4-1.9-1-0.3-0.5-1.3-1.2-2.2-1.4-0.9-0.3-1.8-0.7-2.1-1-0.2-0.3-1.4-1-2.9-1.4-1.3-0.5-2.8-1.2-3.2-1.7-0.5-0.4-1.2-0.7-1.7-0.7-0.6 0-1.8-0.4-2.8-1.1-3.6-2.2-7.1-4-8.5-4.2-0.7-0.2-1.8-0.7-2.4-1.2-0.4-0.6-1.3-1-1.6-1-0.5 0-1.8-0.6-3-1.3-5.2-3.2-6.5-3.9-8.2-4.1-0.9-0.1-1.9-0.6-2.1-1-0.1-0.4-0.9-0.9-1.6-1-0.8-0.2-1.9-0.7-2.8-1.3-2.3-1.5-7.8-4-8.7-4-0.4 0-1.3-0.4-1.8-1-0.6-0.5-1.8-1.1-2.7-1.4-1-0.3-1.7-0.6-1.7-0.8 0-0.4-6.6-3.7-8.5-4.1-0.9-0.2-2-0.8-2.6-1.3-0.4-0.6-1.2-1-1.5-1-0.4 0-1.9-0.7-3.4-1.6-1.5-0.9-3-1.6-3.1-1.6-0.3 0-1.2-0.5-2.1-1-0.7-0.5-1.9-1-2.4-1-0.6 0-1.9-0.6-3-1.3-3.5-2.4-6.4-3.8-7.3-3.8-0.4 0-1.3-0.4-2-1-0.8-0.5-1.7-1-2.1-1-0.5 0-1.8-0.6-2.9-1.4-1.2-0.8-2.3-1.4-2.5-1.4-0.3 0-1.5-0.5-2.5-1.2-1.1-0.6-2.6-1.3-3.3-1.4-0.6-0.2-1.9-0.7-2.8-1.3-2.1-1.1-2.4-1.1-3.8-0.1z"/>
		<path id="path2" fill-rule="evenodd" class="s2" d="m140.9 136.5c0 0 0.9 0.2 1.7 0.5l1.6 0.6-1.5 0.4-1.5 0.5 0.2 13.5c0 7.5 0 13.2-0.3 12.9-0.2-0.4-0.5-7-0.5-14.6 0-7.5 0.2-13.8 0.3-13.8zm302 0c0.6 0 0.5 27.4 0 28.4-0.3 0.3-0.3-5.4-0.3-12.9l0.2-13.5-3-0.9 1.3-0.5c0.8-0.3 1.5-0.5 1.8-0.6zm-4 1.2c0.3 0-0.6 0.5-1.8 1.2-2.8 1.5-3.6 1.6-0.9 0 1.2-0.6 2.4-1.2 2.7-1.2zm-5.2 2.4c0.4 0 0 0.4-2.4 1.6l-2.5 1.3 2.3-1.5c1.2-0.8 2.4-1.4 2.6-1.4zm-280.3 1.6c2.9 1.6 3 1.7 1.8 1.3-0.6-0.2-1.8-0.8-2.3-1.4-1.2-0.9-1.2-0.9 0.5 0.1zm6.8 3.2c0.4 0 5.3 2.7 4.7 2.7-0.1 0-1.5-0.6-2.8-1.4-1.4-0.7-2.2-1.3-1.9-1.3zm259.2 2.3c0.1 0 0.1 0.1-0.2 0.3-0.3 0.2-1.3 0.8-2.4 1.3-1.7 0.9-1.7 0.9 0.2-0.3 1-0.7 2.1-1.3 2.4-1.3zm-247.9 3.2c0.4 0 0.9 0.2 1 0.4 0.3 0.2 1.4 0.9 2.6 1.4 1.1 0.5 3.7 1.8 5.5 2.8 1.8 1 4.1 2.1 5.3 2.6 1.2 0.4 2.9 1.3 3.9 1.9 1.3 0.7 1.3 0.8 0.3 0.3-0.7-0.3-2.2-0.9-3.1-1.3-1.1-0.4-2.9-1.2-4.1-1.9-1.1-0.7-3.4-1.8-4.9-2.5-1.3-0.7-3.5-1.9-4.9-2.5-1.2-0.7-1.9-1.2-1.6-1.2zm241.3 0c0.6 0-1.3 1.3-2.5 1.7-0.8 0.2-0.5 0 0.6-0.6 1-0.6 1.9-1.1 1.9-1.1zm-5.3 2.4c0.7 0-1.8 1.5-5 3-3.4 1.8-2.3 1 2.6-1.7 1.2-0.7 2.4-1.3 2.4-1.3zm-14.3 7.2c0.6 0-1.5 1.3-3.2 2.1-1.3 0.6-1.2 0.4 0.6-0.6 1.4-0.8 2.6-1.5 2.6-1.5zm-197.9 2.2c2.1 1 3.9 2 4 2.2 0.3 0.3-1.2-0.4-3.1-1.4-2.1-1-3.9-2-4-2.2-0.3-0.3 1.2 0.4 3.1 1.4zm189.7 2.2c0.1 0-0.2 0.3-0.9 0.5-0.6 0.2-2 0.8-3 1.4q-1.8 1-0.9 0.2c0.4-0.4 1.6-1.1 2.7-1.5 1-0.3 1.9-0.6 2.1-0.6zm-239.6 3.8c1.9 1.2 3.6 2.3 3.6 2.4q0 0.2-0.3 0.1c-0.2-0.1-1.7-1.1-3.6-2.2-1.8-1-3.3-2-3.3-2.2 0-0.1 1.7 0.7 3.6 1.9zm296.8-2c0.3 0.1-1.4 1.3-3.3 2.2-1.5 0.7-1.3 0.6 0.6-0.7 1.3-0.9 2.5-1.6 2.7-1.5zm-236.2 1.1c1.2 0.5 2.6 1.2 3.3 1.8 0.8 0.5 0.2 0.3-1.6-0.6-1.7-0.8-3.2-1.6-3.3-1.7-0.1-0.1 0.6 0.1 1.6 0.5zm172.9-0.2c0.6 0-3.5 2.3-5 2.9-1.5 0.5-1.2 0.3 2-1.5 1.5-0.7 2.8-1.4 3-1.4zm55.5 3.9c0 0.2-1.5 1.2-3.4 2.3l-3.4 1.9 3.2-2.2c3.8-2.5 3.6-2.4 3.6-2zm-282.7 1.2c1 0.5 2.5 1.3 3.2 2 1.4 0.9-2.5-1.1-4.4-2.4-0.3-0.2 0.1-0.1 1.2 0.4zm215.4 0.5c0.6 0-2.8 2.1-3.9 2.5-0.6 0.2-0.1-0.2 1.2-1 1.3-0.8 2.5-1.5 2.7-1.5zm-145.6 2.2c1.2 0.5 2.6 1.2 3.3 1.8 0.8 0.5 0.2 0.3-1.6-0.6-1.7-0.8-3.2-1.6-3.3-1.7-0.2-0.1 0.6 0.1 1.6 0.5zm140.2 0.6c0.5 0-3 2-5.5 3.1l-1.9 1 1.9-1.2c1.1-0.6 2.7-1.5 3.6-2 0.9-0.5 1.8-0.9 1.9-0.9zm-187.1 10.7c1.8 1.1 0.5 0.4-2.8-1.6-3.5-2-7.2-4.2-8.2-4.8-1.2-0.7-2.1-1.3-2.1-1.5 0-0.3 6.1 3.4 13.1 7.9zm247.9-8c0.2 0-2.2 1.6-5.1 3.4-2.9 1.8-6.7 4.1-8.3 5.1-1.8 1-3.3 1.9-3.4 1.9-0.3 0 2.5-1.8 6.2-4.1 3.6-2.2 7.5-4.5 8.5-5.2 0.9-0.7 2-1.2 2.1-1.1zm-70.9 2.7c-0.9 0.6-2.2 1.3-3.3 1.6-1 0.4-1.3 0.4-0.6 0.1 0.6-0.3 2-1 3-1.6 2.2-1.4 2.7-1.4 0.9-0.1zm-117.7 0.2c2.8 1.6 3 1.7 1.8 1.3-0.6-0.2-1.8-0.8-2.4-1.4-1.2-0.9-1.2-0.9 0.6 0.1zm112.3 2c0.5 0-3 1.8-5.9 3.3-1.4 0.7-3.3 1.6-4.4 2.1l-1.9 1 1.9-1.2c1.1-0.6 3-1.6 4.4-2.3 1.3-0.7 3.1-1.6 4-2 0.9-0.5 1.8-0.9 1.9-0.9zm-98.6 4.7c0.6 0.2 1.9 0.9 3 1.4 1 0.6 1.2 0.9 0.6 0.6-0.6-0.2-2-0.9-3-1.4-1-0.6-1.2-0.9-0.6-0.6zm-67.3 1.9c0.6 0.2 2.1 1.1 3.2 2 2 1.3-0.3 0.2-4.1-2.2-0.2-0.1 0.3 0 0.9 0.2zm153.4-0.1c0 0-0.9 0.5-2.1 0.9-1.2 0.5-2.1 0.8-2.1 0.7 0-0.1 0.9-0.6 2-1 2.1-0.8 2.2-0.9 2.2-0.6zm69.1 0.6c0.6 0-3.8 2.9-5 3.3-0.6 0.2 0.1-0.4 1.8-1.4 1.6-1 3.1-1.9 3.2-1.9zm-76.2 2.4c0.4 0-3.8 2.4-6.1 3.5l-2 1 2-1.2c1-0.6 2.8-1.6 3.8-2.2 1.1-0.6 2.1-1.1 2.3-1.1zm-138.7 1.6c1.2 0.8 2.2 1.5 2.2 1.5 0 0.4-2.7-1.2-3.4-2-0.6-0.5-0.2-0.4 1.2 0.5zm207 0.8c0.6 0-0.4 0.6-4.1 2.8l-4.3 2.5 4.1-2.6c2.3-1.5 4.2-2.7 4.3-2.7zm-198.5 4.4c0.6 0.5-0.3 0.1-2.3-1-1.9-1.1-3.4-2-3.4-2.1 0-0.3 4.5 2.2 5.7 3.1zm121.8-2.2c0 0.1-0.7 0.5-1.8 0.8-2.2 0.8-2.4 0.4-0.1-0.4 1.9-0.7 1.9-0.7 1.9-0.4zm-117.2 5c1.9 1.2 3.4 2.1 3.4 2.2 0 0.3-5.1-2.7-6-3.6-0.4-0.4 0.8 0.2 2.6 1.4zm106.3 0c0.5 0 0.3 0.1-2.2 1.4-1.3 0.6-1.3 0.5 0.2-0.3 0.9-0.6 1.7-1.1 2-1.1zm75.9 0c0.4 0-2.3 1.7-4.5 2.8-1.6 0.8-1.3 0.6 0.9-0.8 1.8-1 3.4-2 3.6-2zm-104 1.2c2.8 1.5 3 1.6 1.8 1.2-0.6-0.2-1.8-0.8-2.4-1.3-1.2-0.9-1.2-0.9 0.6 0.1zm-67.6 5.1c3.7 2.3 8.6 5.4 11 7 2.5 1.7 3 2 0.9 0.8-6.3-3.8-10.5-6.4-14.6-9.2-2.3-1.5-1.1-0.8 2.7 1.4zm164.4-2c0.3 0-7.1 4.8-14 8.9-6.8 4.1-3.7 2 5.7-3.9 4.5-2.7 8.2-5 8.3-5zm-87.7 1.2c0.7 0.2 1.3 0.6 1.3 0.8 0 0.5 4.6 0.5 4.9 0q0.3-0.3 0.2 0.1c-0.3 1.1-4.5 0.8-6.1-0.3-1.5-1-1.5-1.1-0.3-0.6zm-60.5 10.8c0.4 0.4 3.1 2.1 6.1 3.8 2.8 1.6 6.7 4 8.6 5.2 2.7 1.8 2.9 2 0.6 0.7-1.5-0.8-2.9-1.7-3.2-2-0.3-0.3-3.2-1.9-6.3-3.7-3.1-1.8-5.8-3.6-6.1-3.9-0.5-0.6-0.5-0.6 0.3-0.1zm122 4.4c-2.4 1.4-4.6 2.7-4.9 2.7-0.3 0 1.6-1.3 4.2-2.7 5.9-3.6 6.5-3.6 0.7 0zm-7.7 4.4c0 0.1-0.9 0.7-2 1.3l-1.9 1.2 1.8-1.3c1.6-1.2 2.1-1.5 2.1-1.2zm-93.8 3.6c5.4 3.4 13.3 8.3 16.3 10.2 4.3 2.5 10.4 6.5 7.7 5-1.2-0.7-3.7-2.2-5.6-3.4-2-1.2-7.5-4.6-12.1-7.5-4.6-2.9-8.5-5.4-8.5-5.5 0-0.2 1.1 0.4 2.2 1.2zm86.6 0.7c0.3 0-4.5 3.1-13.3 8.4-2.9 1.8-4.7 2.7-3.7 2.1 1.1-0.7 5.2-3.3 9.3-5.9 4.1-2.5 7.6-4.6 7.7-4.6zm-22.2 13.5c0.5 0-0.1 0.4-3.1 2.3-1.8 1.2-3.3 2-3.3 1.9 0-0.2 1.3-1.2 3.1-2.2 1.8-1.1 3.2-2 3.3-2zm-35 3.9q2.1 1.4 0.7 0.8c-0.9-0.3-1.7-1-2.3-1.5-1.2-1.2-0.6-1 1.6 0.7zm27.9 0.5c0.6 0-0.5 0.6-4.2 2.8l-4.3 2.5 4.1-2.6c2.3-1.5 4.2-2.7 4.4-2.7zm-22.2 2.9c1.7 1.1 3.2 2.1 3.2 2.2 0 0.1-1.5-0.7-3.2-1.8-1.8-1-3.3-2-3.3-2.1 0-0.2 1.5 0.6 3.3 1.7zm3.7 2.1l1.6 1.1c1.1 0.7 2.3 1.1 3.3 1.1 1.2 0 2.2-0.4 3.3-1.1l1.6-1.1-1 1.1c-0.6 0.6-1.7 1.2-2.4 1.3-2.2 0.4-4.2-0.1-5.4-1.3z"/>
		<path id="path3" fill-rule="evenodd" class="s3" d="m565.5 18.8l1.5 0.5v351.4l-1.5 0.5c-2.2 0.7-544.8 0.7-547 0l-1.5-0.5v-351.4l1.5-0.5c2.2-0.7 544.8-0.7 547 0zm0.3 0.5l-273.7-0.1c-218.7-0.1-273.8 0-273.9 0.4-0.2 0.3-0.3 79.4-0.2 175.8l0.2 175.3h547.6zm-422.3 116.5c0.9 0.6 2.2 1.1 2.8 1.3 0.7 0.1 2.2 0.8 3.3 1.4 1 0.7 2.2 1.2 2.5 1.2 0.2 0 1.3 0.6 2.5 1.4 1.1 0.8 2.4 1.4 2.9 1.4 0.4 0 1.3 0.5 2.1 0.9 0.7 0.6 1.6 1 2 1 0.9 0 3.8 1.5 7.3 3.9 1.1 0.7 2.4 1.3 3 1.3 0.5 0 1.7 0.5 2.4 1 0.9 0.6 1.8 1 2.1 1 0.1 0 1.6 0.7 3.1 1.6 1.5 0.9 3 1.6 3.4 1.6 0.3 0 1.1 0.4 1.5 1 0.6 0.5 1.7 1.1 2.6 1.3 1.9 0.4 8.5 3.7 8.5 4.1 0 0.2 0.7 0.5 1.7 0.8 0.9 0.3 2.1 0.8 2.7 1.3 0.5 0.6 1.4 1 1.8 1 0.9 0 6.4 2.6 8.7 4.1 0.7 0.6 2 1.1 2.8 1.3 0.7 0.1 1.5 0.6 1.6 1 0.2 0.4 1.2 0.9 2.1 1 1.7 0.2 3 0.9 8.2 4.1 1.2 0.7 2.5 1.3 3 1.3 0.3 0 1.2 0.4 1.6 1 0.6 0.5 1.7 1 2.4 1.2 1.4 0.2 4.9 2 8.5 4.1 1 0.7 2.2 1.2 2.8 1.2 0.5 0 1.2 0.3 1.7 0.7 0.4 0.5 1.9 1.2 3.2 1.7 1.5 0.4 2.7 1.1 2.9 1.4 0.3 0.3 1.2 0.7 2.1 1 0.9 0.2 1.9 0.9 2.2 1.4 0.4 0.6 1.2 1 1.9 1 0.6 0 2.3 0.6 3.6 1.4 1.4 0.8 2.7 1.4 3 1.4 0.3 0 1.3 0.5 2.2 1.2 0.9 0.7 2 1.2 2.4 1.2 0.3 0 1.2 0.4 1.6 1 0.6 0.5 1.8 1.1 2.7 1.3 0.9 0.3 2.3 0.8 2.9 1.2 0.7 0.5 2 1 3.1 1.4 1 0.4 1.9 0.9 2.2 1.2 0.2 0.4 1.2 0.9 2.3 1.2 1 0.3 2 0.9 2.3 1.3 0.9 2.1 11.7 2.1 12.6 0 0.3-0.4 1.1-1 2-1.2 1.1-0.2 2.1-0.7 2.4-1.1 0.3-0.5 1.5-1.1 2.6-1.4 1-0.4 2.5-1 3.4-1.5 0.7-0.5 2.1-1 2.8-1.2 0.6-0.1 1.7-0.7 2.3-1.2 0.4-0.6 1.3-1 1.6-1 0.4 0 1.6-0.5 2.5-1.2 0.9-0.6 2.6-1.4 3.4-1.7 1.1-0.2 2.4-0.9 3-1.4 0.6-0.5 1.7-0.9 2.3-0.9 0.4 0 1.5-0.5 2.2-1.2 0.7-0.7 1.6-1.2 2.1-1.2 0.3 0 1.6-0.6 3-1.4 1.2-0.8 2.6-1.4 3.1-1.4 0.4 0 1.3-0.4 1.8-1 0.6-0.5 1.3-1 1.8-1 0.4 0 1.6-0.4 2.5-1 2.2-1.4 6.6-3.4 8.6-4.2 0.9-0.3 2.1-1 2.7-1.5 0.5-0.4 1.4-0.8 2-0.8 0.6 0 1.4-0.4 1.9-0.8 0.4-0.5 1.6-1.2 2.8-1.7 1.2-0.5 2.7-1.2 3.3-1.6 0.6-0.4 1.9-1 2.8-1.2 0.9-0.2 1.7-0.5 1.7-0.7 0-0.2 0.9-0.8 1.9-1.2 1.1-0.4 2.7-1.2 3.7-1.8 5.4-3 7-3.8 7.9-3.8 0.5 0 1.7-0.5 2.6-1.1 3.2-1.9 4.7-2.8 7-3.8 1.2-0.5 2.6-1.2 3.1-1.5 0.4-0.4 1-0.7 1.5-0.7 0.4 0 1.6-0.4 2.5-1 3.6-2.1 7-3.9 8.5-4.4 0.8-0.2 2.1-0.8 2.8-1.3 0.8-0.5 1.7-0.9 2.3-0.9 0.4 0 1.2-0.3 1.6-0.7 1.1-1.1 5.7-3.5 8.4-4.5 1.1-0.4 2.2-1 2.2-1.1 0-0.1 0.9-0.6 2.1-0.9 1.2-0.4 2.2-1 2.5-1.3 0.2-0.4 1.3-1 2.5-1.4 1.2-0.4 2.6-1.1 3-1.4 0.5-0.4 1.7-1 2.7-1.3 1-0.3 2.5-0.9 3.4-1.4 3.9-2.1 4.2-1.4 3.9 15.7l-0.1 15.1-3.9 2.2c-2.1 1.3-4.8 2.9-6 3.6-1 0.7-2.4 1.3-2.7 1.3-0.4 0-1 0.4-1.2 0.8-0.1 0.4-0.8 1-1.6 1.3-0.7 0.2-2.1 0.9-2.8 1.4-8.2 5.2-18.6 11.8-25.9 16.2-3.3 2-6.6 3.9-7.3 4.4-2.4 1.4-5.4 3.2-7.8 4.4-1.2 0.8-2.5 1.5-2.8 1.7-0.3 0.2-0.9 0.6-1.4 0.9-1.2 0.7-8.3 5.2-12.8 8.1-8 5.1-16.7 10.3-17.4 10.6-0.8 0.3-2.5 1.3-5.2 3.1-0.5 0.2-1.1 0.6-1.7 0.9-0.4 0.3-1.6 1.1-2.6 1.8-1.1 0.7-2.3 1.3-2.6 1.3-0.3 0-1.2 0.5-1.9 1.2-0.8 0.7-1.6 1.2-2.1 1.2-0.6 0-1.2 0.5-1.6 1-0.3 0.6-0.9 1-1.2 1-0.3 0-2.3 1.2-4.5 2.7-4.6 2.9-14.9 9.4-19.5 12-1.7 0.9-3.6 2.1-4.3 2.6-0.8 0.4-2.3 1.3-3.3 2-1.2 0.6-3 1.7-4.2 2.5-3.1 1.8-6.1 1.8-9.2 0-1.2-0.8-3-1.9-4.2-2.5-1-0.7-2.5-1.6-3.3-2-0.7-0.5-2.8-1.7-4.6-2.8-5.3-3.1-14.7-9-19.1-11.8-2.3-1.5-4.3-2.7-4.6-2.7-0.3 0-0.9-0.4-1.2-1-0.4-0.5-1.2-1-1.6-1-0.5 0-1.3-0.5-1.9-1-0.5-0.6-1.7-1.3-2.7-1.6-0.9-0.4-1.7-0.9-1.7-1.2 0-0.3-0.7-0.7-1.7-1-0.9-0.3-2-0.8-2.1-1.2-0.2-0.5-0.6-0.8-0.9-0.8-0.6 0-3.3-1.5-6.6-3.6-0.7-0.6-4-2.5-7.1-4.3-5.1-3-10.8-6.6-13.9-8.7-0.6-0.4-1.3-0.9-1.6-1.1-0.5-0.2-1.8-1-3-1.8-1.2-0.8-2.7-1.6-3.1-1.9-1.5-1-4.1-2.5-8.4-4.9-1-0.6-2.8-1.7-4-2.4-1.2-0.7-4.3-2.6-7-4.3-6-3.6-10.4-6.4-18.2-11.2-3.3-2-6.8-4.3-7.9-5-1.2-0.7-2.4-1.3-2.7-1.3-0.3 0-0.9-0.4-1.3-1-0.3-0.5-1.2-1-1.9-1.2-0.8-0.1-1.7-0.6-2-1.2-0.4-0.5-1-1-1.5-1-0.4 0-2.5-1.1-4.6-2.4l-3.9-2.4-0.1-14.9c-0.2-13.7-0.2-15.1 0.7-15.7 1.4-1 1.7-1 3.8 0.1zm-2.9 14.3c0 15.8 0 15.8 4.7 18.5 1.7 1 4.1 2.4 5.2 3.1 1 0.7 3.7 2.3 5.9 3.6 2.3 1.3 4.6 2.8 5.4 3.2 1.2 0.9 3.7 2.4 16.7 10.3 3.6 2.2 7.3 4.5 8.3 5.2 1.1 0.7 3 1.8 4.3 2.6 5.7 3.4 13.3 7.9 17.5 10.5 2.5 1.5 7.4 4.6 11 6.8 3.6 2.2 7 4.4 7.7 4.8 0.6 0.5 2.7 1.7 4.5 2.7 5.1 2.9 12.5 7.5 22.1 13.4 4.7 3 11.3 6.9 14.6 8.9 3.1 2 6.7 4.1 7.7 4.8 1.1 0.7 3.7 2.3 6 3.6 2.2 1.3 5 3 6.1 3.7 2.4 1.6 4.9 1.7 6.8 0.4 0.8-0.6 3.6-2.3 6.4-3.9 5.2-3.1 9-5.3 15.5-9.4 2.1-1.4 6.1-3.8 9-5.5 2.8-1.7 6.8-4.2 8.9-5.6 2.1-1.3 5.8-3.5 8.1-4.8 2.2-1.3 4.7-2.8 5.6-3.4 0.9-0.5 4.2-2.6 7.5-4.5 5.3-3.2 18.4-11.4 27.1-16.7 1.8-1 5.3-3.2 8-4.8 2.7-1.5 5.4-3.2 6-3.6 0.7-0.4 4.2-2.6 7.7-4.8 8.4-5.1 15.8-9.6 17.3-10.7 0.8-0.4 3.1-1.9 5.4-3.2 2.2-1.3 4.9-2.9 6.1-3.6 1-0.7 3.3-2.1 5-3.1 4.7-2.7 4.7-2.7 4.7-18.5 0-12.4-0.3-14.6-1.5-13.2-0.2 0.2-0.9 0.4-1.8 0.6-0.9 0.1-2.8 0.9-4.3 1.6-1.5 0.8-3.9 2-5.2 2.6-1.4 0.7-3.5 1.7-4.8 2.3-5.8 2.9-7 3.5-9.1 4.6-1.2 0.6-3.9 2-6.1 3-2.2 1-5.5 2.6-7.5 3.6-3.8 2-5.9 3-8.3 4.2-1.6 0.7-6.1 3-8.9 4.3-0.6 0.3-2 1-3 1.4-1.1 0.4-3 1.4-4.5 2.2-1.5 0.8-3.7 1.9-5.1 2.5-1.3 0.6-2.5 1.2-2.8 1.4-0.1 0.2-1.2 0.8-2.4 1.2-1.2 0.5-3.7 1.7-5.6 2.7-2 1-4.2 2.1-4.9 2.5-0.9 0.4-2.7 1.3-4.2 2.1-1.5 0.8-4 2-5.7 2.7-1.6 0.7-4 1.9-5.3 2.6q-5 2.5-8.7 4.2c-1.2 0.5-2.8 1.3-3.6 1.8-0.9 0.4-2.2 1.2-3.2 1.6-1.1 0.4-3 1.4-4.5 2.2-1.5 0.8-3.4 1.7-4.5 2.1-0.9 0.4-2.4 1.2-3.4 1.8-0.9 0.6-1.9 1.1-2.2 1.1-0.3 0-1.4 0.5-2.3 1-0.9 0.6-2.4 1.3-3.4 1.7-1 0.4-3 1.4-4.5 2.2-1.5 0.8-3.7 1.9-5 2.5-1.4 0.5-2.6 1.2-2.6 1.4-0.3 0.4-4.9 0.4-4.9-0.1 0-0.2-1-0.7-2.2-1.2-1.2-0.4-2.7-1.1-3.3-1.5-0.4-0.4-2.4-1.3-4-2.1-1.7-0.8-4.2-2-5.4-2.6-1.3-0.7-3-1.4-3.6-1.5-0.6-0.1-1.1-0.4-1.1-0.6 0-0.2-0.9-0.8-2-1.3-6.5-3-10.1-4.7-16.4-8-1.9-1-4.1-2-5-2.3-0.8-0.3-2.3-1-3.5-1.6-4.6-2.5-7.9-4.1-11.9-6-0.9-0.4-2.7-1.3-4.2-2.1-1.4-0.8-4.1-2.1-5.9-2.9-4.3-2-6.4-3.1-9.5-4.7-1.5-0.8-3.8-1.9-5.1-2.5-1.4-0.6-2.5-1.2-2.8-1.4-0.2-0.2-1.2-0.8-2.4-1.2-1.2-0.5-4.8-2.2-8.1-3.8-3.1-1.6-6.5-3.4-7.6-3.8-1-0.4-3.5-1.6-5.3-2.6-6.1-3.2-7.8-4-9-4.4-0.7-0.2-1.9-0.8-2.8-1.3-1.3-0.8-5.8-3-8-4.1-2.1-0.9-11.4-5.4-12.9-6.3-0.9-0.5-2.3-1.1-3.4-1.2-1-0.1-1.9-0.4-2.1-0.6-1.2-1.4-1.5 0.7-1.5 13.2z"/>
		<path id="path4" fill-rule="evenodd" class="s4" d="m567.3 18.3c2 1.3 2 352.1 0 353.4-1.9 1.3-548.7 1.3-550.6 0-1.2-0.8-1.2-1.3-1.2-176.7 0-175.4 0-175.9 1.2-176.7 1.9-1.3 548.7-1.3 550.6 0zm-549.9 0.5c-1 0.7-1 351.7 0 352.4 1.1 0.7 548.1 0.7 549.2 0 1-0.7 1-351.7 0-352.4-1.1-0.7-548.1-0.7-549.2 0zm128.9 119.6c0.7 0.4 2.5 1.4 4 2.1 1.7 0.8 3.9 1.9 5.1 2.5 2.7 1.4 5.5 2.6 9.4 4.4 1.5 0.7 3 1.5 3.2 1.7 0.2 0.2 1.4 0.9 2.7 1.4 3.3 1.5 5.5 2.6 9.6 4.7 1.9 1 4.4 2.3 5.6 2.8 3 1.3 5.7 2.6 10.5 5 2.2 1.1 6.4 3.1 9.3 4.6 3.2 1.4 6.4 3.1 7.6 3.7 2.1 1.1 5.8 2.9 10.8 5.3 4.7 2.3 7.1 3.5 9.1 4.5 1 0.6 2.8 1.4 3.8 1.8 1.1 0.3 2 0.8 2 1 0 0.2 0.9 0.6 2 1 1.1 0.5 2.6 1.1 3.2 1.5 0.6 0.3 2.5 1.3 4.3 2.2 3.3 1.5 5.5 2.6 10.1 5 1.4 0.7 3.8 1.8 5.4 2.6 1.8 0.8 4.2 1.9 5.4 2.6 1.3 0.7 3.4 1.7 4.7 2.4 1.4 0.7 3.3 1.7 4.3 2.2 1.1 0.5 2.9 1.3 3.9 1.7 1.1 0.3 2 0.8 2 1 0 0.2 1 0.7 2.2 1.2 1.2 0.5 2.4 1.1 2.7 1.4 0.6 0.8 5 0.8 5.6 0.1 0.3-0.3 1.5-1.1 2.9-1.7 2.6-1.2 4.4-2 9.3-4.5 2-1 4.4-2.2 5.4-2.6 1.1-0.4 2.4-1.1 3-1.4 0.4-0.3 2.4-1.2 4-2 1.8-0.8 4.2-2 5.4-2.7 1.2-0.7 2.5-1.3 2.8-1.3 0.3 0 0.9-0.3 1.3-0.6 0.5-0.4 2.3-1.3 3.9-2 1.7-0.8 4-1.9 5.4-2.6q4.9-2.5 8.6-4.1c1.2-0.5 3.2-1.5 4.5-2.2 1.3-0.7 3.4-1.8 4.8-2.4 5-2.5 7-3.5 9.5-4.9 1.5-0.8 3.1-1.6 3.9-1.7 0.6-0.1 1.2-0.4 1.2-0.6 0-0.2 1-0.8 2.2-1.2 1.2-0.5 4-1.8 6.3-2.9 2-1.2 5.5-2.7 7.3-3.6 1.9-0.9 4.4-2.1 5.6-2.8 1.4-0.7 3.1-1.6 4.3-2.1 4.2-2 8.5-4.2 10-5.1 0.9-0.5 2.3-1.2 3.3-1.6 1.8-0.6 3.6-1.5 9.5-4.6 3.3-1.7 4.8-2.4 9.3-4.5 1.2-0.5 3.5-1.7 5.3-2.6 6.1-3 5.8-3 7.5-2.5l1.5 0.5v12.6c0 16.1 0.9 14.3-11.2 21.4-2.1 1.3-4.8 2.9-5.8 3.6-1.1 0.7-2.4 1.5-3 1.8-0.7 0.4-3.6 2.1-6.6 4-2.9 1.8-7.3 4.4-9.5 5.9-9.1 5.7-11.3 7-16.1 9.8-2.5 1.5-5.5 3.3-6.2 3.8-0.9 0.6-4.4 2.5-7.5 4.5-6.2 3.8-13.4 8.2-18.8 11.6-1.7 1.1-5.5 3.3-8 4.9-2.7 1.4-5.7 3.2-6.7 3.9-0.9 0.6-4.2 2.6-7.3 4.5-5.4 3.2-9.2 5.6-19.4 11.9-5.3 3.3-13.2 8.1-17.5 10.6-1.8 1.1-3.8 2.2-4.4 2.7-1.6 1-4.1 0.9-6.2-0.4-3.9-2.4-12.5-7.7-15.7-9.5-1.8-1-3.5-2.1-3.8-2.4-0.3-0.2-2.3-1.3-4.2-2.5-2-1.2-5.8-3.6-8.7-5.4-2.8-1.7-7.4-4.5-10.1-6.2-2.8-1.6-5.5-3.3-5.9-3.6-0.5-0.4-3.2-2-6-3.6-2.8-1.6-5.7-3.3-6.3-3.7-1.2-0.7-8.6-5.3-19.3-12-2.4-1.5-5.7-3.4-7.2-4.3-1.5-0.9-4.2-2.5-5.9-3.6-3.2-1.8-13.4-8.1-15.5-9.4-0.5-0.3-4.5-2.8-9-5.5-4.4-2.7-8.5-5.2-8.9-5.6-0.6-0.3-3-1.8-5.4-3.2-2.4-1.4-5.9-3.5-7.7-4.7-1.8-1.1-4-2.4-4.9-2.9-2.6-1.3-2.9-2.8-2.9-16.4 0-11.5 0.2-12.6 1.1-13q2.2-0.9 4 0.3zm-3.1 15.2c0.1 11 0.3 12.9 1 13 0.5 0.1 1.9 0.9 3.1 1.7 1.2 0.8 3.2 1.9 4.4 2.6 1 0.7 2.3 1.4 2.8 1.7 1 0.7 1.8 1.2 4.8 2.9 1.3 0.8 2.9 1.8 3.7 2.2 0.6 0.5 3 1.9 5 3.2 5.7 3.4 17.8 10.9 20 12.4 1.1 0.7 2.1 1.3 2.4 1.3 0.1 0 2.1 1.1 4 2.3 2 1.3 4.5 2.9 5.5 3.5 1.1 0.6 2.7 1.6 3.8 2.1 0.8 0.6 4 2.4 7 4.2 2.9 1.8 7.3 4.5 9.6 6 2.4 1.6 5.9 3.7 7.6 4.8 1.8 1.1 5 3 6.9 4.3 1.9 1.3 3.7 2.2 4 2.2 0.3 0 1.4 0.6 2.4 1.3 1.9 1.4 2.5 1.7 7.9 4.9 1.8 1 5.8 3.5 8.9 5.6 3.2 2 8.4 5.2 11.7 7.1 3.2 2 6.8 4.2 7.8 4.9 1.1 0.7 2.1 1.3 2.3 1.3 0.3 0 1.3 0.6 2.4 1.3 9.1 6.4 10.5 6.4 19.6 0 1.1-0.7 2.1-1.3 2.4-1.3 0.2 0 1.2-0.6 2.4-1.3 1-0.7 4.3-2.8 7.4-4.7 3.2-1.8 6.6-3.9 7.8-4.7 4.3-2.8 11.2-7 15.2-9.4 2.2-1.3 4.9-2.9 6-3.6 1-0.7 3.7-2.3 5.9-3.5 6.6-3.9 7.6-4.5 11.6-7.1 4.1-2.5 15.1-9.4 19.2-11.8 1.4-0.8 3.3-1.9 4.4-2.6 1-0.7 3.5-2.2 5.6-3.4 5.1-3 7.3-4.4 12.2-7.5 2.4-1.5 7.3-4.6 11.1-6.8 3.7-2.3 7.4-4.5 8-5 0.8-0.4 2.5-1.5 3.9-2.3 3.9-2.3 9.2-5.5 11.5-6.9 1.2-0.7 2.5-1.5 3.1-1.7 1.2-0.4 1.2-1 1.2-14 0-14.6-0.3-15.7-2.8-13.4-0.6 0.6-1.5 1.1-2 1.1-0.3 0-1.3 0.5-2.1 1-0.9 0.6-2.7 1.5-4 2.1-1.3 0.5-2.5 1.1-2.5 1.3 0 0.2-0.6 0.5-1.4 0.6-0.7 0.1-2.2 0.7-3.4 1.4-6.4 3.5-7.9 4.3-8.6 4.3-0.5 0-0.9 0.3-1.1 0.6-0.3 0.3-1.2 0.8-2.1 1.1-0.9 0.2-2.3 0.9-3.1 1.4-2.7 1.6-7.6 4.1-8.3 4.1-0.3 0-1.2 0.5-2 1-0.7 0.6-1.6 1-1.9 1-0.5 0-1.3 0.4-2.1 1-2.2 1.4-7 3.7-8.8 4.2-0.9 0.3-2.4 0.9-3.3 1.5-3.2 2-4.4 2.7-6.7 3.6-1.3 0.5-2.8 1.3-3.4 1.7-0.6 0.4-1.3 0.7-1.8 0.7-0.4 0-1.8 0.6-3 1.3-3.5 2.3-6.7 3.9-7.3 3.9-0.4 0-1.4 0.5-2.5 1.2-1 0.7-2.2 1.2-2.7 1.2-0.3 0-1.3 0.5-2.2 1-2.1 1.5-7.8 4.1-8.6 4.1-0.5 0-1.2 0.5-1.8 1-0.5 0.6-1.4 1-1.7 1-0.4 0-1.5 0.5-2.2 1-0.9 0.6-2.4 1.4-3.6 1.8-1.2 0.4-2.5 1.1-3.1 1.6-0.6 0.4-1.4 0.8-1.8 0.8-0.4 0-1.8 0.6-3 1.3-3.4 2.1-5.9 3.3-8 4.1-1.1 0.3-2 0.8-2 1 0 0.3-0.9 0.7-2 1-1.1 0.3-2.9 1.1-3.8 1.7-3.1 1.8-6.8 3.6-7.6 3.6-0.4 0-1.3 0.4-1.8 1-0.6 0.5-1.6 1-2.3 1.2-0.9 0.1-2 0.7-2.4 1.2-0.9 0.8-1.5 1-3.9 1-2.4 0-3-0.2-3.9-1-0.4-0.5-1.5-1.1-2.4-1.2-0.7-0.2-1.7-0.7-2.3-1.2-0.5-0.6-1.4-1-1.8-1-0.8 0-3.9-1.5-7.8-3.7-1-0.6-2.7-1.4-3.7-1.8-1-0.4-1.9-1-1.9-1.2 0-0.2-0.8-0.5-1.7-0.7-1-0.2-2.7-1-3.8-1.7-1.2-0.6-2.4-1.2-2.7-1.2-0.5 0-1.2-0.4-1.7-1-0.6-0.5-1.8-1.1-2.7-1.4-1-0.2-1.9-0.6-2-1-0.3-0.3-1.7-1-3.2-1.4-1.5-0.5-2.8-1.2-2.9-1.5-0.2-0.3-1.2-0.8-2.1-1.2-1.1-0.3-2.3-1-2.7-1.4-0.5-0.4-1.2-0.7-1.7-0.7-0.4 0-1.7-0.6-3.1-1.3-1.3-0.6-3.7-1.8-5.2-2.6-1.5-0.8-3.7-1.9-4.8-2.5-1-0.6-2-1.1-2.3-1.1-0.5 0-7.8-3.6-7.9-4-0.2-0.3-1.4-0.8-2.7-1.2-1.2-0.5-2.4-1.1-2.6-1.4-0.3-0.3-1-0.6-1.6-0.7-0.7-0.2-2.2-0.8-3.4-1.5-1.2-0.7-2.9-1.5-3.7-1.8-0.9-0.4-1.7-0.8-1.7-1 0-0.2-0.7-0.6-1.6-0.8-1.5-0.4-2.3-0.8-8.1-3.9-1.6-0.9-3.1-1.6-3.4-1.6-0.3 0-1-0.4-1.6-0.8-0.8-0.5-2.1-1.2-3-1.5-1.1-0.4-3.4-1.5-5.2-2.5-5.7-3-7.6-3.9-9.6-4.6-2-0.8-4.9-2.3-7.7-4.1-1.2-0.7-2.5-1.3-2.8-1.3-0.5 0-1.5-0.3-2.3-0.9-0.7-0.5-1.6-1-2.1-1-0.3 0-1.7-0.7-3.2-1.6-1.5-0.9-3-1.6-3.5-1.6-0.4 0-1.2-0.4-1.6-1-2.8-2.9-3.4-0.6-3.1 14.1z"/>
	</g>
</svg>