<svg version="1.2" xmlns="http://www.w3.org/2000/svg" viewBox="0 0 117 119" width="40" height="40">
	<title>FriendEntity-svg</title>
	<style>
		.s0 { fill: #020304 } 
		.s1 { fill: #7fdefd } 
		.s2 { fill: #7fdffd } 
		.s3 { fill: #7fdffe } 
	</style>
	<path id="Layer" fill-rule="evenodd" class="s0" d="m0 42.8c0-14.5 0-28.7 0-42.8q59.1 0 118.3 0 0 60 0 120-59.2 0-118.3 0c0-25.6 0-51.3 0-77.2zm77.5 32.7c11.9 11.8 23.8 23.6 36 35.6 0-34.4 0-68.1 0-102.2-17.4 17.2-34.5 34.1-51 50.4 5.1 5.5 9.8 10.7 15 16.2zm-40.1 3.3c6.1-6.4 12.2-12.9 18.4-19.4q-25.1-24.9-51.1-50.5c0 34.3 0 68.1 0 102.2 11-10.8 21.7-21.4 32.7-32.3zm-19.4-62.1c13.6 13.4 27.3 26.9 41.2 40.6 16.9-16.8 33.7-33.5 50.8-50.3-34.1 0-67.7 0-101.7 0 3.4 3.3 6.3 6.3 9.7 9.7zm26.2 60.8c-11.9 11.8-23.8 23.5-35.9 35.5 34 0 67.5 0 101.7 0-17.2-17-34-33.6-51.6-51.1-4.8 5.3-9.3 10.3-14.2 15.6z"/>
	<path id="Layer" class="s1" d="m77.3 75.4c-5-5.4-9.7-10.6-14.8-16.1 16.5-16.3 33.6-33.2 51-50.4 0 34.1 0 67.8 0 102.2-12.2-12-24.1-23.8-36.2-35.7z"/>
	<path id="Layer" class="s1" d="m37.2 79c-10.8 10.7-21.5 21.3-32.5 32.1 0-34.1 0-67.9 0-102.2q26 25.6 51.1 50.5c-6.2 6.5-12.3 13-18.6 19.6z"/>
	<path id="Layer" class="s2" d="m17.8 16.5c-3.2-3.2-6.1-6.2-9.5-9.5 34 0 67.6 0 101.7 0-17.1 16.8-33.9 33.5-50.8 50.3-13.9-13.7-27.6-27.2-41.4-40.8z"/>
	<path id="Layer" class="s3" d="m44.4 77.3c4.7-5.1 9.2-10.1 14-15.4 17.6 17.5 34.4 34.1 51.6 51.1-34.2 0-67.7 0-101.7 0 12.1-12 24-23.7 36.1-35.7z"/>
</svg>