<svg version="1.2" xmlns="http://www.w3.org/2000/svg" viewBox="0 0 389 388" width="40" height="40">
	<title>image2vector (1)-svg</title>
	<style>
		.s0 { fill: #050707 } 
		.s1 { fill: #84e4fc } 
		.s2 { fill: #44747d } 
		.s3 { fill: #508da0 } 
		.s4 { fill: #3c6474 } 
	</style>
	<g id="svgg">
		<path id="path0" fill-rule="evenodd" class="s0" d="m-0.9-1h391.8l0.2 1.9c0.4 2.4 0.4 385.8 0 388.2l-0.2 1.9h-391.8l-0.2-1.9c-0.4-2.4-0.4-385.8 0-388.2zm11 18.4c-0.8 0.8-0.8 1.3-0.8 177.6 0 176.2 0 176.8 0.8 177.6 1.3 1.2 368.4 1.2 369.6 0 1.3-1.3 1.3-354 0-355.2-1.2-1.3-368.3-1.3-369.6 0zm87 121.8c0.4 0.5 0.9 1 1.2 1 0.2 0 1.3 0.7 2.2 1.6 1 0.8 2 1.6 2.3 1.6 0.2 0 0.8 0.4 1.3 1 0.6 0.5 1.2 1 1.5 1 0.3 0 1.1 0.5 1.9 1.3 2 1.8 3.8 3.2 5.2 4 1.3 0.7 2.6 1.7 6.4 4.7 1.3 0.9 2.9 2.1 3.5 2.4 0.7 0.4 1.6 1.1 2 1.5 0.4 0.5 0.9 0.9 1.1 0.9 0.2 0 1.3 0.7 2.3 1.5 3.9 3.3 4.4 3.6 5.5 4 0.6 0.3 1 0.6 1 0.8 0 0.3 0.5 0.7 1.1 1 0.7 0.3 1.8 1.1 2.5 1.8 0.8 0.7 1.8 1.4 2.3 1.5 0.5 0.1 1 0.5 1.1 0.8 0.1 0.3 0.9 0.9 1.8 1.3 0.9 0.5 1.6 1 1.7 1.2 0.2 0.4 5 4.1 5.4 4.1 0.1 0 0.8 0.5 1.6 1.1 0.7 0.6 2.1 1.7 3.2 2.5 1 0.7 2.5 1.9 3.4 2.7 0.9 0.7 1.9 1.3 2.2 1.3 0.3 0 0.7 0.3 1 0.7 0.3 0.4 1.1 1 1.8 1.4 0.7 0.3 1.3 0.9 1.5 1.2 0.1 0.3 1 0.9 2 1.4 1 0.5 1.9 1.2 2 1.5 0.1 0.3 0.8 0.8 1.4 1 0.7 0.2 1.5 0.9 1.8 1.4 0.4 0.5 0.9 1 1.1 1 0.2 0 1.1 0.5 1.9 1.2 0.7 0.7 1.9 1.4 2.5 1.6 0.6 0.3 1.1 0.6 1.1 0.8 0 0.2 0.6 0.7 1.3 1.1 0.8 0.5 1.9 1.3 2.5 1.9 2.7 2.3 4.7 3.8 5.3 3.8 0.3 0 0.8 0.4 1.2 0.9 0.3 0.5 1 1.1 1.6 1.2 0.5 0.2 1.2 0.7 1.6 1.3 0.5 0.8 1 1 2.5 1 1.6 0 2.1-0.2 2.6-1 0.4-0.6 1.1-1.1 1.6-1.3 0.6-0.1 1.3-0.7 1.6-1.2 0.4-0.5 0.9-0.9 1.2-0.9 0.6 0 3.1-1.8 5.1-3.8 0.7-0.6 1.8-1.3 2.6-1.6 0.7-0.3 1.3-0.8 1.3-1 0-0.2 0.6-0.7 1.3-1.1 1.4-0.7 3.1-2 5.4-4 0.8-0.8 1.7-1.3 2-1.3 0.3 0 0.9-0.4 1.2-0.9 0.4-0.4 1.4-1.1 2.1-1.5 0.8-0.4 1.9-1.2 2.4-1.8 0.5-0.6 1.2-1 1.5-1 0.3 0 0.8-0.5 1.2-1 0.3-0.6 0.9-1 1.2-1 0.6 0 4.4-2.7 5.8-4.2 0.5-0.6 1.2-1 1.5-1 0.2 0 1-0.6 1.7-1.2 0.7-0.7 1.5-1.2 1.7-1.2 0.5 0 2.6-1.7 5-3.9 0.7-0.8 1.6-1.3 1.9-1.3 0.3 0 0.9-0.4 1.3-0.8 0.4-0.4 1.4-1.1 2.2-1.6 1.5-0.9 2.3-1.6 4.6-3.7 0.6-0.5 1.5-1.2 2.1-1.4 1.2-0.6 4.5-3 5.9-4.4 0.5-0.5 1.2-0.9 1.4-0.9 0.3 0 0.9-0.5 1.4-1 0.4-0.6 1-1 1.3-1 0.4 0 3.8-2.5 5.5-4.2 0.6-0.5 1.5-1.1 2.2-1.4 0.6-0.2 1.2-0.7 1.3-1 0.1-0.4 0.5-0.6 0.8-0.6 0.4 0 1.5-0.8 5.7-4.4 0.8-0.6 1.8-1.3 2.3-1.4 0.5-0.2 0.9-0.4 0.9-0.6 0-0.2 0.8-0.8 1.7-1.4 1-0.5 2.2-1.4 2.7-2 0.5-0.6 1.2-1 1.5-1 0.3 0 0.8-0.5 1.3-1.1 1.7-2.4 1.8-1.2 1.8 13.5 0 13.1 0 13.6-0.7 14-0.5 0.3-1.4 1-2.1 1.7-1.5 1.4-5.1 4.7-7.7 6.9-1 0.9-2.2 1.9-2.6 2.4-0.5 0.4-2.9 2.7-5.4 5-2.6 2.3-5.9 5.4-7.4 6.8-3.3 3.2-4.9 4.6-8.3 7.6-1.3 1.2-3 2.7-3.8 3.4-0.7 0.6-2 1.8-2.8 2.6-2.9 2.5-10.3 9.3-12.9 11.9-2.8 2.6-3.4 3.2-7.8 7.1-1.5 1.3-3.3 2.9-4.1 3.6-0.7 0.6-2.5 2.2-4 3.6-2.7 2.3-7.3 6.6-10.2 9.4-0.8 0.7-3.1 2.9-5.2 4.8-2 1.8-4.3 3.9-5 4.7-0.7 0.7-1.4 1.3-1.6 1.3-0.2 0-0.9 0.5-1.5 1.3-6.2 6.3-7.1 6.3-13.3 0-0.6-0.8-1.3-1.3-1.5-1.3-0.2 0-0.9-0.6-1.6-1.3-0.7-0.8-3.1-3-5.2-4.9-2.2-2-5.7-5.3-7.8-7.3-2.1-2-4.9-4.5-6.1-5.6-3.5-3.1-3.9-3.5-5.2-4.8-0.7-0.8-1.4-1.3-1.6-1.3-0.2 0-1.4-1.1-2.7-2.3-1.4-1.3-3.4-3.2-4.7-4.3-1.2-1.1-3.5-3.3-5.1-4.8-1.6-1.5-4.5-4.2-6.5-6-1.9-1.8-4.1-3.7-4.7-4.3-0.6-0.6-1.7-1.6-2.4-2.2-0.7-0.6-2.4-2.1-3.8-3.4-1.3-1.3-2.5-2.3-2.7-2.3-0.2 0-0.9-0.6-1.6-1.3-1.4-1.6-9.6-9.1-13.4-12.6-1.4-1.2-2.9-2.7-3.4-3.1-0.5-0.5-1.6-1.5-2.5-2.2-1.9-1.7-2.5-2.2-3.2-2.9-0.3-0.3-1.1-1.1-1.9-1.7-0.7-0.7-2-1.9-2.9-2.7-0.8-0.8-1.7-1.5-2.1-1.6-0.7-0.3-1.1-25.4-0.4-27.3 0.5-1.3 1-1.3 1.8 0z"/>
		<path id="path1" fill-rule="evenodd" class="s1" d="m195.1 18.3l183.7 0.1v353.2h-367.6l-0.1-176.2c-0.1-96.9 0-176.4 0.1-176.7 0.1-0.4 37.1-0.5 183.9-0.4zm-102.3 117.1c-0.6 0.6-0.6 2-0.5 15.8l0.1 15 2.6 2.4c1.4 1.3 2.8 2.4 3.1 2.4 0.3 0 0.7 0.5 1 1 0.2 0.6 0.8 1.1 1.3 1.2 0.5 0.2 1.1 0.7 1.3 1.2 0.3 0.6 0.7 1 0.9 1 0.2 0 1 0.6 1.8 1.3 0.7 0.7 3.1 3 5.3 5 5.2 4.9 8.2 7.7 12.2 11.3 1.8 1.7 3.9 3.6 4.7 4.3 0.8 0.7 2 1.8 2.7 2.4 2.9 2.5 4.6 4 5.6 5 0.3 0.3 1.3 1.1 2.1 1.9 0.8 0.8 1.7 1.6 2 1.8 0.2 0.2 0.7 0.7 1.1 1.1 2.1 2.1 5.9 5.7 9.3 8.7 2.1 1.8 4.3 3.8 4.8 4.4 2.2 2.1 4 3.6 4.4 3.6 0.2 0 0.5 0.3 0.6 0.8 0.1 0.4 0.8 0.9 1.4 1.2 0.7 0.3 1.2 0.7 1.2 1 0 0.3 0.5 0.8 1.1 1.2 0.7 0.3 1.5 1 1.9 1.6 0.3 0.5 0.9 1 1.2 1 0.3 0 0.8 0.4 1.1 1 0.2 0.6 0.6 1 0.8 1 0.2 0 1.5 1.2 3.1 2.7 2.9 2.9 9.2 8.8 12.8 11.9 1.2 1.1 2.6 2.3 3.1 2.8 0.5 0.4 1.5 1.3 2.2 2 0.8 0.6 2 1.7 2.8 2.5 2.1 1.8 4.1 1.8 6.2 0 0.8-0.8 2-1.9 2.8-2.5 0.7-0.7 1.7-1.6 2.2-2 0.5-0.5 1.8-1.7 2.9-2.6 3.1-2.6 10-9.1 13.1-12.1 1.5-1.5 2.8-2.7 3-2.7 0.2 0 0.6-0.4 0.8-1 0.3-0.6 0.7-1 1.1-1 0.3 0 0.9-0.5 1.4-1.2 0.5-0.7 1.1-1.2 1.3-1.2 0.2 0 1-0.6 1.7-1.3 0.7-0.7 1.5-1.5 1.8-1.8 0.4-0.3 0.8-0.7 1.1-0.9 1.8-1.8 3-2.8 3.5-3.1 0.5-0.3 6.3-5.6 11.7-10.7 3-2.9 7.8-7.4 8.6-8.1 0.3-0.3 0.7-0.7 0.9-0.9 0.2-0.2 1.1-0.9 1.9-1.7 1.6-1.3 3.6-3.1 5.2-4.5 0.5-0.5 2.7-2.4 4.9-4.4 4.9-4.4 11.9-11 17.4-16.3 0.6-0.5 1.4-1.2 1.9-1.4 0.5-0.3 1-0.9 1.1-1.3 0.1-0.4 0.5-0.8 0.8-0.8 0.2 0 1.1-0.6 1.8-1.3 0.8-0.7 2.6-2.3 4-3.6l2.6-2.2 0.1-15.2c0.2-17.2 0-17.9-2.6-15.8-0.6 0.5-1.6 1.1-2.3 1.4-0.7 0.3-1.5 0.9-1.8 1.3-0.3 0.3-1.2 1-2 1.4-0.8 0.4-1.6 1-1.7 1.4-0.2 0.3-0.9 0.9-1.7 1.3-0.8 0.3-1.4 0.8-1.4 1 0 0.1-0.7 0.7-1.5 1.1-1.8 1-4.9 3.4-5.6 4.5-0.3 0.4-0.8 0.7-1.1 0.7-0.4 0-1 0.4-1.5 0.9-0.5 0.5-1.4 1.1-1.9 1.3-1 0.5-3.3 2.3-5.7 4.4-0.6 0.6-1.4 1-1.7 1-0.3 0-0.7 0.3-1 0.7-0.3 0.3-1.3 1-2.1 1.5-1.5 1-2.5 1.9-4.7 3.9-0.6 0.6-1.4 1.1-1.7 1.1-0.6 0-1.7 0.8-5.3 3.8-0.7 0.6-1.8 1.4-2.5 1.8-0.7 0.4-1.3 1-1.3 1.2 0 0.2-0.5 0.5-1.1 0.7-0.6 0.2-1.5 0.8-1.9 1.2-0.4 0.4-1.4 1.1-2.2 1.6-0.8 0.5-1.6 1.2-1.9 1.7-0.3 0.4-0.9 0.8-1.3 0.8-0.4 0-1 0.4-1.3 0.8-0.4 0.5-1.2 1.2-1.8 1.5-1.4 0.8-4.3 2.9-5.8 4.3-0.6 0.6-1.4 1-1.7 1-0.3 0-0.8 0.5-1.2 1-0.3 0.6-0.9 1-1.2 1-0.3 0-1.3 0.6-2.1 1.4-0.9 0.8-1.8 1.4-2 1.4-0.3 0-0.9 0.5-1.4 1.2-0.5 0.7-1.2 1.2-1.5 1.2-0.4 0-1.1 0.4-1.5 0.9-0.4 0.5-1.3 1.2-2 1.4-0.6 0.3-1.7 1.1-2.3 1.7-0.6 0.7-1.4 1.2-1.7 1.2-0.2 0-0.8 0.4-1.1 1-0.4 0.5-1.1 1.1-1.5 1.2-0.5 0.2-1.3 0.7-1.9 1.2-0.5 0.5-1.6 1.2-2.3 1.6-0.7 0.3-1.5 0.9-1.7 1.4-0.2 0.4-0.9 0.9-1.6 1.1-0.6 0.2-1.2 0.8-1.4 1.2-0.6 2.1-7.8 2.1-8.4 0-0.2-0.4-0.9-1-1.6-1.3-0.7-0.3-1.4-0.8-1.5-1.2-0.2-0.3-0.8-0.8-1.5-1.2-0.7-0.4-1.6-1-2.1-1.5-0.4-0.4-1.3-0.9-1.9-1.2-0.6-0.2-1.4-0.8-1.8-1.3-0.3-0.6-0.9-1-1.1-1-0.3 0-1-0.5-1.6-1.2-0.6-0.7-1.3-1.2-1.5-1.2-0.2 0-1.1-0.6-2-1.4-0.9-0.8-2-1.4-2.4-1.4-0.5 0-1-0.4-1.3-1-0.2-0.5-0.9-1.2-1.5-1.4-0.6-0.3-1.2-0.7-1.4-1-0.1-0.3-0.9-1-1.9-1.4-0.9-0.5-1.9-1.2-2.2-1.7-0.3-0.4-0.8-0.7-1.1-0.7-0.4 0-1.2-0.5-1.9-1.2-2.4-2.2-4.8-4-5.7-4.2-0.5-0.2-1.2-0.7-1.6-1.2-0.3-0.6-0.9-1-1.1-1-0.3 0-1.2-0.6-2-1.3-3.5-3.2-4.4-3.9-5.5-4.1-0.6-0.1-1.3-0.6-1.4-1-0.1-0.4-0.6-0.9-1.1-1-0.5-0.2-1.3-0.7-1.9-1.3-1.5-1.5-5.2-4.1-5.8-4.1-0.3 0-0.9-0.4-1.2-1-0.4-0.5-1.2-1.1-1.8-1.4-0.7-0.3-1.2-0.6-1.2-0.8 0-0.4-4.4-3.7-5.7-4.1-0.6-0.2-1.3-0.8-1.7-1.3-0.3-0.6-0.8-1-1-1-0.3 0-1.3-0.7-2.3-1.6-1-0.9-2-1.6-2.1-1.6-0.2 0-0.8-0.5-1.4-1-0.5-0.5-1.3-1-1.6-1-0.4 0-1.3-0.6-2-1.3-2.4-2.4-4.3-3.9-4.9-3.9-0.3 0-0.9-0.4-1.4-1-0.5-0.5-1.1-1-1.4-1-0.3 0-1.2-0.6-1.9-1.4-0.8-0.8-1.6-1.4-1.7-1.4-0.2 0-1-0.5-1.7-1.2-0.7-0.6-1.7-1.3-2.2-1.4-0.4-0.2-1.3-0.7-1.9-1.3-1.4-1.1-1.6-1.1-2.5-0.1z"/>
		<path id="path2" fill-rule="evenodd" class="s2" d="m93.6 136.2c0 0 0.6 0.2 1.1 0.5l1.1 0.6-1 0.4-1 0.5 0.1 13.6c0 7.5 0 13.3-0.2 12.9-0.1-0.4-0.3-7-0.3-14.6 0-7.6 0.1-13.9 0.2-13.9zm202.7 0c0.4 0 0.3 27.5 0 28.5-0.2 0.4-0.2-5.4-0.2-12.9l0.1-13.6-2-0.9 0.9-0.5c0.5-0.3 1-0.5 1.2-0.6zm-2.7 1.2c0.2 0-0.4 0.5-1.2 1.2-1.9 1.5-2.4 1.6-0.6 0 0.8-0.6 1.6-1.2 1.8-1.2zm-3.5 2.4c0.3 0 0 0.4-1.6 1.6l-1.7 1.3 1.6-1.5c0.8-0.8 1.6-1.4 1.7-1.4zm-188.1 1.6c1.9 1.6 2 1.7 1.2 1.3-0.4-0.2-1.2-0.8-1.6-1.4-0.8-0.9-0.8-0.9 0.4 0.1zm4.5 3.2c0.3 0 3.6 2.8 3.2 2.8-0.1 0-1-0.6-1.9-1.4-0.9-0.8-1.5-1.4-1.3-1.4zm174 2.4c0.1 0 0.1 0.1-0.1 0.3-0.2 0.2-0.9 0.8-1.6 1.3-1.2 0.9-1.2 0.9 0.1-0.3 0.7-0.7 1.4-1.3 1.6-1.3zm-166.4 3.2c0.3 0 0.6 0.2 0.7 0.4 0.2 0.2 0.9 0.9 1.7 1.4 0.8 0.5 2.5 1.8 3.7 2.8 1.2 1 2.8 2.1 3.6 2.6 0.8 0.4 1.9 1.3 2.6 1.9 0.9 0.7 0.9 0.8 0.2 0.3-0.5-0.3-1.5-0.9-2.1-1.3-0.7-0.4-1.9-1.2-2.7-1.9-0.8-0.7-2.3-1.8-3.3-2.5-0.9-0.7-2.4-1.9-3.3-2.5-0.8-0.7-1.3-1.2-1.1-1.2zm162 0c0.4 0-0.9 1.3-1.7 1.7-0.5 0.2-0.3 0 0.4-0.6 0.7-0.6 1.3-1.1 1.3-1.1zm-3.6 2.4c0.5 0-1.2 1.5-3.3 3-2.3 1.8-1.6 1 1.7-1.7 0.8-0.7 1.6-1.3 1.6-1.3zm-9.6 7.2c0.4 0-1 1.3-2.1 2.1-0.9 0.6-0.8 0.4 0.4-0.6 0.9-0.8 1.7-1.5 1.7-1.5zm-132.8 2.2c1.4 1 2.6 2 2.7 2.2 0.2 0.3-0.8-0.4-2.1-1.4-1.4-1-2.6-2-2.7-2.2-0.2-0.3 0.8 0.4 2.1 1.4zm127.3 2.2c0.1 0-0.1 0.3-0.6 0.5-0.4 0.3-1.3 0.9-2 1.5q-1.2 1-0.6 0.2c0.3-0.4 1.1-1.1 1.8-1.5 0.7-0.4 1.3-0.7 1.4-0.7zm-160.8 3.9c1.3 1.2 2.4 2.3 2.4 2.4q0 0.2-0.2 0.1c-0.1-0.1-1.1-1.1-2.4-2.2-1.2-1-2.2-2-2.2-2.2 0-0.1 1.1 0.7 2.4 1.9zm199.2-2c0.2 0.1-0.9 1.3-2.2 2.2-1 0.7-0.9 0.6 0.4-0.7 0.9-0.9 1.7-1.6 1.8-1.5zm-158.5 1.1c0.8 0.5 1.7 1.2 2.2 1.8 0.5 0.5 0.1 0.3-1.1-0.6-1.1-0.8-2.1-1.6-2.2-1.7-0.1-0.1 0.4 0.1 1.1 0.5zm116-0.2c0.4 0-2.3 2.3-3.3 2.9-1 0.5-0.8 0.3 1.3-1.5 1-0.7 1.9-1.4 2-1.4zm37.3 3.9c0 0.2-1 1.2-2.3 2.3l-2.3 1.9 2.2-2.2c2.5-2.5 2.4-2.4 2.4-2zm-189.8 1.2c0.7 0.5 1.7 1.3 2.2 2 0.9 0.9-1.7-1.1-3-2.4-0.2-0.2 0.1-0.1 0.8 0.4zm144.6 0.5c0.4 0-1.9 2.1-2.6 2.5-0.4 0.2-0.1-0.2 0.8-1 0.9-0.8 1.7-1.5 1.8-1.5zm-97.7 2.2c0.8 0.5 1.7 1.2 2.2 1.8 0.5 0.5 0.1 0.3-1.1-0.6-1.1-0.8-2.1-1.6-2.2-1.7-0.1-0.1 0.4 0.1 1.1 0.5zm94.1 0.6c0.3 0-2 2-3.7 3.1l-1.3 1 1.3-1.2c0.7-0.6 1.8-1.5 2.4-2 0.6-0.5 1.2-0.9 1.3-0.9zm-125.6 10.8c1.2 1.1 0.3 0.4-1.9-1.6-2.3-2.1-4.8-4.3-5.5-4.9-0.8-0.7-1.4-1.3-1.4-1.5 0-0.3 4.1 3.4 8.8 8zm166.4-8.1c0.1 0-1.5 1.6-3.4 3.4-2 1.8-4.5 4.2-5.6 5.2-1.2 1-2.2 1.9-2.3 1.9-0.2 0 1.7-1.8 4.2-4.1 2.4-2.3 5-4.6 5.7-5.3 0.6-0.7 1.3-1.2 1.4-1.1zm-47.6 2.7c-0.6 0.6-1.5 1.3-2.2 1.6-0.7 0.4-0.9 0.4-0.4 0.1 0.4-0.3 1.3-1 2-1.6 1.5-1.4 1.8-1.4 0.6-0.1zm-79 0.2c1.9 1.6 2 1.7 1.2 1.3-0.4-0.2-1.2-0.8-1.6-1.4-0.8-0.9-0.8-0.9 0.4 0.1zm75.4 2c0.3 0-2 1.9-4 3.4-0.9 0.7-2.2 1.6-2.9 2.1l-1.3 1 1.3-1.2c0.7-0.6 2-1.6 2.9-2.3 0.9-0.7 2.1-1.6 2.7-2.1 0.6-0.5 1.2-0.9 1.3-0.9zm-66.2 4.8c0.4 0.2 1.3 0.9 2 1.4 0.7 0.6 0.8 0.9 0.4 0.6-0.4-0.2-1.3-0.9-2-1.4-0.7-0.6-0.8-0.9-0.4-0.6zm-45.2 1.9c0.4 0.2 1.4 1.1 2.2 2 1.3 1.3-0.2 0.2-2.8-2.2-0.1-0.1 0.2 0 0.6 0.2zm103-0.1c0 0-0.6 0.5-1.4 0.9-0.8 0.5-1.4 0.8-1.4 0.7 0-0.1 0.6-0.6 1.3-1 1.4-0.8 1.5-0.9 1.5-0.6zm46.4 0.6c0.4 0-2.6 2.9-3.4 3.3-0.4 0.2 0.1-0.4 1.2-1.4 1.1-1 2.1-1.9 2.2-1.9zm-51.2 2.4c0.3 0-2.5 2.4-4.1 3.5l-1.3 1 1.3-1.2c0.7-0.6 1.9-1.6 2.6-2.2 0.7-0.6 1.4-1.1 1.5-1.1zm-93.1 1.6c0.8 0.8 1.5 1.5 1.5 1.5 0 0.4-1.8-1.2-2.3-2-0.4-0.5-0.1-0.4 0.8 0.5zm139 0.8c0.4 0-0.3 0.6-2.8 2.8l-2.9 2.5 2.8-2.6c1.5-1.5 2.8-2.7 2.9-2.7zm-133.3 4.4c0.4 0.5-0.2 0.1-1.5-1-1.3-1.1-2.3-2-2.3-2.1 0-0.3 3 2.2 3.8 3.1zm81.8-2.2c0 0.1-0.5 0.5-1.2 0.8-1.5 0.8-1.6 0.4-0.1-0.4 1.3-0.7 1.3-0.7 1.3-0.4zm-78.7 5c1.3 1.2 2.3 2.2 2.3 2.3 0 0.3-3.4-2.8-4-3.7-0.3-0.4 0.5 0.2 1.7 1.4zm71.4 0c0.3 0 0.2 0.1-1.5 1.4-0.9 0.7-0.9 0.6 0.1-0.3 0.6-0.6 1.2-1.1 1.4-1.1zm50.9 0c0.3 0-1.5 1.8-3 2.9-1.1 0.8-0.9 0.6 0.6-0.8 1.2-1.1 2.3-2.1 2.4-2.1zm-69.8 1.2c1.9 1.6 2 1.7 1.2 1.3-0.4-0.2-1.2-0.8-1.6-1.4-0.8-0.9-0.8-0.9 0.4 0.1zm-45.4 5.2c2.5 2.3 5.8 5.4 7.4 7 1.7 1.7 2 2 0.6 0.8-4.2-3.8-7-6.4-9.8-9.2-1.5-1.5-0.7-0.8 1.8 1.4zm110.4-2c0.2 0-4.8 4.8-9.4 8.9-4.6 4.1-2.5 2 3.8-3.9 3-2.7 5.5-5 5.6-5zm-58.9 1.2c0.5 0.2 0.9 0.6 0.9 0.8 0 0.5 3.1 0.5 3.3 0q0.2-0.3 0.1 0.1c-0.2 1.1-3 0.8-4.1-0.3-1-1-1-1.1-0.2-0.6zm-40.6 10.8c0.3 0.4 2.1 2.1 4.1 3.8 1.9 1.7 4.5 4.1 5.8 5.3 1.8 1.8 1.9 2 0.4 0.7-1-0.8-2-1.7-2.2-2-0.2-0.3-2.1-1.9-4.2-3.8-2.1-1.8-3.9-3.6-4.1-3.9-0.3-0.6-0.3-0.6 0.2-0.1zm81.9 4.4c-1.6 1.5-3.1 2.8-3.3 2.8-0.2 0 1.1-1.3 2.8-2.8 4-3.6 4.4-3.6 0.5 0zm-5.2 4.5c0 0.1-0.6 0.7-1.3 1.3l-1.3 1.2 1.2-1.3c1.1-1.2 1.4-1.5 1.4-1.2zm-62.9 3.6c3.6 3.4 8.9 8.3 10.9 10.2 2.9 2.6 7 6.6 5.2 5.1-0.8-0.7-2.5-2.2-3.8-3.4-1.3-1.3-5-4.7-8.1-7.6-3.1-2.9-5.7-5.4-5.7-5.5 0-0.2 0.7 0.4 1.5 1.2zm58.1 0.7c0.2 0-3 3.1-8.9 8.4-2 1.8-3.2 2.8-2.5 2.1 0.7-0.7 3.5-3.3 6.2-5.9 2.8-2.5 5.1-4.6 5.2-4.6zm-14.9 13.6c0.3 0-0.1 0.4-2.1 2.3-1.2 1.2-2.2 2-2.2 1.9 0-0.2 0.9-1.2 2.1-2.2 1.2-1.1 2.1-2 2.2-2zm-23.5 3.9q1.4 1.4 0.5 0.8c-0.6-0.3-1.2-1-1.6-1.5-0.8-1.2-0.4-1 1.1 0.7zm18.7 0.5c0.4 0-0.3 0.6-2.8 2.8l-2.9 2.5 2.8-2.6c1.5-1.5 2.8-2.7 2.9-2.7zm-14.9 2.9c1.2 1.1 2.2 2.1 2.2 2.2 0 0.1-1-0.7-2.2-1.8-1.2-1-2.2-2-2.2-2.1 0-0.2 1 0.6 2.2 1.7zm2.5 2.1l1.1 1.1c0.7 0.7 1.5 1.1 2.2 1.1 0.8 0 1.5-0.4 2.2-1.1l1.1-1.1-0.7 1.1c-0.4 0.6-1.1 1.2-1.6 1.3-1.5 0.4-2.8-0.1-3.6-1.3z"/>
		<path id="path3" fill-rule="evenodd" class="s3" d="m378.6 17.9l1 0.5v353.2l-1 0.5c-1.5 0.7-365.7 0.7-367.2 0l-1-0.5v-353.2l1-0.5c1.5-0.7 365.7-0.7 367.2 0zm0.2 0.5l-183.7-0.1c-146.8-0.1-183.8 0-183.9 0.4-0.1 0.3-0.2 79.8-0.1 176.7l0.1 176.2h367.6zm-283.5 117.1c0.6 0.6 1.5 1.1 1.9 1.3 0.5 0.1 1.5 0.8 2.2 1.4 0.7 0.7 1.5 1.2 1.7 1.2 0.1 0 0.9 0.6 1.7 1.4 0.7 0.8 1.6 1.4 1.9 1.4 0.3 0 0.9 0.5 1.4 1 0.5 0.6 1.1 1 1.4 1 0.6 0 2.5 1.5 4.9 3.9 0.7 0.7 1.6 1.3 2 1.3 0.3 0 1.1 0.5 1.6 1 0.6 0.6 1.2 1 1.4 1 0.1 0 1.1 0.7 2.1 1.6 1 0.9 2 1.6 2.3 1.6 0.2 0 0.7 0.4 1 1 0.4 0.5 1.1 1.1 1.7 1.3 1.3 0.4 5.7 3.7 5.7 4.1 0 0.2 0.5 0.5 1.2 0.8 0.6 0.3 1.4 0.9 1.8 1.4 0.3 0.6 0.9 1 1.2 1 0.6 0 4.3 2.6 5.8 4.1 0.5 0.6 1.4 1.1 1.9 1.3 0.5 0.1 1 0.6 1.1 1 0.1 0.4 0.8 0.9 1.4 1 1.1 0.2 2 0.9 5.5 4.1 0.8 0.7 1.7 1.3 2 1.3 0.2 0 0.8 0.4 1.1 1 0.4 0.5 1.1 1 1.6 1.2 0.9 0.2 3.3 2 5.7 4.2 0.7 0.7 1.5 1.2 1.9 1.2 0.3 0 0.8 0.3 1.1 0.7 0.3 0.5 1.3 1.2 2.2 1.7 1 0.4 1.8 1.1 1.9 1.4 0.2 0.3 0.8 0.7 1.4 1 0.6 0.2 1.3 0.9 1.5 1.4 0.3 0.6 0.8 1 1.3 1 0.4 0 1.5 0.6 2.4 1.4 0.9 0.8 1.8 1.4 2 1.4 0.2 0 0.9 0.5 1.5 1.2 0.6 0.7 1.3 1.2 1.6 1.2 0.2 0 0.8 0.4 1.1 1 0.4 0.5 1.2 1.1 1.8 1.3 0.6 0.3 1.5 0.8 1.9 1.2 0.5 0.5 1.4 1.1 2.1 1.5 0.7 0.4 1.3 0.9 1.5 1.2 0.1 0.4 0.8 0.9 1.5 1.2 0.7 0.3 1.4 0.9 1.6 1.3 0.6 2.1 7.8 2.1 8.4 0 0.2-0.4 0.8-1 1.4-1.2 0.7-0.2 1.4-0.7 1.6-1.1 0.2-0.5 1-1.1 1.7-1.4 0.7-0.4 1.7-1.1 2.3-1.6 0.5-0.5 1.4-1 1.9-1.2 0.4-0.1 1.1-0.7 1.5-1.2 0.3-0.6 0.9-1 1.1-1 0.3 0 1.1-0.5 1.7-1.2 0.6-0.6 1.7-1.4 2.3-1.7 0.7-0.2 1.6-0.9 2-1.4 0.4-0.5 1.1-0.9 1.5-0.9 0.3 0 1-0.5 1.5-1.2 0.5-0.7 1.1-1.2 1.4-1.2 0.2 0 1.1-0.6 2-1.4 0.8-0.8 1.8-1.4 2.1-1.4 0.3 0 0.9-0.4 1.2-1 0.4-0.5 0.9-1 1.2-1 0.3 0 1.1-0.4 1.7-1 1.5-1.4 4.4-3.5 5.8-4.3 0.6-0.3 1.4-1 1.8-1.5 0.3-0.4 0.9-0.8 1.3-0.8 0.4 0 1-0.4 1.3-0.8 0.3-0.5 1.1-1.2 1.9-1.7 0.8-0.5 1.8-1.2 2.2-1.6 0.4-0.4 1.3-1 1.9-1.2 0.6-0.2 1.1-0.5 1.1-0.7 0-0.2 0.6-0.8 1.3-1.2 0.7-0.4 1.8-1.2 2.5-1.8 3.6-3 4.7-3.8 5.3-3.8 0.3 0 1.1-0.5 1.7-1.1 2.2-2 3.2-2.9 4.7-3.9 0.8-0.5 1.8-1.2 2.1-1.5 0.3-0.4 0.7-0.7 1-0.7 0.3 0 1.1-0.4 1.7-1 2.4-2.1 4.7-3.9 5.7-4.4 0.5-0.2 1.4-0.8 1.9-1.3 0.5-0.5 1.1-0.9 1.5-0.9 0.3 0 0.8-0.3 1.1-0.7 0.7-1.1 3.8-3.5 5.6-4.5 0.8-0.4 1.5-1 1.5-1.1 0-0.2 0.6-0.7 1.4-1 0.8-0.4 1.5-1 1.7-1.3 0.1-0.4 0.9-1 1.7-1.4 0.8-0.4 1.7-1.1 2-1.4 0.3-0.4 1.1-1 1.8-1.3 0.7-0.3 1.7-0.9 2.3-1.4 2.6-2.1 2.8-1.4 2.6 15.8l-0.1 15.2-2.6 2.2c-1.4 1.3-3.2 2.9-4 3.6-0.7 0.7-1.6 1.3-1.8 1.3-0.3 0-0.7 0.4-0.8 0.8-0.1 0.4-0.6 1-1.1 1.3-0.5 0.2-1.4 0.9-1.9 1.4-5.5 5.3-12.5 11.9-17.4 16.3-2.2 2-4.4 3.9-4.9 4.4-1.6 1.4-3.6 3.2-5.2 4.5-0.8 0.8-1.7 1.5-1.9 1.7-0.2 0.2-0.6 0.6-0.9 0.9-0.8 0.7-5.6 5.2-8.6 8.1-5.4 5.1-11.2 10.4-11.7 10.7-0.5 0.3-1.7 1.3-3.5 3.1-0.3 0.2-0.7 0.6-1.1 0.9-0.3 0.3-1.1 1.1-1.8 1.8-0.7 0.7-1.5 1.3-1.7 1.3-0.2 0-0.8 0.5-1.3 1.2-0.5 0.7-1.1 1.2-1.4 1.2-0.4 0-0.8 0.5-1.1 1-0.2 0.6-0.6 1-0.8 1-0.2 0-1.5 1.2-3 2.7-3.1 3-10 9.5-13.1 12.1-1.1 0.9-2.4 2.1-2.9 2.6-0.5 0.4-1.5 1.3-2.2 2-0.8 0.6-2 1.7-2.8 2.5-2.1 1.8-4.1 1.8-6.2 0-0.8-0.8-2-1.9-2.8-2.5-0.7-0.7-1.7-1.6-2.2-2-0.5-0.5-1.9-1.7-3.1-2.8-3.6-3.1-9.9-9-12.8-11.9-1.6-1.5-2.9-2.7-3.1-2.7-0.2 0-0.6-0.4-0.8-1-0.3-0.5-0.8-1-1.1-1-0.3 0-0.9-0.5-1.3-1-0.3-0.6-1.1-1.3-1.8-1.6-0.6-0.4-1.1-0.9-1.1-1.2 0-0.3-0.5-0.7-1.2-1-0.6-0.3-1.3-0.8-1.4-1.2-0.1-0.5-0.4-0.8-0.6-0.8-0.4 0-2.2-1.5-4.4-3.6-0.5-0.6-2.7-2.6-4.8-4.4-3.4-3-7.2-6.6-9.3-8.7-0.4-0.4-0.9-0.9-1.1-1.1-0.3-0.2-1.2-1-2-1.8-0.8-0.8-1.8-1.6-2.1-1.9-1-1-2.7-2.5-5.6-5-0.7-0.6-1.9-1.7-2.7-2.4-0.8-0.7-2.9-2.6-4.7-4.3-4-3.6-7-6.4-12.2-11.3-2.2-2-4.6-4.3-5.3-5-0.8-0.7-1.6-1.3-1.8-1.3-0.2 0-0.6-0.4-0.9-1-0.2-0.5-0.8-1-1.3-1.2-0.5-0.1-1.1-0.6-1.3-1.2-0.3-0.5-0.7-1-1-1-0.3 0-1.7-1.1-3.1-2.4l-2.6-2.4-0.1-15c-0.1-13.8-0.1-15.2 0.5-15.8 0.9-1 1.1-1 2.5 0.1zm-1.9 14.4c0 15.9 0 15.9 3.1 18.6 1.2 1 2.8 2.4 3.5 3.1 0.7 0.7 2.5 2.3 4 3.6 1.5 1.3 3.1 2.8 3.6 3.2 0.8 0.9 2.5 2.4 11.2 10.4 2.4 2.2 4.9 4.5 5.6 5.2 0.7 0.7 2 1.8 2.9 2.6 3.8 3.4 8.9 8 11.7 10.6 1.7 1.5 5 4.6 7.4 6.8 2.4 2.2 4.7 4.4 5.2 4.8 0.4 0.5 1.8 1.7 3 2.8 3.4 2.9 8.4 7.5 14.8 13.4 3.2 3 7.6 7 9.8 9 2.1 2 4.5 4.1 5.2 4.8 0.7 0.7 2.5 2.3 4 3.6 1.5 1.3 3.4 3 4.1 3.7 1.6 1.6 3.3 1.7 4.6 0.4 0.5-0.6 2.4-2.3 4.3-3.9 3.5-3.1 6-5.3 10.4-9.4 1.4-1.4 4.1-3.9 6-5.6 1.9-1.7 4.6-4.2 6-5.6 1.4-1.3 3.9-3.5 5.4-4.8 1.5-1.3 3.2-2.8 3.8-3.4 0.6-0.5 2.8-2.6 5-4.6 3.6-3.2 12.4-11.4 18.2-16.7 1.2-1.1 3.6-3.3 5.4-4.9 1.8-1.5 3.6-3.2 4-3.6 0.5-0.4 2.8-2.6 5.2-4.8 5.6-5.1 10.6-9.7 11.6-10.8 0.5-0.4 2.1-1.9 3.6-3.2 1.5-1.3 3.3-2.9 4.1-3.6 0.7-0.7 2.2-2.1 3.4-3.1 3.1-2.7 3.1-2.7 3.1-18.6 0-12.5-0.2-14.7-1-13.3-0.1 0.2-0.6 0.4-1.2 0.6-0.6 0.1-1.9 0.9-2.9 1.6-1 0.8-2.6 2-3.5 2.6-0.9 0.7-2.3 1.8-3.2 2.4-3.9 2.9-4.7 3.5-6.1 4.6-0.8 0.6-2.6 2-4.1 3-1.5 1-3.7 2.6-5 3.6-2.6 2-4 3-5.6 4.2-1.1 0.7-4.1 3-6 4.4-0.4 0.3-1.3 1-2 1.4-0.7 0.4-2 1.4-3 2.2-1 0.8-2.5 1.9-3.4 2.5-0.9 0.6-1.7 1.2-1.9 1.4-0.1 0.2-0.8 0.8-1.6 1.2-0.8 0.5-2.5 1.7-3.8 2.7-1.3 1-2.8 2.1-3.3 2.5-0.6 0.4-1.8 1.3-2.8 2.1-1 0.8-2.7 2-3.8 2.8-1.1 0.7-2.7 1.9-3.6 2.6q-3.3 2.5-5.8 4.2c-0.8 0.5-1.9 1.3-2.4 1.8-0.6 0.4-1.5 1.2-2.2 1.6-0.7 0.4-2 1.4-3 2.2-1 0.8-2.3 1.7-3 2.1-0.6 0.4-1.6 1.2-2.3 1.8-0.6 0.6-1.3 1.1-1.5 1.1-0.2 0-0.9 0.5-1.5 1-0.6 0.6-1.6 1.4-2.3 1.8-0.7 0.4-2 1.4-3 2.2-1 0.8-2.5 1.9-3.4 2.5-0.9 0.5-1.7 1.2-1.7 1.4-0.2 0.4-3.3 0.4-3.3-0.1 0-0.2-0.7-0.7-1.5-1.2-0.8-0.4-1.8-1.1-2.2-1.5-0.3-0.4-1.6-1.3-2.7-2.1-1.1-0.8-2.8-2-3.6-2.7-0.9-0.7-2-1.4-2.4-1.5-0.4-0.1-0.8-0.4-0.8-0.6 0-0.2-0.6-0.8-1.3-1.3-4.4-3-6.8-4.7-11-8-1.3-1-2.8-2-3.4-2.3-0.5-0.3-1.5-1-2.3-1.6-3.1-2.5-5.3-4.2-8-6.1-0.6-0.4-1.8-1.3-2.8-2.1-1-0.8-2.8-2.1-4-2.9-2.9-2-4.3-3.1-6.4-4.7-1-0.8-2.5-1.9-3.4-2.5-0.9-0.6-1.7-1.2-1.9-1.4-0.1-0.2-0.8-0.8-1.6-1.2-0.8-0.5-3.2-2.2-5.4-3.9-2.1-1.6-4.4-3.4-5.1-3.8-0.7-0.4-2.4-1.6-3.6-2.6-4.1-3.2-5.2-4-6-4.4-0.5-0.2-1.3-0.8-1.9-1.3-0.9-0.8-3.9-3-5.4-4.1-1.4-0.9-7.6-5.5-8.6-6.4-0.6-0.5-1.6-1.1-2.3-1.2-0.7-0.1-1.3-0.4-1.4-0.6-0.8-1.4-1 0.7-1 13.3z"/>
		<path id="path4" fill-rule="evenodd" class="s4" d="m379.8 17.4c1.3 1.3 1.3 353.9 0 355.2-1.3 1.3-368.3 1.3-369.6 0-0.8-0.8-0.8-1.3-0.8-177.6 0-176.3 0-176.8 0.8-177.6 1.3-1.3 368.3-1.3 369.6 0zm-369.1 0.5c-0.7 0.7-0.7 353.5 0 354.2 0.7 0.7 367.9 0.7 368.6 0 0.7-0.7 0.7-353.5 0-354.2-0.7-0.7-367.9-0.7-368.6 0zm86.5 120.2c0.5 0.4 1.7 1.4 2.7 2.1 1.1 0.8 2.6 1.9 3.4 2.5 1.8 1.4 3.7 2.7 6.3 4.5 1 0.7 2 1.5 2.2 1.7 0.1 0.2 0.9 0.9 1.8 1.4 2.2 1.5 3.7 2.6 6.4 4.7 1.3 1 3 2.3 3.8 2.8 2 1.3 3.8 2.6 7 5 1.5 1.1 4.3 3.2 6.3 4.7 2.1 1.4 4.3 3.1 5.1 3.7 1.4 1.1 3.9 2.9 7.2 5.3 3.2 2.3 4.8 3.5 6.1 4.5 0.7 0.6 1.9 1.4 2.6 1.8 0.7 0.3 1.3 0.8 1.3 1 0 0.2 0.6 0.7 1.4 1.1 0.7 0.5 1.7 1.1 2.1 1.5 0.4 0.3 1.7 1.3 2.9 2.2 2.2 1.5 3.7 2.6 6.8 5 0.9 0.7 2.5 1.8 3.6 2.6 1.2 0.8 2.8 1.9 3.6 2.6 0.9 0.7 2.3 1.7 3.2 2.4 0.9 0.7 2.2 1.7 2.9 2.2 0.7 0.6 1.9 1.4 2.6 1.8 0.7 0.3 1.3 0.8 1.3 1 0 0.2 0.7 0.7 1.5 1.2 0.8 0.5 1.6 1.1 1.8 1.4 0.4 0.8 3.4 0.8 3.8 0.1 0.2-0.3 1-1.1 1.9-1.7 1.8-1.2 3-2 6.3-4.6 1.3-1 2.9-2.2 3.6-2.6 0.7-0.4 1.6-1.1 2-1.4 0.3-0.3 1.6-1.2 2.7-2 1.2-0.8 2.8-2 3.6-2.7 0.8-0.7 1.7-1.3 1.9-1.3 0.2 0 0.6-0.3 0.9-0.6 0.3-0.4 1.5-1.3 2.6-2 1.1-0.8 2.7-1.9 3.6-2.6q3.3-2.5 5.8-4.2c0.8-0.5 2.1-1.5 3-2.2 0.9-0.7 2.3-1.8 3.2-2.4 3.4-2.5 4.7-3.5 6.4-4.9 1-0.8 2.1-1.6 2.6-1.7 0.4-0.1 0.8-0.4 0.8-0.6 0-0.2 0.7-0.8 1.5-1.2 0.8-0.5 2.7-1.8 4.2-2.9 1.4-1.2 3.7-2.8 4.9-3.7 1.3-0.9 3-2.1 3.8-2.8 0.9-0.7 2.1-1.6 2.9-2.1 2.8-2 5.7-4.2 6.7-5.1 0.6-0.5 1.5-1.2 2.2-1.6 1.2-0.6 2.4-1.5 6.4-4.6 2.2-1.7 3.2-2.5 6.2-4.6 0.8-0.5 2.4-1.7 3.6-2.6 4.1-3 3.9-3 5-2.5l1 0.5v12.7c0 16.2 0.6 14.4-7.5 21.5-1.4 1.3-3.2 2.9-3.9 3.6-0.7 0.7-1.6 1.5-2 1.8-0.5 0.4-2.4 2.1-4.4 4-2 1.8-4.9 4.5-6.4 6-6.1 5.7-7.6 7-10.8 9.8-1.7 1.5-3.7 3.3-4.2 3.8-0.6 0.6-2.9 2.6-5 4.6-4.2 3.8-9 8.2-12.6 11.6-1.2 1.1-3.7 3.3-5.4 4.9-1.8 1.5-3.8 3.3-4.5 4-0.6 0.6-2.8 2.6-4.9 4.5-3.6 3.2-6.2 5.6-13 12-3.6 3.3-8.9 8.1-11.8 10.6-1.2 1.1-2.5 2.2-2.9 2.7-1.1 1-2.8 0.9-4.2-0.4-2.6-2.4-8.4-7.7-10.5-9.5-1.2-1-2.4-2.1-2.6-2.4-0.2-0.2-1.5-1.4-2.8-2.6-1.3-1.2-3.9-3.6-5.8-5.4-1.9-1.7-5-4.5-6.8-6.2-1.9-1.6-3.7-3.3-4-3.6-0.3-0.4-2.1-2-4-3.7-1.9-1.6-3.8-3.3-4.2-3.7-0.8-0.7-5.8-5.3-13-12-1.6-1.5-3.8-3.5-4.8-4.4-1-0.9-2.8-2.5-4-3.6-2.1-1.8-9-8.1-10.4-9.4-0.3-0.3-3-2.8-6-5.6-3-2.7-5.7-5.2-6-5.6-0.4-0.3-2-1.8-3.6-3.2-1.6-1.4-4-3.5-5.2-4.7-1.2-1.1-2.7-2.4-3.3-2.9-1.7-1.3-1.9-2.9-1.9-16.5 0-11.6 0.1-12.7 0.7-13.1 1-0.6 1.9-0.5 2.7 0.3zm-2.1 15.3c0.1 11 0.2 13 0.7 13.1 0.3 0.1 1.3 0.9 2.1 1.7 0.8 0.8 2.1 1.9 2.9 2.6 0.7 0.7 1.6 1.4 1.9 1.7 0.7 0.7 1.2 1.2 3.2 2.9 0.9 0.8 2 1.8 2.5 2.2 0.4 0.5 2 1.9 3.4 3.2 3.8 3.4 11.9 11 13.4 12.5 0.7 0.7 1.4 1.3 1.6 1.3 0.1 0 1.4 1.1 2.7 2.3 1.3 1.3 3 2.9 3.7 3.5 0.7 0.6 1.8 1.6 2.5 2.1 0.6 0.6 2.7 2.5 4.7 4.3 2 1.8 4.9 4.5 6.5 6 1.6 1.6 3.9 3.7 5.1 4.8 1.2 1.1 3.3 3 4.6 4.3 1.3 1.3 2.5 2.3 2.7 2.3 0.2 0 0.9 0.6 1.6 1.3 1.3 1.4 1.7 1.7 5.3 4.9 1.2 1 3.9 3.5 6 5.6 2.1 2 5.6 5.2 7.8 7.2 2.2 2 4.6 4.2 5.3 4.9 0.7 0.7 1.4 1.3 1.5 1.3 0.2 0 0.9 0.6 1.6 1.3 6.1 6.4 7.1 6.4 13.2 0 0.7-0.7 1.4-1.3 1.6-1.3 0.1 0 0.8-0.6 1.6-1.3 0.7-0.7 2.9-2.8 5-4.7 2.1-1.9 4.4-4 5.2-4.8 2.9-2.8 7.5-7 10.2-9.4 1.5-1.3 3.3-2.9 4-3.6 0.7-0.7 2.5-2.3 4-3.6 4.4-3.9 5.1-4.5 7.8-7.1 2.7-2.5 10.1-9.4 12.9-11.9 0.9-0.8 2.2-1.9 2.9-2.6 0.7-0.7 2.4-2.2 3.8-3.4 3.4-3 4.9-4.4 8.2-7.5 1.6-1.5 4.9-4.6 7.4-6.9 2.5-2.3 5-4.5 5.4-5 0.5-0.4 1.7-1.5 2.6-2.3 2.6-2.3 6.2-5.5 7.7-6.9 0.8-0.7 1.7-1.5 2.1-1.7 0.8-0.4 0.8-1 0.8-14.1 0-14.7-0.2-15.8-1.9-13.5-0.4 0.6-1 1.1-1.3 1.1-0.2 0-0.9 0.5-1.4 1-0.6 0.6-1.8 1.5-2.7 2.1-0.9 0.5-1.7 1.1-1.7 1.3 0 0.2-0.4 0.5-0.9 0.6-0.5 0.2-1.5 0.8-2.3 1.5-4.3 3.5-5.3 4.3-5.8 4.3-0.3 0-0.6 0.3-0.7 0.6-0.2 0.3-0.8 0.8-1.4 1.1-0.6 0.2-1.6 0.9-2.1 1.4-1.8 1.6-5.1 4.1-5.6 4.1-0.2 0-0.8 0.5-1.3 1-0.5 0.6-1.1 1-1.3 1-0.3 0-0.9 0.4-1.4 1-1.5 1.4-4.7 3.8-5.9 4.3-0.6 0.3-1.6 0.9-2.2 1.5-2.2 2-3 2.7-4.5 3.6-0.9 0.5-1.9 1.3-2.3 1.7-0.4 0.4-0.9 0.7-1.2 0.7-0.3 0-1.2 0.6-2 1.3-2.4 2.3-4.5 3.9-4.9 3.9-0.3 0-1 0.5-1.7 1.2-0.7 0.7-1.5 1.2-1.8 1.2-0.2 0-0.9 0.5-1.5 1-1.4 1.5-5.2 4.2-5.8 4.2-0.3 0-0.8 0.5-1.2 1-0.3 0.6-0.9 1-1.1 1-0.3 0-1 0.5-1.5 1-0.6 0.6-1.6 1.4-2.4 1.8-0.8 0.4-1.7 1.1-2.1 1.6-0.4 0.4-0.9 0.8-1.2 0.8-0.3 0-1.2 0.6-2 1.3-2.3 2.1-4 3.3-5.4 4.1-0.7 0.3-1.3 0.8-1.3 1 0 0.3-0.6 0.7-1.4 1-0.7 0.3-1.9 1.1-2.5 1.7-2.1 1.9-4.6 3.7-5.1 3.7-0.3 0-0.9 0.4-1.2 1-0.4 0.5-1.1 1-1.6 1.2-0.6 0.1-1.3 0.7-1.6 1.2-0.6 0.8-1 1-2.6 1-1.6 0-2-0.2-2.6-1-0.3-0.5-1-1.1-1.6-1.2-0.5-0.2-1.2-0.7-1.6-1.2-0.3-0.6-0.9-1-1.2-1-0.5 0-2.6-1.5-5.2-3.8-0.7-0.6-1.8-1.4-2.5-1.8-0.7-0.4-1.3-1-1.3-1.2 0-0.2-0.5-0.5-1.1-0.7-0.7-0.2-1.8-1-2.6-1.7-0.8-0.6-1.6-1.2-1.8-1.2-0.3 0-0.8-0.4-1.1-1-0.4-0.5-1.2-1.1-1.8-1.4-0.7-0.2-1.3-0.6-1.4-1-0.2-0.3-1.1-1-2.1-1.4-1-0.5-1.9-1.2-2-1.5-0.1-0.3-0.8-0.8-1.4-1.2-0.7-0.3-1.5-1-1.8-1.4-0.3-0.4-0.8-0.7-1.1-0.7-0.3 0-1.2-0.6-2.1-1.3-0.9-0.7-2.5-1.9-3.5-2.7-1-0.8-2.5-1.9-3.2-2.5-0.7-0.6-1.4-1.1-1.6-1.1-0.3 0-5.2-3.6-5.3-4-0.1-0.3-0.9-0.8-1.8-1.2-0.8-0.5-1.6-1.1-1.7-1.4-0.2-0.3-0.7-0.6-1.1-0.7-0.5-0.2-1.5-0.8-2.3-1.5-0.8-0.7-1.9-1.5-2.5-1.8-0.6-0.4-1.1-0.8-1.1-1 0-0.2-0.5-0.6-1.1-0.8-1-0.4-1.5-0.8-5.4-4-1.1-0.9-2.1-1.6-2.3-1.6-0.2 0-0.7-0.4-1.1-0.8-0.5-0.5-1.4-1.2-2-1.5-0.7-0.4-2.3-1.5-3.5-2.5-3.8-3-5.1-3.9-6.4-4.6-1.4-0.8-3.3-2.3-5.2-4.1-0.8-0.7-1.7-1.3-1.9-1.3-0.3 0-1-0.4-1.5-1-0.5-0.5-1.1-1-1.4-1-0.2 0-1.2-0.7-2.2-1.6-1-0.9-2-1.6-2.3-1.6-0.3 0-0.8-0.4-1.1-1-1.9-2.9-2.3-0.6-2.1 14.2z"/>
	</g>
</svg>