<svg version="1.2" xmlns="http://www.w3.org/2000/svg" viewBox="0 0 121 120" width="40" height="40">
	<title>HostileEntity-svg</title>
	<style>
		.s0 { opacity: .9;fill: #120908 } 
		.s1 { fill: #fd7f7f } 
		.s2 { fill: #fc7e7e } 
	</style>
	<g id="Layer">
		<path id="Layer" fill-rule="evenodd" class="s0" d="m59 0.5q30.7 28.8 60.1 59.3-29.3 30-59.3 59.3-30-29.3-59.3-59.3 29.3-29.7 58.5-59.3z"/>
	</g>
	<g id="Layer">
		<path id="Layer" fill-rule="evenodd" class="s1" d="m59 5.8q0.9-0.2 1.5 0.3 14.5 14.7 29.3 28.9-14.7 11.7-30 22.5-15.4-10.8-30-22.5 15-14.3 29.2-29.2z"/>
	</g>
	<g id="Layer">
		<path id="Layer" fill-rule="evenodd" class="s1" d="m26.8 38q15.6 10 30 21.8-14.3 11.1-28.9 21.7-11.6-10.2-22.1-21.7 10.5-10.9 21-21.8z"/>
	</g>
	<g id="Layer">
		<path id="Layer" fill-rule="evenodd" class="s2" d="m90.5 38q1.2-0.2 2.3 0.4 10.7 10.5 21 21.4-10.5 11.5-22.1 21.7-14.7-10.6-28.9-21.7 14.1-10.6 27.7-21.8z"/>
	</g>
	<g id="Layer">
		<path id="Layer" fill-rule="evenodd" class="s1" d="m59 62q15.7 10.5 30.8 22.2-14.8 15-30 29.6-15.2-14.6-30-29.6 14.8-11 29.2-22.2z"/>
	</g>
</svg>